G04 #@! TF.GenerationSoftware,KiCad,Pcbnew,7.0.11-7.0.11~ubuntu22.04.1*
G04 #@! TF.CreationDate,2024-09-18T23:24:04-04:00*
G04 #@! TF.ProjectId,tfr903d,74667239-3033-4642-9e6b-696361645f70,2024-09-18*
G04 #@! TF.SameCoordinates,Original*
G04 #@! TF.FileFunction,Paste,Top*
G04 #@! TF.FilePolarity,Positive*
%FSLAX46Y46*%
G04 Gerber Fmt 4.6, Leading zero omitted, Abs format (unit mm)*
G04 Created by KiCad (PCBNEW 7.0.11-7.0.11~ubuntu22.04.1) date 2024-09-18 23:24:04*
%MOMM*%
%LPD*%
G01*
G04 APERTURE LIST*
G04 Aperture macros list*
%AMRoundRect*
0 Rectangle with rounded corners*
0 $1 Rounding radius*
0 $2 $3 $4 $5 $6 $7 $8 $9 X,Y pos of 4 corners*
0 Add a 4 corners polygon primitive as box body*
4,1,4,$2,$3,$4,$5,$6,$7,$8,$9,$2,$3,0*
0 Add four circle primitives for the rounded corners*
1,1,$1+$1,$2,$3*
1,1,$1+$1,$4,$5*
1,1,$1+$1,$6,$7*
1,1,$1+$1,$8,$9*
0 Add four rect primitives between the rounded corners*
20,1,$1+$1,$2,$3,$4,$5,0*
20,1,$1+$1,$4,$5,$6,$7,0*
20,1,$1+$1,$6,$7,$8,$9,0*
20,1,$1+$1,$8,$9,$2,$3,0*%
G04 Aperture macros list end*
%ADD10RoundRect,0.140000X0.170000X-0.140000X0.170000X0.140000X-0.170000X0.140000X-0.170000X-0.140000X0*%
%ADD11RoundRect,0.140000X-0.140000X-0.170000X0.140000X-0.170000X0.140000X0.170000X-0.140000X0.170000X0*%
%ADD12R,0.900000X0.400000*%
%ADD13RoundRect,0.100000X-0.637500X-0.100000X0.637500X-0.100000X0.637500X0.100000X-0.637500X0.100000X0*%
%ADD14RoundRect,0.140000X-0.170000X0.140000X-0.170000X-0.140000X0.170000X-0.140000X0.170000X0.140000X0*%
%ADD15RoundRect,0.140000X0.140000X0.170000X-0.140000X0.170000X-0.140000X-0.170000X0.140000X-0.170000X0*%
G04 APERTURE END LIST*
D10*
X114400000Y-62400000D03*
X114400000Y-61440000D03*
D11*
X102220000Y-107000000D03*
X103180000Y-107000000D03*
D12*
X65450000Y-134600000D03*
X65450000Y-135400000D03*
X65450000Y-136200000D03*
X65450000Y-137000000D03*
X67150000Y-137000000D03*
X67150000Y-136200000D03*
X67150000Y-135400000D03*
X67150000Y-134600000D03*
D11*
X69240000Y-129400000D03*
X70200000Y-129400000D03*
D13*
X73637500Y-112175000D03*
X73637500Y-112825000D03*
X73637500Y-113475000D03*
X73637500Y-114125000D03*
X73637500Y-114775000D03*
X73637500Y-115425000D03*
X73637500Y-116075000D03*
X73637500Y-116725000D03*
X73637500Y-117375000D03*
X73637500Y-118025000D03*
X79362500Y-118025000D03*
X79362500Y-117375000D03*
X79362500Y-116725000D03*
X79362500Y-116075000D03*
X79362500Y-115425000D03*
X79362500Y-114775000D03*
X79362500Y-114125000D03*
X79362500Y-113475000D03*
X79362500Y-112825000D03*
X79362500Y-112175000D03*
D12*
X70200000Y-134500000D03*
X70200000Y-135300000D03*
X70200000Y-136100000D03*
X70200000Y-136900000D03*
X71900000Y-136900000D03*
X71900000Y-136100000D03*
X71900000Y-135300000D03*
X71900000Y-134500000D03*
D11*
X135520000Y-130700000D03*
X136480000Y-130700000D03*
D13*
X91637500Y-111675000D03*
X91637500Y-112325000D03*
X91637500Y-112975000D03*
X91637500Y-113625000D03*
X91637500Y-114275000D03*
X91637500Y-114925000D03*
X91637500Y-115575000D03*
X91637500Y-116225000D03*
X91637500Y-116875000D03*
X91637500Y-117525000D03*
X97362500Y-117525000D03*
X97362500Y-116875000D03*
X97362500Y-116225000D03*
X97362500Y-115575000D03*
X97362500Y-114925000D03*
X97362500Y-114275000D03*
X97362500Y-113625000D03*
X97362500Y-112975000D03*
X97362500Y-112325000D03*
X97362500Y-111675000D03*
X125937500Y-111675000D03*
X125937500Y-112325000D03*
X125937500Y-112975000D03*
X125937500Y-113625000D03*
X125937500Y-114275000D03*
X125937500Y-114925000D03*
X125937500Y-115575000D03*
X125937500Y-116225000D03*
X125937500Y-116875000D03*
X125937500Y-117525000D03*
X131662500Y-117525000D03*
X131662500Y-116875000D03*
X131662500Y-116225000D03*
X131662500Y-115575000D03*
X131662500Y-114925000D03*
X131662500Y-114275000D03*
X131662500Y-113625000D03*
X131662500Y-112975000D03*
X131662500Y-112325000D03*
X131662500Y-111675000D03*
D11*
X84500000Y-107400000D03*
X85460000Y-107400000D03*
D12*
X60500000Y-134400000D03*
X60500000Y-135200000D03*
X60500000Y-136000000D03*
X60500000Y-136800000D03*
X62200000Y-136800000D03*
X62200000Y-136000000D03*
X62200000Y-135200000D03*
X62200000Y-134400000D03*
D11*
X129240000Y-106600000D03*
X130200000Y-106600000D03*
X66740000Y-107300000D03*
X67700000Y-107300000D03*
X135200000Y-106500000D03*
X136160000Y-106500000D03*
D14*
X85900000Y-56920000D03*
X85900000Y-57880000D03*
D11*
X120320000Y-106800000D03*
X121280000Y-106800000D03*
X111840000Y-106800000D03*
X112800000Y-106800000D03*
X143240000Y-60200000D03*
X144200000Y-60200000D03*
D15*
X72230000Y-138650000D03*
X71270000Y-138650000D03*
D11*
X92840000Y-107100000D03*
X93800000Y-107100000D03*
D13*
X108925000Y-111675000D03*
X108925000Y-112325000D03*
X108925000Y-112975000D03*
X108925000Y-113625000D03*
X108925000Y-114275000D03*
X108925000Y-114925000D03*
X108925000Y-115575000D03*
X108925000Y-116225000D03*
X108925000Y-116875000D03*
X108925000Y-117525000D03*
X114650000Y-117525000D03*
X114650000Y-116875000D03*
X114650000Y-116225000D03*
X114650000Y-115575000D03*
X114650000Y-114925000D03*
X114650000Y-114275000D03*
X114650000Y-113625000D03*
X114650000Y-112975000D03*
X114650000Y-112325000D03*
X114650000Y-111675000D03*
M02*
