G04 #@! TF.GenerationSoftware,KiCad,Pcbnew,7.0.11-7.0.11~ubuntu22.04.1*
G04 #@! TF.CreationDate,2024-09-18T23:24:04-04:00*
G04 #@! TF.ProjectId,tfr903d,74667239-3033-4642-9e6b-696361645f70,2024-09-18*
G04 #@! TF.SameCoordinates,Original*
G04 #@! TF.FileFunction,Copper,L4,Bot*
G04 #@! TF.FilePolarity,Positive*
%FSLAX46Y46*%
G04 Gerber Fmt 4.6, Leading zero omitted, Abs format (unit mm)*
G04 Created by KiCad (PCBNEW 7.0.11-7.0.11~ubuntu22.04.1) date 2024-09-18 23:24:04*
%MOMM*%
%LPD*%
G01*
G04 APERTURE LIST*
G04 #@! TA.AperFunction,ComponentPad*
%ADD10O,1.700000X1.700000*%
G04 #@! TD*
G04 #@! TA.AperFunction,ComponentPad*
%ADD11R,1.700000X1.700000*%
G04 #@! TD*
G04 #@! TA.AperFunction,ComponentPad*
%ADD12C,5.000000*%
G04 #@! TD*
G04 #@! TA.AperFunction,ComponentPad*
%ADD13R,1.600000X1.600000*%
G04 #@! TD*
G04 #@! TA.AperFunction,ComponentPad*
%ADD14O,1.600000X1.600000*%
G04 #@! TD*
G04 #@! TA.AperFunction,ViaPad*
%ADD15C,0.558800*%
G04 #@! TD*
G04 #@! TA.AperFunction,Conductor*
%ADD16C,0.635000*%
G04 #@! TD*
G04 #@! TA.AperFunction,Conductor*
%ADD17C,0.317600*%
G04 #@! TD*
G04 APERTURE END LIST*
D10*
X90995000Y-53960000D03*
X90995000Y-56500000D03*
D11*
X90995000Y-59040000D03*
D10*
X90995000Y-61580000D03*
X90995000Y-64120000D03*
X90995000Y-66660000D03*
X90995000Y-69200000D03*
D11*
X90995000Y-71740000D03*
D10*
X90995000Y-74280000D03*
X90995000Y-76820000D03*
X90995000Y-79360000D03*
X90995000Y-81900000D03*
D11*
X90995000Y-84440000D03*
D10*
X90995000Y-86980000D03*
X90995000Y-89520000D03*
X90995000Y-92060000D03*
X90995000Y-94600000D03*
D11*
X90995000Y-97140000D03*
D10*
X90995000Y-99680000D03*
X90995000Y-102220000D03*
X108775000Y-102220000D03*
X108775000Y-99680000D03*
D11*
X108775000Y-97140000D03*
D10*
X108775000Y-94600000D03*
X108775000Y-92060000D03*
X108775000Y-89520000D03*
X108775000Y-86980000D03*
D11*
X108775000Y-84440000D03*
D10*
X108775000Y-81900000D03*
X108775000Y-79360000D03*
X108775000Y-76820000D03*
X108775000Y-74280000D03*
D11*
X108775000Y-71740000D03*
D10*
X108775000Y-69200000D03*
X108775000Y-66660000D03*
X108775000Y-64120000D03*
X108775000Y-61580000D03*
D11*
X108775000Y-59040000D03*
D10*
X108775000Y-56500000D03*
X108775000Y-53960000D03*
X100469100Y-83690000D03*
D11*
X103009100Y-83690000D03*
D10*
X105549100Y-83690000D03*
D11*
X53800000Y-118080000D03*
D10*
X53800000Y-120620000D03*
X53800000Y-123160000D03*
X53800000Y-125700000D03*
X53800000Y-128240000D03*
X53800000Y-130780000D03*
X53800000Y-133320000D03*
X53800000Y-135860000D03*
D11*
X140100000Y-110800000D03*
D10*
X140100000Y-113340000D03*
X140100000Y-115880000D03*
X140100000Y-118420000D03*
X140100000Y-120960000D03*
X140100000Y-123500000D03*
X140100000Y-126040000D03*
X140100000Y-128580000D03*
D11*
X62485000Y-144600000D03*
D10*
X65025000Y-144600000D03*
X67565000Y-144600000D03*
X70105000Y-144600000D03*
X72645000Y-144600000D03*
X75185000Y-144600000D03*
X77725000Y-144600000D03*
X80265000Y-144600000D03*
D12*
X55195900Y-145095900D03*
D11*
X146300000Y-63880000D03*
D10*
X146300000Y-66420000D03*
X146300000Y-68960000D03*
X146300000Y-71500000D03*
X146300000Y-74040000D03*
X146300000Y-76580000D03*
X146300000Y-79120000D03*
X146300000Y-81660000D03*
D12*
X144565000Y-55240000D03*
D11*
X53790000Y-65240000D03*
D10*
X53790000Y-67780000D03*
X53790000Y-70320000D03*
X53790000Y-72860000D03*
X53790000Y-75400000D03*
X53790000Y-77940000D03*
X53790000Y-80480000D03*
X53790000Y-83020000D03*
D11*
X146800000Y-111980000D03*
D10*
X146800000Y-114520000D03*
X146800000Y-117060000D03*
X146800000Y-119600000D03*
X146800000Y-122140000D03*
X146800000Y-124680000D03*
X146800000Y-127220000D03*
X146800000Y-129760000D03*
D11*
X131800000Y-125780000D03*
D10*
X131800000Y-128320000D03*
X131800000Y-130860000D03*
X131800000Y-133400000D03*
X131800000Y-135940000D03*
X131800000Y-138480000D03*
X131800000Y-141020000D03*
X131800000Y-143560000D03*
D11*
X139180000Y-133800000D03*
D10*
X141720000Y-133800000D03*
X144260000Y-133800000D03*
X146800000Y-133800000D03*
D13*
X75805000Y-139575000D03*
D14*
X78345000Y-139575000D03*
X80885000Y-139575000D03*
X83425000Y-139575000D03*
X85965000Y-139575000D03*
X88505000Y-139575000D03*
X91045000Y-139575000D03*
X93585000Y-139575000D03*
X96125000Y-139575000D03*
X98665000Y-139575000D03*
X101205000Y-139575000D03*
X103745000Y-139575000D03*
X106285000Y-139575000D03*
X108825000Y-139575000D03*
X111365000Y-139575000D03*
X113905000Y-139575000D03*
X116445000Y-139575000D03*
X118985000Y-139575000D03*
X121525000Y-139575000D03*
X124065000Y-139575000D03*
X124065000Y-124335000D03*
X121525000Y-124335000D03*
X118985000Y-124335000D03*
X116445000Y-124335000D03*
X113905000Y-124335000D03*
X111365000Y-124335000D03*
X108825000Y-124335000D03*
X106285000Y-124335000D03*
X103745000Y-124335000D03*
X101205000Y-124335000D03*
X98665000Y-124335000D03*
X96125000Y-124335000D03*
X93585000Y-124335000D03*
X91045000Y-124335000D03*
X88505000Y-124335000D03*
X85965000Y-124335000D03*
X83425000Y-124335000D03*
X80885000Y-124335000D03*
X78345000Y-124335000D03*
X75805000Y-124335000D03*
D10*
X119035000Y-53940000D03*
X119035000Y-56480000D03*
D11*
X119035000Y-59020000D03*
D10*
X119035000Y-61560000D03*
X119035000Y-64100000D03*
X119035000Y-66640000D03*
X119035000Y-69180000D03*
D11*
X119035000Y-71720000D03*
D10*
X119035000Y-74260000D03*
X119035000Y-76800000D03*
X119035000Y-79340000D03*
X119035000Y-81880000D03*
D11*
X119035000Y-84420000D03*
D10*
X119035000Y-86960000D03*
X119035000Y-89500000D03*
X119035000Y-92040000D03*
X119035000Y-94580000D03*
D11*
X119035000Y-97120000D03*
D10*
X119035000Y-99660000D03*
X119035000Y-102200000D03*
X136815000Y-102200000D03*
X136815000Y-99660000D03*
D11*
X136815000Y-97120000D03*
D10*
X136815000Y-94580000D03*
X136815000Y-92040000D03*
X136815000Y-89500000D03*
X136815000Y-86960000D03*
D11*
X136815000Y-84420000D03*
D10*
X136815000Y-81880000D03*
X136815000Y-79340000D03*
X136815000Y-76800000D03*
X136815000Y-74260000D03*
D11*
X136815000Y-71720000D03*
D10*
X136815000Y-69180000D03*
X136815000Y-66640000D03*
X136815000Y-64100000D03*
X136815000Y-61560000D03*
D11*
X136815000Y-59020000D03*
D10*
X136815000Y-56480000D03*
X136815000Y-53940000D03*
X128509100Y-83670000D03*
D11*
X131049100Y-83670000D03*
D10*
X133589100Y-83670000D03*
D11*
X109525000Y-144100000D03*
D10*
X112065000Y-144100000D03*
X114605000Y-144100000D03*
X117145000Y-144100000D03*
X119685000Y-144100000D03*
X122225000Y-144100000D03*
X124765000Y-144100000D03*
X127305000Y-144100000D03*
D11*
X53790000Y-89710000D03*
D10*
X53790000Y-92250000D03*
X53790000Y-94790000D03*
X53790000Y-97330000D03*
X53790000Y-99870000D03*
X53790000Y-102410000D03*
X53790000Y-104950000D03*
X53790000Y-107490000D03*
D11*
X85525000Y-144100000D03*
D10*
X88065000Y-144100000D03*
X90605000Y-144100000D03*
X93145000Y-144100000D03*
X95685000Y-144100000D03*
X98225000Y-144100000D03*
X100765000Y-144100000D03*
X103305000Y-144100000D03*
D12*
X55505900Y-55234100D03*
X144735000Y-144760000D03*
D11*
X59000000Y-110820000D03*
D10*
X59000000Y-113360000D03*
X59000000Y-115900000D03*
X59000000Y-118440000D03*
X59000000Y-120980000D03*
X59000000Y-123520000D03*
X59000000Y-126060000D03*
X59000000Y-128600000D03*
X63020000Y-54020000D03*
X63020000Y-56560000D03*
D11*
X63020000Y-59100000D03*
D10*
X63020000Y-61640000D03*
X63020000Y-64180000D03*
X63020000Y-66720000D03*
X63020000Y-69260000D03*
D11*
X63020000Y-71800000D03*
D10*
X63020000Y-74340000D03*
X63020000Y-76880000D03*
X63020000Y-79420000D03*
X63020000Y-81960000D03*
D11*
X63020000Y-84500000D03*
D10*
X63020000Y-87040000D03*
X63020000Y-89580000D03*
X63020000Y-92120000D03*
X63020000Y-94660000D03*
D11*
X63020000Y-97200000D03*
D10*
X63020000Y-99740000D03*
X63020000Y-102280000D03*
X80800000Y-102280000D03*
X80800000Y-99740000D03*
D11*
X80800000Y-97200000D03*
D10*
X80800000Y-94660000D03*
X80800000Y-92120000D03*
X80800000Y-89580000D03*
X80800000Y-87040000D03*
D11*
X80800000Y-84500000D03*
D10*
X80800000Y-81960000D03*
X80800000Y-79420000D03*
X80800000Y-76880000D03*
X80800000Y-74340000D03*
D11*
X80800000Y-71800000D03*
D10*
X80800000Y-69260000D03*
X80800000Y-66720000D03*
X80800000Y-64180000D03*
X80800000Y-61640000D03*
D11*
X80800000Y-59100000D03*
D10*
X80800000Y-56560000D03*
X80800000Y-54020000D03*
X72494100Y-83750000D03*
D11*
X75034100Y-83750000D03*
D10*
X77574100Y-83750000D03*
D11*
X146400000Y-87720000D03*
D10*
X146400000Y-90260000D03*
X146400000Y-92800000D03*
X146400000Y-95340000D03*
X146400000Y-97880000D03*
X146400000Y-100420000D03*
X146400000Y-102960000D03*
X146400000Y-105500000D03*
D15*
X74150000Y-107500000D03*
X72100000Y-129400000D03*
X125650000Y-108800000D03*
X109300000Y-106700000D03*
X111650000Y-109302500D03*
X91250000Y-106650000D03*
X126850000Y-105850000D03*
X91700000Y-109500000D03*
X115151600Y-96185700D03*
X134320800Y-130182500D03*
X127225400Y-75530000D03*
X141294100Y-108807100D03*
X118156000Y-112194000D03*
X100471000Y-111967000D03*
X105350000Y-55650000D03*
X100540000Y-112782000D03*
X118650000Y-112900000D03*
X119150000Y-113800000D03*
X83358600Y-106661900D03*
X100918000Y-113505000D03*
X95050000Y-116450000D03*
X119650000Y-114800000D03*
X101415000Y-114148000D03*
X87214600Y-76746600D03*
X104109400Y-67922800D03*
X101066000Y-115682000D03*
X119450000Y-116000000D03*
X118650000Y-116900000D03*
X100693000Y-116707800D03*
X99550000Y-117400000D03*
X117850000Y-117700000D03*
X106242800Y-75542800D03*
X99531200Y-118607800D03*
X116950000Y-118600000D03*
X135300000Y-112200000D03*
X82987500Y-112725000D03*
X132092200Y-98098400D03*
X135800000Y-112900000D03*
X83487500Y-113425000D03*
X83987500Y-114325000D03*
X136300000Y-113800000D03*
X136800000Y-114800000D03*
X133802300Y-107029000D03*
X84487500Y-115325000D03*
X136600000Y-116000000D03*
X84287500Y-116525000D03*
X135800000Y-116900000D03*
X83487500Y-117425000D03*
X82687500Y-118225000D03*
X135000000Y-117700000D03*
X81787500Y-119125000D03*
X134100000Y-118600000D03*
X81467900Y-105372700D03*
X87758100Y-111945000D03*
X86700000Y-112050000D03*
X86600000Y-113200000D03*
X86400000Y-114400000D03*
X86660600Y-115639000D03*
X87360600Y-116339000D03*
X87903500Y-117017000D03*
X88200000Y-118200000D03*
X106462000Y-111225000D03*
X122612000Y-111475000D03*
X121812000Y-112275000D03*
X121161400Y-113098499D03*
X121298689Y-114350311D03*
X121312000Y-115375000D03*
X121812000Y-116275000D03*
X122312000Y-116975000D03*
X122612000Y-118175000D03*
X71118800Y-111725000D03*
X70218800Y-112625000D03*
X69418800Y-113425000D03*
X68814400Y-114409000D03*
X68714400Y-115739000D03*
X69650000Y-116750000D03*
X83494900Y-109252600D03*
X88345200Y-111383000D03*
X82687500Y-111525000D03*
X100431000Y-111025000D03*
X135000000Y-111000000D03*
X117850000Y-111000000D03*
X110100000Y-132150000D03*
X143200000Y-71000000D03*
X137873700Y-105332300D03*
X130600000Y-119300000D03*
X147765900Y-84669900D03*
X64050000Y-113250000D03*
X144011000Y-111390700D03*
X64100000Y-109250000D03*
X147633700Y-77844700D03*
X62039460Y-118789460D03*
X61850000Y-122250000D03*
X61869090Y-126046630D03*
X61800000Y-129400000D03*
X87150000Y-132400000D03*
X61907800Y-111542386D03*
X84897800Y-132052000D03*
X61900000Y-115150000D03*
D16*
X144250000Y-137900000D02*
X144260000Y-137890000D01*
X60050000Y-74770000D02*
X60050000Y-81530000D01*
X51728500Y-133320000D02*
X53800000Y-133320000D01*
X63020000Y-84500000D02*
X63755000Y-85235000D01*
X59371800Y-103671800D02*
X59450000Y-103750000D01*
X139850000Y-81385000D02*
X136815000Y-84420000D01*
X131049000Y-83670000D02*
X131049100Y-83670100D01*
X144260000Y-137890000D02*
X144735000Y-138365000D01*
X52350000Y-148600000D02*
X54950000Y-148600000D01*
X111650000Y-109050000D02*
X111650000Y-109302500D01*
X129564000Y-85155000D02*
X131049000Y-83670000D01*
X122250000Y-97120000D02*
X136815000Y-97120000D01*
X51350000Y-147600000D02*
X52350000Y-148600000D01*
X136815000Y-59020000D02*
X139600000Y-61805000D01*
X140200000Y-59020000D02*
X140200000Y-99950000D01*
X140200000Y-59020000D02*
X140785000Y-59020000D01*
X60000000Y-62120000D02*
X60000000Y-68780000D01*
D17*
X125650000Y-108800000D02*
X125650000Y-107050000D01*
D16*
X119015000Y-71740000D02*
X119035000Y-71720000D01*
X119015000Y-84440000D02*
X119035000Y-84420000D01*
X148800000Y-131700000D02*
X146360000Y-131700000D01*
X54950000Y-145341800D02*
X55195900Y-145095900D01*
X136815000Y-97120000D02*
X139922500Y-100227500D01*
X148800000Y-131700000D02*
X148800000Y-137900000D01*
X90995000Y-71740000D02*
X108775000Y-71740000D01*
X119015000Y-97140000D02*
X119035000Y-97120000D01*
X122450000Y-59020000D02*
X136815000Y-59020000D01*
X59450000Y-103750000D02*
X59450000Y-104300000D01*
X63020000Y-59100000D02*
X80800000Y-59100000D01*
X90935000Y-59100000D02*
X90995000Y-59040000D01*
X80800000Y-97200000D02*
X90935000Y-97200000D01*
X119035000Y-71720000D02*
X136815000Y-71720000D01*
X136815000Y-84420000D02*
X139800000Y-87405000D01*
X51350000Y-133698500D02*
X51350000Y-144850000D01*
X136080000Y-85155000D02*
X136815000Y-84420000D01*
X75034100Y-83750000D02*
X76519100Y-85235000D01*
X80800000Y-71800000D02*
X90935000Y-71800000D01*
X104494000Y-85175000D02*
X108040000Y-85175000D01*
X119035000Y-97120000D02*
X122250000Y-97120000D01*
X139922500Y-100227500D02*
X143500000Y-103805000D01*
X143500000Y-105400000D02*
X148800000Y-110700000D01*
X60050000Y-81530000D02*
X63020000Y-84500000D01*
X108775000Y-59040000D02*
X119015000Y-59040000D01*
X103009100Y-83690100D02*
X103009100Y-83690000D01*
X59371800Y-59100000D02*
X55505900Y-55234100D01*
X63020000Y-71800000D02*
X60050000Y-74770000D01*
X63755000Y-85235000D02*
X73549100Y-85235000D01*
X139600000Y-61805000D02*
X139600000Y-68935000D01*
X103009000Y-83690000D02*
X103009100Y-83690100D01*
X69550000Y-133320000D02*
X75805000Y-139575000D01*
X131023000Y-148600000D02*
X139180000Y-140443000D01*
X76519100Y-85235000D02*
X80065000Y-85235000D01*
X54950000Y-148600000D02*
X131023000Y-148600000D01*
X108775000Y-97140000D02*
X119015000Y-97140000D01*
X122450000Y-59020000D02*
X122450000Y-96920000D01*
X90935000Y-71800000D02*
X90995000Y-71740000D01*
X119015000Y-59040000D02*
X119035000Y-59020000D01*
X53800000Y-133320000D02*
X69550000Y-133320000D01*
X80800000Y-59100000D02*
X90935000Y-59100000D01*
X91250000Y-106650000D02*
X91250000Y-109050000D01*
X136815000Y-71720000D02*
X139850000Y-74755000D01*
X80065000Y-85235000D02*
X80800000Y-84500000D01*
X59450000Y-100770000D02*
X59450000Y-103750000D01*
X139800000Y-94135000D02*
X136815000Y-97120000D01*
X139180000Y-137900000D02*
X139180000Y-133800000D01*
X139600000Y-68935000D02*
X136815000Y-71720000D01*
X51350000Y-133698500D02*
X51728500Y-133320000D01*
X139850000Y-74755000D02*
X139850000Y-81385000D01*
X63020000Y-59100000D02*
X59371800Y-59100000D01*
X131049100Y-83670100D02*
X131049100Y-83670000D01*
X140785000Y-59020000D02*
X144565000Y-55240000D01*
X109300000Y-106700000D02*
X111650000Y-109050000D01*
X73549100Y-85235000D02*
X75034100Y-83750000D01*
X108775000Y-71740000D02*
X119015000Y-71740000D01*
X139180000Y-140443000D02*
X139180000Y-137900000D01*
X63020000Y-84500000D02*
X60100000Y-87420000D01*
X146360000Y-131700000D02*
X144260000Y-133800000D01*
X139800000Y-87405000D02*
X139800000Y-94135000D01*
X131049100Y-83670100D02*
X132534000Y-85155000D01*
X108040000Y-85175000D02*
X108775000Y-84440000D01*
X69550000Y-131950000D02*
X72100000Y-129400000D01*
X148800000Y-110700000D02*
X148800000Y-131700000D01*
X91250000Y-109050000D02*
X91700000Y-109500000D01*
X90935000Y-84500000D02*
X90995000Y-84440000D01*
X148800000Y-137900000D02*
X144250000Y-137900000D01*
X91730000Y-85175000D02*
X101524000Y-85175000D01*
X51350000Y-144850000D02*
X51595900Y-145095900D01*
X136815000Y-59020000D02*
X140200000Y-59020000D01*
X63020000Y-59100000D02*
X60000000Y-62120000D01*
X119035000Y-84420000D02*
X119770000Y-85155000D01*
X144250000Y-137900000D02*
X139180000Y-137900000D01*
X63020000Y-97200000D02*
X80800000Y-97200000D01*
X60100000Y-87420000D02*
X60100000Y-94280000D01*
X53800000Y-133320000D02*
X53800000Y-135860000D01*
X122450000Y-96920000D02*
X122250000Y-97120000D01*
X103009100Y-83690100D02*
X104494000Y-85175000D01*
X59371800Y-59100000D02*
X59371800Y-103671800D01*
X80800000Y-84500000D02*
X90935000Y-84500000D01*
X54950000Y-148600000D02*
X54950000Y-145341800D01*
X90995000Y-84440000D02*
X91730000Y-85175000D01*
X108775000Y-84440000D02*
X119015000Y-84440000D01*
X90995000Y-59040000D02*
X108775000Y-59040000D01*
X140200000Y-99950000D02*
X139922500Y-100227500D01*
X51595900Y-145095900D02*
X55195900Y-145095900D01*
X63020000Y-71800000D02*
X80800000Y-71800000D01*
X132534000Y-85155000D02*
X136080000Y-85155000D01*
X144260000Y-137890000D02*
X144260000Y-133800000D01*
X90995000Y-97140000D02*
X108775000Y-97140000D01*
X119770000Y-85155000D02*
X129564000Y-85155000D01*
X51350000Y-144850000D02*
X51350000Y-147600000D01*
X119035000Y-59020000D02*
X122450000Y-59020000D01*
X101524000Y-85175000D02*
X103009000Y-83690000D01*
X51350000Y-112400000D02*
X51350000Y-133698500D01*
X90935000Y-97200000D02*
X90995000Y-97140000D01*
X59450000Y-104300000D02*
X51350000Y-112400000D01*
X69550000Y-133320000D02*
X69550000Y-131950000D01*
X143500000Y-103805000D02*
X143500000Y-105400000D01*
D17*
X125650000Y-107050000D02*
X126850000Y-105850000D01*
D16*
X60100000Y-94280000D02*
X63020000Y-97200000D01*
X63020000Y-97200000D02*
X59450000Y-100770000D01*
X60000000Y-68780000D02*
X63020000Y-71800000D01*
X144735000Y-138365000D02*
X144735000Y-144760000D01*
D17*
X100471000Y-111967000D02*
X102138000Y-110300000D01*
X102138000Y-110300000D02*
X116091000Y-110300000D01*
X116091000Y-110300000D02*
X117985000Y-112194000D01*
X117985000Y-112194000D02*
X118156000Y-112194000D01*
X86295000Y-51800000D02*
X90995000Y-56500000D01*
X118650000Y-112900000D02*
X114900000Y-112900000D01*
X114900000Y-112900000D02*
X114000000Y-112000000D01*
X96145000Y-51350000D02*
X103650000Y-51350000D01*
X63020000Y-56560000D02*
X67780000Y-51800000D01*
X119035000Y-56480000D02*
X117792200Y-55237200D01*
X105762800Y-55237200D02*
X105350000Y-55650000D01*
X90995000Y-56500000D02*
X96145000Y-51350000D01*
X67780000Y-51800000D02*
X86295000Y-51800000D01*
X100635000Y-112782000D02*
X100540000Y-112782000D01*
X114000000Y-112000000D02*
X101417000Y-112000000D01*
X105350000Y-53050000D02*
X105350000Y-55650000D01*
X103650000Y-51350000D02*
X105350000Y-53050000D01*
X117792200Y-55237200D02*
X105762800Y-55237200D01*
X101417000Y-112000000D02*
X100635000Y-112782000D01*
X65850000Y-64470000D02*
X65850000Y-70050000D01*
X84577800Y-67997200D02*
X90995000Y-61580000D01*
X119150000Y-113800000D02*
X104300000Y-113800000D01*
X117752200Y-62842800D02*
X119035000Y-61560000D01*
X101373000Y-113050000D02*
X100918000Y-113505000D01*
X80276931Y-67997200D02*
X84577800Y-67997200D01*
X92675000Y-59900000D02*
X102550000Y-59900000D01*
X65850000Y-70050000D02*
X78224131Y-70050000D01*
X78224131Y-70050000D02*
X80276931Y-67997200D01*
X104300000Y-113800000D02*
X103550000Y-113050000D01*
X102550000Y-59900000D02*
X105492800Y-62842800D01*
X90995000Y-61580000D02*
X92675000Y-59900000D01*
X63020000Y-61640000D02*
X65850000Y-64470000D01*
X103550000Y-113050000D02*
X101373000Y-113050000D01*
X105492800Y-62842800D02*
X117752200Y-62842800D01*
X117752200Y-65382800D02*
X119035000Y-64100000D01*
X102067000Y-114800000D02*
X101415000Y-114148000D01*
X90995000Y-64120000D02*
X94615000Y-60500000D01*
X99800000Y-60500000D02*
X104682800Y-65382800D01*
X119650000Y-114800000D02*
X102067000Y-114800000D01*
X94615000Y-60500000D02*
X99800000Y-60500000D01*
X104682800Y-65382800D02*
X117752200Y-65382800D01*
X104109400Y-67922800D02*
X102182200Y-69850000D01*
X102182200Y-69850000D02*
X94185000Y-69850000D01*
X101084000Y-115700000D02*
X101066000Y-115682000D01*
X119035000Y-66640000D02*
X117752000Y-67922800D01*
X94185000Y-69850000D02*
X90995000Y-66660000D01*
X119150000Y-115700000D02*
X101084000Y-115700000D01*
X119450000Y-116000000D02*
X119150000Y-115700000D01*
X117752000Y-67922800D02*
X104109400Y-67922800D01*
X118638000Y-116912000D02*
X100897200Y-116912000D01*
X100897200Y-116912000D02*
X100693000Y-116707800D01*
X118650000Y-116900000D02*
X118638000Y-116912000D01*
X99875000Y-117725000D02*
X99550000Y-117400000D01*
X90995000Y-74280000D02*
X89672200Y-75602800D01*
X106242800Y-75542800D02*
X92257800Y-75542800D01*
X117850000Y-117700000D02*
X117825000Y-117725000D01*
X89672200Y-75602800D02*
X64282800Y-75602800D01*
X92257800Y-75542800D02*
X90995000Y-74280000D01*
X117752000Y-75542800D02*
X106242800Y-75542800D01*
X117825000Y-117725000D02*
X99875000Y-117725000D01*
X119035000Y-74260000D02*
X117752000Y-75542800D01*
X64282800Y-75602800D02*
X63020000Y-74340000D01*
X92257800Y-78082800D02*
X90995000Y-76820000D01*
X119035000Y-76800000D02*
X117752000Y-78082800D01*
X99548400Y-118625000D02*
X99531200Y-118607800D01*
X107716000Y-118625000D02*
X99548400Y-118625000D01*
X90995000Y-76820000D02*
X89672200Y-78142800D01*
X117752000Y-78082800D02*
X92257800Y-78082800D01*
X89672200Y-78142800D02*
X64282800Y-78142800D01*
X116950000Y-118600000D02*
X107741000Y-118600000D01*
X107741000Y-118600000D02*
X107716000Y-118625000D01*
X64282800Y-78142800D02*
X63020000Y-76880000D01*
X92272200Y-80637200D02*
X90995000Y-79360000D01*
X135300000Y-112200000D02*
X135707200Y-111792800D01*
X89672200Y-80682800D02*
X64282800Y-80682800D01*
X64282800Y-80682800D02*
X63020000Y-79420000D01*
X133065600Y-98098400D02*
X132092200Y-98098400D01*
X119035000Y-79340000D02*
X117738000Y-80637200D01*
X135406500Y-100439300D02*
X133065600Y-98098400D01*
X90995000Y-79360000D02*
X89672200Y-80682800D01*
X135406500Y-105150000D02*
X135406500Y-100439300D01*
X135707200Y-105450700D02*
X135406500Y-105150000D01*
X135707200Y-111792800D02*
X135707200Y-105450700D01*
X117738000Y-80637200D02*
X92272200Y-80637200D01*
X90995000Y-86980000D02*
X89657800Y-88317200D01*
X92257800Y-88242800D02*
X90995000Y-86980000D01*
X89657800Y-88317200D02*
X64297200Y-88317200D01*
X117752000Y-88242800D02*
X92257800Y-88242800D01*
X119035000Y-86960000D02*
X117752000Y-88242800D01*
X64297200Y-88317200D02*
X63020000Y-87040000D01*
X117752000Y-90782800D02*
X92257800Y-90782800D01*
X119035000Y-89500000D02*
X117752000Y-90782800D01*
X136242300Y-114800000D02*
X136800000Y-114800000D01*
X89657800Y-90857200D02*
X64297200Y-90857200D01*
X92257800Y-90782800D02*
X90995000Y-89520000D01*
X133802300Y-112360000D02*
X136242300Y-114800000D01*
X133802300Y-107029000D02*
X133802300Y-112360000D01*
X90995000Y-89520000D02*
X89657800Y-90857200D01*
X64297200Y-90857200D02*
X63020000Y-89580000D01*
X119035000Y-92040000D02*
X117752000Y-93322800D01*
X92257800Y-93322800D02*
X90995000Y-92060000D01*
X117752000Y-93322800D02*
X92257800Y-93322800D01*
X64297200Y-93397200D02*
X63020000Y-92120000D01*
X89657800Y-93397200D02*
X64297200Y-93397200D01*
X90995000Y-92060000D02*
X89657800Y-93397200D01*
X92257800Y-100943000D02*
X90995000Y-99680000D01*
X119035000Y-99660000D02*
X117752000Y-100943000D01*
X117752000Y-100943000D02*
X92257800Y-100943000D01*
X90995000Y-99680000D02*
X89672200Y-101003000D01*
X89672200Y-101003000D02*
X64282800Y-101003000D01*
X64282800Y-101003000D02*
X63020000Y-99740000D01*
X81624000Y-105372700D02*
X81467900Y-105372700D01*
X81942300Y-105274000D02*
X87941200Y-105274000D01*
X66013800Y-105274000D02*
X81722700Y-105274000D01*
X92257800Y-103483000D02*
X117752000Y-103483000D01*
X117752000Y-103483000D02*
X119035000Y-102200000D01*
X81722700Y-105274000D02*
X81624000Y-105372700D01*
X81722700Y-105274000D02*
X81942300Y-105274000D01*
X90995000Y-102220000D02*
X92257800Y-103483000D01*
X63020000Y-102280000D02*
X66013800Y-105274000D01*
X87941200Y-105274000D02*
X90995000Y-102220000D01*
X131800000Y-125780000D02*
X131800000Y-122200000D01*
X87888100Y-112075000D02*
X87758100Y-111945000D01*
X98665000Y-121115000D02*
X97200000Y-119650000D01*
X89546081Y-112075000D02*
X87888100Y-112075000D01*
X97200000Y-119650000D02*
X97121081Y-119650000D01*
X128900000Y-119300000D02*
X97550000Y-119300000D01*
X98665000Y-124335000D02*
X98665000Y-121115000D01*
X97121081Y-119650000D02*
X89546081Y-112075000D01*
X97550000Y-119300000D02*
X97200000Y-119650000D01*
X131800000Y-122200000D02*
X128900000Y-119300000D01*
X129600000Y-121258364D02*
X128341636Y-120000000D01*
X105540000Y-120000000D02*
X101205000Y-124335000D01*
X98299800Y-126100000D02*
X97337800Y-125138000D01*
X101205000Y-124335000D02*
X99440000Y-126100000D01*
X128341636Y-120000000D02*
X105540000Y-120000000D01*
X97337800Y-125138000D02*
X97337800Y-120737800D01*
X99440000Y-126100000D02*
X98299800Y-126100000D01*
X97337800Y-120737800D02*
X89500000Y-112900000D01*
X89500000Y-112900000D02*
X87550000Y-112900000D01*
X87550000Y-112900000D02*
X86700000Y-112050000D01*
X129600000Y-126120000D02*
X129600000Y-121258364D01*
X131800000Y-128320000D02*
X129600000Y-126120000D01*
X94797800Y-124723000D02*
X94797800Y-119273000D01*
X107430000Y-120650000D02*
X103745000Y-124335000D01*
X101230000Y-126850000D02*
X96924800Y-126850000D01*
X94797800Y-119273000D02*
X89224800Y-113700000D01*
X127650000Y-120650000D02*
X107430000Y-120650000D01*
X96924800Y-126850000D02*
X94797800Y-124723000D01*
X128800000Y-127860000D02*
X128800000Y-121800000D01*
X131800000Y-130860000D02*
X128800000Y-127860000D01*
X103745000Y-124335000D02*
X101230000Y-126850000D01*
X87100000Y-113700000D02*
X86600000Y-113200000D01*
X128800000Y-121800000D02*
X127650000Y-120650000D01*
X89224800Y-113700000D02*
X87100000Y-113700000D01*
X92257800Y-117957800D02*
X88700000Y-114400000D01*
X88700000Y-114400000D02*
X86400000Y-114400000D01*
X128050000Y-123350000D02*
X125950000Y-121250000D01*
X92257800Y-124723000D02*
X92257800Y-117957800D01*
X125950000Y-121250000D02*
X109370000Y-121250000D01*
X102970000Y-127650000D02*
X95184800Y-127650000D01*
X106285000Y-124335000D02*
X102970000Y-127650000D01*
X95184800Y-127650000D02*
X92257800Y-124723000D01*
X109370000Y-121250000D02*
X106285000Y-124335000D01*
X128050000Y-129650000D02*
X128050000Y-123350000D01*
X131800000Y-133400000D02*
X128050000Y-129650000D01*
X90850000Y-121308250D02*
X90850000Y-117650000D01*
X125400000Y-121900000D02*
X111260000Y-121900000D01*
X104610000Y-128550000D02*
X93544500Y-128550000D01*
X88839000Y-115639000D02*
X86660600Y-115639000D01*
X89821500Y-124827000D02*
X89821500Y-122336750D01*
X93544500Y-128550000D02*
X89821500Y-124827000D01*
X111260000Y-121900000D02*
X108825000Y-124335000D01*
X127050000Y-131190000D02*
X127050000Y-123550000D01*
X90850000Y-117650000D02*
X88839000Y-115639000D01*
X131800000Y-135940000D02*
X127050000Y-131190000D01*
X127050000Y-123550000D02*
X125400000Y-121900000D01*
X89821500Y-122336750D02*
X90850000Y-121308250D01*
X108825000Y-124335000D02*
X104610000Y-128550000D01*
X126350000Y-133030000D02*
X126350000Y-123950000D01*
X89950000Y-117850000D02*
X88350000Y-116250000D01*
X124943000Y-122543000D02*
X113157000Y-122543000D01*
X87449600Y-116250000D02*
X87360600Y-116339000D01*
X91740200Y-129400000D02*
X87292200Y-124952000D01*
X88350000Y-116250000D02*
X87449600Y-116250000D01*
X106300000Y-129400000D02*
X91740200Y-129400000D01*
X113157000Y-122543000D02*
X111365000Y-124335000D01*
X87292200Y-122757800D02*
X89950000Y-120100000D01*
X111365000Y-124335000D02*
X106300000Y-129400000D01*
X126350000Y-123950000D02*
X124943000Y-122543000D01*
X131800000Y-138480000D02*
X126350000Y-133030000D01*
X89950000Y-120100000D02*
X89950000Y-117850000D01*
X87292200Y-124952000D02*
X87292200Y-122757800D01*
X113905000Y-124335000D02*
X107990000Y-130250000D01*
X84752200Y-124952000D02*
X84752200Y-123147800D01*
X89050000Y-117900300D02*
X88166700Y-117017000D01*
X89050000Y-118850000D02*
X89050000Y-117900300D01*
X107990000Y-130250000D02*
X90050200Y-130250000D01*
X90050200Y-130250000D02*
X84752200Y-124952000D01*
X88166700Y-117017000D02*
X87903500Y-117017000D01*
X125600000Y-124100000D02*
X124622000Y-123122000D01*
X84752200Y-123147800D02*
X89050000Y-118850000D01*
X124622000Y-123122000D02*
X115118000Y-123122000D01*
X131800000Y-141020000D02*
X125600000Y-134820000D01*
X115118000Y-123122000D02*
X113905000Y-124335000D01*
X125600000Y-134820000D02*
X125600000Y-124100000D01*
X87844900Y-118200000D02*
X88200000Y-118200000D01*
X130598000Y-143560000D02*
X131800000Y-143560000D01*
X82100000Y-124800000D02*
X82100000Y-123945000D01*
X82100000Y-123945000D02*
X87844900Y-118200000D01*
X109630000Y-131150000D02*
X88450000Y-131150000D01*
X116445000Y-124335000D02*
X109630000Y-131150000D01*
X88450000Y-131150000D02*
X82100000Y-124800000D01*
X116445000Y-124335000D02*
X116445000Y-129407000D01*
X116445000Y-129407000D02*
X130598000Y-143560000D01*
X90931500Y-142228000D02*
X93585000Y-139575000D01*
X87396500Y-142228000D02*
X90931500Y-142228000D01*
X85525000Y-144100000D02*
X87396500Y-142228000D01*
X91851000Y-142800000D02*
X92722500Y-141928000D01*
X88065000Y-144100000D02*
X89365000Y-142800000D01*
X89365000Y-142800000D02*
X91851000Y-142800000D01*
X92722500Y-141928000D02*
X93771500Y-141928000D01*
X93771500Y-141928000D02*
X96125000Y-139575000D01*
X96311500Y-141928000D02*
X98665000Y-139575000D01*
X94691000Y-142500000D02*
X95262500Y-141928000D01*
X90605000Y-144100000D02*
X91359200Y-144100000D01*
X92959200Y-142500000D02*
X94691000Y-142500000D01*
X95262500Y-141928000D02*
X96311500Y-141928000D01*
X91359200Y-144100000D02*
X92959200Y-142500000D01*
X97231000Y-142500000D02*
X97902500Y-141828000D01*
X93899200Y-144100000D02*
X95499200Y-142500000D01*
X93145000Y-144100000D02*
X93899200Y-144100000D01*
X97902500Y-141828000D02*
X98951500Y-141828000D01*
X95499200Y-142500000D02*
X97231000Y-142500000D01*
X98951500Y-141828000D02*
X101205000Y-139575000D01*
X101692000Y-141628000D02*
X103745000Y-139575000D01*
X99871000Y-142400000D02*
X100642000Y-141628000D01*
X95685000Y-144100000D02*
X96439200Y-144100000D01*
X96439200Y-144100000D02*
X98139200Y-142400000D01*
X98139200Y-142400000D02*
X99871000Y-142400000D01*
X100642000Y-141628000D02*
X101692000Y-141628000D01*
X98225000Y-144100000D02*
X98979200Y-144100000D01*
X100879000Y-142200000D02*
X103660000Y-142200000D01*
X98979200Y-144100000D02*
X100879000Y-142200000D01*
X103660000Y-142200000D02*
X106285000Y-139575000D01*
X105563000Y-142837000D02*
X108825000Y-139575000D01*
X102028000Y-142837000D02*
X105563000Y-142837000D01*
X100765000Y-144100000D02*
X102028000Y-142837000D01*
X103305000Y-144100000D02*
X106840000Y-144100000D01*
X106840000Y-144100000D02*
X111365000Y-139575000D01*
X109525000Y-143955000D02*
X113905000Y-139575000D01*
X109525000Y-144100000D02*
X109525000Y-143955000D01*
X112065000Y-144100000D02*
X116445000Y-139720000D01*
X116445000Y-139720000D02*
X116445000Y-139575000D01*
X118985000Y-139575000D02*
X114605000Y-143955000D01*
X114605000Y-143955000D02*
X114605000Y-144100000D01*
X121525000Y-139720000D02*
X121525000Y-139575000D01*
X117145000Y-144100000D02*
X121525000Y-139720000D01*
X124065000Y-139575000D02*
X119685000Y-143955000D01*
X119685000Y-143955000D02*
X119685000Y-144100000D01*
X124065000Y-124335000D02*
X124065000Y-135071000D01*
X124065000Y-135071000D02*
X131291000Y-142297000D01*
X133400000Y-142750000D02*
X133400000Y-144150000D01*
X131291000Y-142297000D02*
X132947000Y-142297000D01*
X132947000Y-142297000D02*
X133400000Y-142750000D01*
X133400000Y-144150000D02*
X132150000Y-145400000D01*
X123525000Y-145400000D02*
X122225000Y-144100000D01*
X132150000Y-145400000D02*
X123525000Y-145400000D01*
X53800000Y-111200000D02*
X57450000Y-107550000D01*
X57450000Y-107550000D02*
X66943800Y-107550000D01*
X53800000Y-118080000D02*
X53800000Y-111200000D01*
X66943800Y-107550000D02*
X71118800Y-111725000D01*
X56878500Y-117463000D02*
X56878500Y-109071500D01*
X53800000Y-120542000D02*
X56878500Y-117463000D01*
X57450000Y-108500000D02*
X66093800Y-108500000D01*
X53800000Y-120620000D02*
X53800000Y-120542000D01*
X66093800Y-108500000D02*
X70218800Y-112625000D01*
X56878500Y-109071500D02*
X57450000Y-108500000D01*
X57450000Y-109600000D02*
X57850000Y-109200000D01*
X57450000Y-119510000D02*
X57450000Y-109600000D01*
X57850000Y-109200000D02*
X62200000Y-109200000D01*
X62200000Y-109200000D02*
X66425000Y-113425000D01*
X66425000Y-113425000D02*
X69418800Y-113425000D01*
X53800000Y-123160000D02*
X57450000Y-119510000D01*
X63226500Y-119717000D02*
X68534300Y-114409000D01*
X55062800Y-123037000D02*
X58382800Y-119717000D01*
X53800000Y-125700000D02*
X55062800Y-124437000D01*
X55062800Y-124437000D02*
X55062800Y-123037000D01*
X68534300Y-114409000D02*
X68814400Y-114409000D01*
X58382800Y-119717000D02*
X63226500Y-119717000D01*
X55062800Y-126977000D02*
X55062800Y-125671000D01*
X62700000Y-120350000D02*
X64103400Y-120350000D01*
X60807200Y-122243000D02*
X62700000Y-120350000D01*
X53800000Y-128240000D02*
X55062800Y-126977000D01*
X58491500Y-122243000D02*
X60807200Y-122243000D01*
X55062800Y-125671000D02*
X58491500Y-122243000D01*
X64103400Y-120350000D02*
X68714400Y-115739000D01*
X61900000Y-124500000D02*
X69650000Y-116750000D01*
X59523069Y-124782800D02*
X59805869Y-124500000D01*
X53800000Y-130780000D02*
X57257200Y-127323000D01*
X57257200Y-126017000D02*
X58491400Y-124782800D01*
X58491400Y-124782800D02*
X59523069Y-124782800D01*
X59805869Y-124500000D02*
X61900000Y-124500000D01*
X57257200Y-127323000D02*
X57257200Y-126017000D01*
X59000000Y-126060000D02*
X60740000Y-126060000D01*
X100431000Y-111025000D02*
X100097000Y-110691000D01*
X60740000Y-126060000D02*
X61445401Y-125354599D01*
X61445401Y-125354599D02*
X64845401Y-125354599D01*
X78675000Y-111525000D02*
X82687500Y-111525000D01*
X83521500Y-110691000D02*
X82687500Y-111525000D01*
X64845401Y-125354599D02*
X78675000Y-111525000D01*
X100097000Y-110691000D02*
X83521500Y-110691000D01*
X133050000Y-104450000D02*
X124400000Y-104450000D01*
X124400000Y-104450000D02*
X117850000Y-111000000D01*
X135000000Y-111000000D02*
X135000000Y-106400000D01*
X135000000Y-106400000D02*
X133050000Y-104450000D01*
X137873700Y-110876600D02*
X137873700Y-105332300D01*
X140100000Y-113340000D02*
X140100000Y-113102900D01*
X140100000Y-113102900D02*
X137873700Y-110876600D01*
X140100000Y-126040000D02*
X140110000Y-126040000D01*
X144011000Y-122139000D02*
X144011000Y-111390700D01*
X140110000Y-126040000D02*
X144011000Y-122139000D01*
X78110000Y-142350000D02*
X80885000Y-139575000D01*
X67565000Y-144600000D02*
X69815000Y-142350000D01*
X69815000Y-142350000D02*
X78110000Y-142350000D01*
X83425000Y-139575000D02*
X79950000Y-143050000D01*
X71655000Y-143050000D02*
X70105000Y-144600000D01*
X79950000Y-143050000D02*
X71655000Y-143050000D01*
X67550200Y-146450000D02*
X70795000Y-146450000D01*
X66302200Y-145202000D02*
X67550200Y-146450000D01*
X66302200Y-143648000D02*
X66302200Y-145202000D01*
X78345000Y-139575000D02*
X78345000Y-140706000D01*
X77429900Y-141622000D02*
X68328500Y-141622000D01*
X70795000Y-146450000D02*
X72645000Y-144600000D01*
X68328500Y-141622000D02*
X66302200Y-143648000D01*
X78345000Y-140706000D02*
X77429900Y-141622000D01*
X66900000Y-140900000D02*
X77032500Y-140900000D01*
X63762200Y-146125000D02*
X63762200Y-144038000D01*
X75185000Y-144600000D02*
X72435000Y-147350000D01*
X77100000Y-140832000D02*
X77100000Y-125580000D01*
X63762200Y-144038000D02*
X66900000Y-140900000D01*
X77032500Y-140900000D02*
X77100000Y-140832000D01*
X77100000Y-125580000D02*
X78345000Y-124335000D01*
X64987200Y-147350000D02*
X63762200Y-146125000D01*
X72435000Y-147350000D02*
X64987200Y-147350000D01*
X79775000Y-146650000D02*
X80605000Y-146650000D01*
X80605000Y-146650000D02*
X87200000Y-140055000D01*
X77725000Y-144600000D02*
X79775000Y-146650000D01*
X87200000Y-140055000D02*
X87200000Y-132450000D01*
X87200000Y-132450000D02*
X87150000Y-132400000D01*
X84752200Y-140113000D02*
X84752200Y-132198000D01*
X84897800Y-132152000D02*
X84897800Y-132052000D01*
X84897800Y-132052000D02*
X84997800Y-132052000D01*
X84752200Y-132198000D02*
X84897800Y-132052000D01*
X80265000Y-144600000D02*
X84752200Y-140113000D01*
X84997800Y-132052000D02*
X84897800Y-132152000D01*
X84850000Y-132200000D02*
X84897800Y-132152000D01*
M02*
