G04 #@! TF.GenerationSoftware,KiCad,Pcbnew,7.0.11-7.0.11~ubuntu22.04.1*
G04 #@! TF.CreationDate,2024-09-18T23:24:04-04:00*
G04 #@! TF.ProjectId,tfr903d,74667239-3033-4642-9e6b-696361645f70,2024-09-18*
G04 #@! TF.SameCoordinates,Original*
G04 #@! TF.FileFunction,Copper,L3,Inr*
G04 #@! TF.FilePolarity,Positive*
%FSLAX46Y46*%
G04 Gerber Fmt 4.6, Leading zero omitted, Abs format (unit mm)*
G04 Created by KiCad (PCBNEW 7.0.11-7.0.11~ubuntu22.04.1) date 2024-09-18 23:24:04*
%MOMM*%
%LPD*%
G01*
G04 APERTURE LIST*
G04 #@! TA.AperFunction,ComponentPad*
%ADD10O,1.700000X1.700000*%
G04 #@! TD*
G04 #@! TA.AperFunction,ComponentPad*
%ADD11R,1.700000X1.700000*%
G04 #@! TD*
G04 #@! TA.AperFunction,ComponentPad*
%ADD12C,5.000000*%
G04 #@! TD*
G04 #@! TA.AperFunction,ComponentPad*
%ADD13R,1.600000X1.600000*%
G04 #@! TD*
G04 #@! TA.AperFunction,ComponentPad*
%ADD14O,1.600000X1.600000*%
G04 #@! TD*
G04 #@! TA.AperFunction,ViaPad*
%ADD15C,0.558800*%
G04 #@! TD*
G04 #@! TA.AperFunction,Conductor*
%ADD16C,0.317600*%
G04 #@! TD*
G04 APERTURE END LIST*
D10*
X90995000Y-53960000D03*
X90995000Y-56500000D03*
D11*
X90995000Y-59040000D03*
D10*
X90995000Y-61580000D03*
X90995000Y-64120000D03*
X90995000Y-66660000D03*
X90995000Y-69200000D03*
D11*
X90995000Y-71740000D03*
D10*
X90995000Y-74280000D03*
X90995000Y-76820000D03*
X90995000Y-79360000D03*
X90995000Y-81900000D03*
D11*
X90995000Y-84440000D03*
D10*
X90995000Y-86980000D03*
X90995000Y-89520000D03*
X90995000Y-92060000D03*
X90995000Y-94600000D03*
D11*
X90995000Y-97140000D03*
D10*
X90995000Y-99680000D03*
X90995000Y-102220000D03*
X108775000Y-102220000D03*
X108775000Y-99680000D03*
D11*
X108775000Y-97140000D03*
D10*
X108775000Y-94600000D03*
X108775000Y-92060000D03*
X108775000Y-89520000D03*
X108775000Y-86980000D03*
D11*
X108775000Y-84440000D03*
D10*
X108775000Y-81900000D03*
X108775000Y-79360000D03*
X108775000Y-76820000D03*
X108775000Y-74280000D03*
D11*
X108775000Y-71740000D03*
D10*
X108775000Y-69200000D03*
X108775000Y-66660000D03*
X108775000Y-64120000D03*
X108775000Y-61580000D03*
D11*
X108775000Y-59040000D03*
D10*
X108775000Y-56500000D03*
X108775000Y-53960000D03*
X100469100Y-83690000D03*
D11*
X103009100Y-83690000D03*
D10*
X105549100Y-83690000D03*
D11*
X53800000Y-118080000D03*
D10*
X53800000Y-120620000D03*
X53800000Y-123160000D03*
X53800000Y-125700000D03*
X53800000Y-128240000D03*
X53800000Y-130780000D03*
X53800000Y-133320000D03*
X53800000Y-135860000D03*
D11*
X140100000Y-110800000D03*
D10*
X140100000Y-113340000D03*
X140100000Y-115880000D03*
X140100000Y-118420000D03*
X140100000Y-120960000D03*
X140100000Y-123500000D03*
X140100000Y-126040000D03*
X140100000Y-128580000D03*
D11*
X62485000Y-144600000D03*
D10*
X65025000Y-144600000D03*
X67565000Y-144600000D03*
X70105000Y-144600000D03*
X72645000Y-144600000D03*
X75185000Y-144600000D03*
X77725000Y-144600000D03*
X80265000Y-144600000D03*
D12*
X55195900Y-145095900D03*
D11*
X146300000Y-63880000D03*
D10*
X146300000Y-66420000D03*
X146300000Y-68960000D03*
X146300000Y-71500000D03*
X146300000Y-74040000D03*
X146300000Y-76580000D03*
X146300000Y-79120000D03*
X146300000Y-81660000D03*
D12*
X144565000Y-55240000D03*
D11*
X53790000Y-65240000D03*
D10*
X53790000Y-67780000D03*
X53790000Y-70320000D03*
X53790000Y-72860000D03*
X53790000Y-75400000D03*
X53790000Y-77940000D03*
X53790000Y-80480000D03*
X53790000Y-83020000D03*
D11*
X146800000Y-111980000D03*
D10*
X146800000Y-114520000D03*
X146800000Y-117060000D03*
X146800000Y-119600000D03*
X146800000Y-122140000D03*
X146800000Y-124680000D03*
X146800000Y-127220000D03*
X146800000Y-129760000D03*
D11*
X131800000Y-125780000D03*
D10*
X131800000Y-128320000D03*
X131800000Y-130860000D03*
X131800000Y-133400000D03*
X131800000Y-135940000D03*
X131800000Y-138480000D03*
X131800000Y-141020000D03*
X131800000Y-143560000D03*
D11*
X139180000Y-133800000D03*
D10*
X141720000Y-133800000D03*
X144260000Y-133800000D03*
X146800000Y-133800000D03*
D13*
X75805000Y-139575000D03*
D14*
X78345000Y-139575000D03*
X80885000Y-139575000D03*
X83425000Y-139575000D03*
X85965000Y-139575000D03*
X88505000Y-139575000D03*
X91045000Y-139575000D03*
X93585000Y-139575000D03*
X96125000Y-139575000D03*
X98665000Y-139575000D03*
X101205000Y-139575000D03*
X103745000Y-139575000D03*
X106285000Y-139575000D03*
X108825000Y-139575000D03*
X111365000Y-139575000D03*
X113905000Y-139575000D03*
X116445000Y-139575000D03*
X118985000Y-139575000D03*
X121525000Y-139575000D03*
X124065000Y-139575000D03*
X124065000Y-124335000D03*
X121525000Y-124335000D03*
X118985000Y-124335000D03*
X116445000Y-124335000D03*
X113905000Y-124335000D03*
X111365000Y-124335000D03*
X108825000Y-124335000D03*
X106285000Y-124335000D03*
X103745000Y-124335000D03*
X101205000Y-124335000D03*
X98665000Y-124335000D03*
X96125000Y-124335000D03*
X93585000Y-124335000D03*
X91045000Y-124335000D03*
X88505000Y-124335000D03*
X85965000Y-124335000D03*
X83425000Y-124335000D03*
X80885000Y-124335000D03*
X78345000Y-124335000D03*
X75805000Y-124335000D03*
D10*
X119035000Y-53940000D03*
X119035000Y-56480000D03*
D11*
X119035000Y-59020000D03*
D10*
X119035000Y-61560000D03*
X119035000Y-64100000D03*
X119035000Y-66640000D03*
X119035000Y-69180000D03*
D11*
X119035000Y-71720000D03*
D10*
X119035000Y-74260000D03*
X119035000Y-76800000D03*
X119035000Y-79340000D03*
X119035000Y-81880000D03*
D11*
X119035000Y-84420000D03*
D10*
X119035000Y-86960000D03*
X119035000Y-89500000D03*
X119035000Y-92040000D03*
X119035000Y-94580000D03*
D11*
X119035000Y-97120000D03*
D10*
X119035000Y-99660000D03*
X119035000Y-102200000D03*
X136815000Y-102200000D03*
X136815000Y-99660000D03*
D11*
X136815000Y-97120000D03*
D10*
X136815000Y-94580000D03*
X136815000Y-92040000D03*
X136815000Y-89500000D03*
X136815000Y-86960000D03*
D11*
X136815000Y-84420000D03*
D10*
X136815000Y-81880000D03*
X136815000Y-79340000D03*
X136815000Y-76800000D03*
X136815000Y-74260000D03*
D11*
X136815000Y-71720000D03*
D10*
X136815000Y-69180000D03*
X136815000Y-66640000D03*
X136815000Y-64100000D03*
X136815000Y-61560000D03*
D11*
X136815000Y-59020000D03*
D10*
X136815000Y-56480000D03*
X136815000Y-53940000D03*
X128509100Y-83670000D03*
D11*
X131049100Y-83670000D03*
D10*
X133589100Y-83670000D03*
D11*
X109525000Y-144100000D03*
D10*
X112065000Y-144100000D03*
X114605000Y-144100000D03*
X117145000Y-144100000D03*
X119685000Y-144100000D03*
X122225000Y-144100000D03*
X124765000Y-144100000D03*
X127305000Y-144100000D03*
D11*
X53790000Y-89710000D03*
D10*
X53790000Y-92250000D03*
X53790000Y-94790000D03*
X53790000Y-97330000D03*
X53790000Y-99870000D03*
X53790000Y-102410000D03*
X53790000Y-104950000D03*
X53790000Y-107490000D03*
D11*
X85525000Y-144100000D03*
D10*
X88065000Y-144100000D03*
X90605000Y-144100000D03*
X93145000Y-144100000D03*
X95685000Y-144100000D03*
X98225000Y-144100000D03*
X100765000Y-144100000D03*
X103305000Y-144100000D03*
D12*
X55505900Y-55234100D03*
X144735000Y-144760000D03*
D11*
X59000000Y-110820000D03*
D10*
X59000000Y-113360000D03*
X59000000Y-115900000D03*
X59000000Y-118440000D03*
X59000000Y-120980000D03*
X59000000Y-123520000D03*
X59000000Y-126060000D03*
X59000000Y-128600000D03*
X63020000Y-54020000D03*
X63020000Y-56560000D03*
D11*
X63020000Y-59100000D03*
D10*
X63020000Y-61640000D03*
X63020000Y-64180000D03*
X63020000Y-66720000D03*
X63020000Y-69260000D03*
D11*
X63020000Y-71800000D03*
D10*
X63020000Y-74340000D03*
X63020000Y-76880000D03*
X63020000Y-79420000D03*
X63020000Y-81960000D03*
D11*
X63020000Y-84500000D03*
D10*
X63020000Y-87040000D03*
X63020000Y-89580000D03*
X63020000Y-92120000D03*
X63020000Y-94660000D03*
D11*
X63020000Y-97200000D03*
D10*
X63020000Y-99740000D03*
X63020000Y-102280000D03*
X80800000Y-102280000D03*
X80800000Y-99740000D03*
D11*
X80800000Y-97200000D03*
D10*
X80800000Y-94660000D03*
X80800000Y-92120000D03*
X80800000Y-89580000D03*
X80800000Y-87040000D03*
D11*
X80800000Y-84500000D03*
D10*
X80800000Y-81960000D03*
X80800000Y-79420000D03*
X80800000Y-76880000D03*
X80800000Y-74340000D03*
D11*
X80800000Y-71800000D03*
D10*
X80800000Y-69260000D03*
X80800000Y-66720000D03*
X80800000Y-64180000D03*
X80800000Y-61640000D03*
D11*
X80800000Y-59100000D03*
D10*
X80800000Y-56560000D03*
X80800000Y-54020000D03*
X72494100Y-83750000D03*
D11*
X75034100Y-83750000D03*
D10*
X77574100Y-83750000D03*
D11*
X146400000Y-87720000D03*
D10*
X146400000Y-90260000D03*
X146400000Y-92800000D03*
X146400000Y-95340000D03*
X146400000Y-97880000D03*
X146400000Y-100420000D03*
X146400000Y-102960000D03*
X146400000Y-105500000D03*
D15*
X74150000Y-107500000D03*
X72100000Y-129400000D03*
X125650000Y-108800000D03*
X109300000Y-106700000D03*
X111650000Y-109302500D03*
X91250000Y-106650000D03*
X126850000Y-105850000D03*
X91700000Y-109500000D03*
X115151600Y-96185700D03*
X134320800Y-130182500D03*
X127225400Y-75530000D03*
X141294100Y-108807100D03*
X118156000Y-112194000D03*
X100471000Y-111967000D03*
X105350000Y-55650000D03*
X100540000Y-112782000D03*
X118650000Y-112900000D03*
X119150000Y-113800000D03*
X83358600Y-106661900D03*
X100918000Y-113505000D03*
X95050000Y-116450000D03*
X119650000Y-114800000D03*
X101415000Y-114148000D03*
X87214600Y-76746600D03*
X104109400Y-67922800D03*
X101066000Y-115682000D03*
X119450000Y-116000000D03*
X118650000Y-116900000D03*
X100693000Y-116707800D03*
X99550000Y-117400000D03*
X117850000Y-117700000D03*
X106242800Y-75542800D03*
X99531200Y-118607800D03*
X116950000Y-118600000D03*
X135300000Y-112200000D03*
X82987500Y-112725000D03*
X132092200Y-98098400D03*
X135800000Y-112900000D03*
X83487500Y-113425000D03*
X83987500Y-114325000D03*
X136300000Y-113800000D03*
X136800000Y-114800000D03*
X133802300Y-107029000D03*
X84487500Y-115325000D03*
X136600000Y-116000000D03*
X84287500Y-116525000D03*
X135800000Y-116900000D03*
X83487500Y-117425000D03*
X82687500Y-118225000D03*
X135000000Y-117700000D03*
X81787500Y-119125000D03*
X134100000Y-118600000D03*
X81467900Y-105372700D03*
X87758100Y-111945000D03*
X86700000Y-112050000D03*
X86600000Y-113200000D03*
X86400000Y-114400000D03*
X86660600Y-115639000D03*
X87360600Y-116339000D03*
X87903500Y-117017000D03*
X88200000Y-118200000D03*
X106462000Y-111225000D03*
X122612000Y-111475000D03*
X121812000Y-112275000D03*
X121161400Y-113098499D03*
X121298689Y-114350311D03*
X121312000Y-115375000D03*
X121812000Y-116275000D03*
X122312000Y-116975000D03*
X122612000Y-118175000D03*
X71118800Y-111725000D03*
X70218800Y-112625000D03*
X69418800Y-113425000D03*
X68814400Y-114409000D03*
X68714400Y-115739000D03*
X69650000Y-116750000D03*
X83494900Y-109252600D03*
X88345200Y-111383000D03*
X82687500Y-111525000D03*
X100431000Y-111025000D03*
X135000000Y-111000000D03*
X117850000Y-111000000D03*
X110100000Y-132150000D03*
X143200000Y-71000000D03*
X137873700Y-105332300D03*
X130600000Y-119300000D03*
X147765900Y-84669900D03*
X64050000Y-113250000D03*
X144011000Y-111390700D03*
X64100000Y-109250000D03*
X147633700Y-77844700D03*
X62039460Y-118789460D03*
X61850000Y-122250000D03*
X61869090Y-126046630D03*
X61800000Y-129400000D03*
X87150000Y-132400000D03*
X61907800Y-111542386D03*
X84897800Y-132052000D03*
X61900000Y-115150000D03*
D16*
X121287200Y-62837200D02*
X121287200Y-52012800D01*
X143300000Y-136750000D02*
X141720000Y-135170000D01*
X118511931Y-62837200D02*
X121287200Y-62837200D01*
X148450000Y-51650000D02*
X149335100Y-52535100D01*
X121650000Y-51650000D02*
X148450000Y-51650000D01*
X80800000Y-64180000D02*
X82122800Y-62857200D01*
X118491931Y-62857200D02*
X118511931Y-62837200D01*
X121287200Y-52012800D02*
X121650000Y-51650000D01*
X141720000Y-135170000D02*
X141720000Y-133800000D01*
X82122800Y-62857200D02*
X118491931Y-62857200D01*
X149300000Y-136750000D02*
X143300000Y-136750000D01*
X149335100Y-136714900D02*
X149300000Y-136750000D01*
X149335100Y-52535100D02*
X149335100Y-136714900D01*
X115151600Y-96185700D02*
X115151600Y-98401600D01*
X138835300Y-118420000D02*
X140100000Y-118420000D01*
X133310600Y-108296600D02*
X137686500Y-112672500D01*
X115151600Y-98401600D02*
X117685300Y-100935300D01*
X117685300Y-100935300D02*
X125915900Y-100935300D01*
X125915900Y-100935300D02*
X133277200Y-108296600D01*
X133277200Y-108296600D02*
X133310600Y-108296600D01*
X137686500Y-117271200D02*
X138835300Y-118420000D01*
X137686500Y-112672500D02*
X137686500Y-117271200D01*
X117073800Y-74280000D02*
X118323800Y-75530000D01*
X108775000Y-74280000D02*
X117073800Y-74280000D01*
X145535300Y-114520000D02*
X142720200Y-111704900D01*
X118323800Y-75530000D02*
X127225400Y-75530000D01*
X142720200Y-110233200D02*
X141294100Y-108807100D01*
X146800000Y-114520000D02*
X145535300Y-114520000D01*
X142720200Y-111704900D02*
X142720200Y-110233200D01*
X65540000Y-51500000D02*
X88535000Y-51500000D01*
X92655000Y-52300000D02*
X90995000Y-53960000D01*
X117395000Y-52300000D02*
X92655000Y-52300000D01*
X119035000Y-53940000D02*
X117395000Y-52300000D01*
X88535000Y-51500000D02*
X90995000Y-53960000D01*
X63020000Y-54020000D02*
X65540000Y-51500000D01*
X83358600Y-106661900D02*
X85414500Y-106661900D01*
X95050000Y-116297400D02*
X95050000Y-116450000D01*
X85414500Y-106661900D02*
X95050000Y-116297400D01*
X90995000Y-64120000D02*
X87117800Y-67997200D01*
X77774131Y-70500000D02*
X69340000Y-70500000D01*
X80276931Y-67997200D02*
X77774131Y-70500000D01*
X69340000Y-70500000D02*
X63020000Y-64180000D01*
X87117800Y-67997200D02*
X80276931Y-67997200D01*
X85811200Y-78150000D02*
X57804700Y-78150000D01*
X87214600Y-76746600D02*
X85811200Y-78150000D01*
X53790000Y-75400000D02*
X55054700Y-75400000D01*
X57804700Y-78150000D02*
X55054700Y-75400000D01*
X90995000Y-69200000D02*
X89730300Y-69200000D01*
X104630200Y-69200000D02*
X90995000Y-69200000D01*
X63020000Y-69260000D02*
X64284700Y-69260000D01*
X70634700Y-75610000D02*
X64284700Y-69260000D01*
X117770300Y-69180000D02*
X116520300Y-67930000D01*
X89730300Y-69200000D02*
X83320300Y-75610000D01*
X105900200Y-67930000D02*
X104630200Y-69200000D01*
X119035000Y-69180000D02*
X117770300Y-69180000D01*
X116520300Y-67930000D02*
X105900200Y-67930000D01*
X83320300Y-75610000D02*
X70634700Y-75610000D01*
X132092200Y-92397200D02*
X132092200Y-98098400D01*
X119035000Y-79340000D02*
X132092200Y-92397200D01*
X107503400Y-75551500D02*
X112706500Y-75551500D01*
X90415900Y-81900000D02*
X98265900Y-74050000D01*
X65554600Y-80690100D02*
X88520400Y-80690100D01*
X90995000Y-81900000D02*
X90415900Y-81900000D01*
X98265900Y-74050000D02*
X106001900Y-74050000D01*
X112706500Y-75551500D02*
X119035000Y-81880000D01*
X106001900Y-74050000D02*
X107503400Y-75551500D01*
X90415900Y-81900000D02*
X89730300Y-81900000D01*
X64284700Y-81960000D02*
X65554600Y-80690100D01*
X88520400Y-80690100D02*
X89730300Y-81900000D01*
X63020000Y-81960000D02*
X64284700Y-81960000D01*
X90995000Y-94600000D02*
X90415900Y-94600000D01*
X92650000Y-94600000D02*
X99000000Y-88250000D01*
X99000000Y-88250000D02*
X110038200Y-88250000D01*
X90415900Y-94600000D02*
X89730300Y-94600000D01*
X65554600Y-93390100D02*
X88520400Y-93390100D01*
X110038200Y-88250000D02*
X116368200Y-94580000D01*
X88520400Y-93390100D02*
X89730300Y-94600000D01*
X90415900Y-94600000D02*
X92650000Y-94600000D01*
X116368200Y-94580000D02*
X119035000Y-94580000D01*
X64284700Y-94660000D02*
X65554600Y-93390100D01*
X63020000Y-94660000D02*
X64284700Y-94660000D01*
X96125000Y-124335000D02*
X91790000Y-120000000D01*
X79393800Y-120000000D02*
X71118800Y-111725000D01*
X91790000Y-120000000D02*
X79393800Y-120000000D01*
X76630000Y-127330000D02*
X55430000Y-127330000D01*
X55430000Y-127330000D02*
X53800000Y-125700000D01*
X88505000Y-139205000D02*
X76630000Y-127330000D01*
X88505000Y-139575000D02*
X88505000Y-139205000D01*
X58630400Y-131930400D02*
X54940000Y-128240000D01*
X78320400Y-131930400D02*
X58630400Y-131930400D01*
X54940000Y-128240000D02*
X53800000Y-128240000D01*
X85965000Y-139575000D02*
X78320400Y-131930400D01*
X93585000Y-124335000D02*
X90100000Y-120850000D01*
X73750000Y-120850000D02*
X69650000Y-116750000D01*
X90100000Y-120850000D02*
X73750000Y-120850000D01*
X63550000Y-114050000D02*
X66100000Y-114050000D01*
X66100000Y-114050000D02*
X69317600Y-110832400D01*
X60950000Y-121570000D02*
X60950000Y-111000000D01*
X62728500Y-113228500D02*
X63550000Y-114050000D01*
X59000000Y-123520000D02*
X60950000Y-121570000D01*
X81915100Y-110832400D02*
X83494900Y-109252600D01*
X62100000Y-109850000D02*
X62728500Y-110478500D01*
X88345200Y-111383000D02*
X86214800Y-109252600D01*
X62728500Y-110478500D02*
X62728500Y-113228500D01*
X69317600Y-110832400D02*
X81915100Y-110832400D01*
X86214800Y-109252600D02*
X83494900Y-109252600D01*
X60950000Y-111000000D02*
X62100000Y-109850000D01*
X112046900Y-105196900D02*
X91546900Y-105196900D01*
X81010000Y-94660000D02*
X80800000Y-94660000D01*
X91546900Y-105196900D02*
X81010000Y-94660000D01*
X117850000Y-111000000D02*
X112046900Y-105196900D01*
X148076800Y-110886600D02*
X148076800Y-115783200D01*
X134360481Y-100930000D02*
X138120200Y-100930000D01*
X131121081Y-98790600D02*
X132221081Y-98790600D01*
X118462200Y-88230000D02*
X120560481Y-88230000D01*
X120560481Y-88230000D02*
X131121081Y-98790600D01*
X112600000Y-80645000D02*
X112600000Y-82367800D01*
X108775000Y-76820000D02*
X112600000Y-80645000D01*
X112600000Y-82367800D02*
X118462200Y-88230000D01*
X148076800Y-115783200D02*
X146800000Y-117060000D01*
X138120200Y-100930000D02*
X148076800Y-110886600D01*
X132221081Y-98790600D02*
X134360481Y-100930000D01*
X108775000Y-81900000D02*
X111150000Y-81900000D01*
X118385600Y-90770000D02*
X122275400Y-90770000D01*
X141944400Y-110307900D02*
X141944400Y-114033100D01*
X111150000Y-81900000D02*
X111150000Y-83534400D01*
X111150000Y-83534400D02*
X118385600Y-90770000D01*
X141006600Y-109501200D02*
X141137700Y-109501200D01*
X141944400Y-114033100D02*
X146246600Y-118335300D01*
X146800000Y-118335300D02*
X146800000Y-119600000D01*
X141137700Y-109501200D02*
X141944400Y-110307900D01*
X146246600Y-118335300D02*
X146800000Y-118335300D01*
X122275400Y-90770000D02*
X141006600Y-109501200D01*
X133514800Y-107723100D02*
X133642200Y-107723100D01*
X133642200Y-107723100D02*
X138374200Y-112455100D01*
X119609900Y-93308500D02*
X133108200Y-106806800D01*
X133108200Y-107316500D02*
X133514800Y-107723100D01*
X138374200Y-112455100D02*
X138374200Y-115992900D01*
X133108200Y-106806800D02*
X133108200Y-107316500D01*
X145535300Y-122009000D02*
X145535300Y-122140000D01*
X138374200Y-115992900D02*
X139531300Y-117150000D01*
X116368200Y-93308500D02*
X119609900Y-93308500D01*
X146800000Y-122140000D02*
X145535300Y-122140000D01*
X139531300Y-117150000D02*
X140676300Y-117150000D01*
X108775000Y-86980000D02*
X110039700Y-86980000D01*
X140676300Y-117150000D02*
X145535300Y-122009000D01*
X110039700Y-86980000D02*
X116368200Y-93308500D01*
X146710000Y-124770000D02*
X137270000Y-124770000D01*
X137270000Y-124770000D02*
X113448300Y-100948300D01*
X113448300Y-100948300D02*
X107548300Y-100948300D01*
X104900000Y-98300000D02*
X104900000Y-93395000D01*
X146800000Y-124680000D02*
X146710000Y-124770000D01*
X107548300Y-100948300D02*
X104900000Y-98300000D01*
X104900000Y-93395000D02*
X108775000Y-89520000D01*
X147387900Y-123410000D02*
X143743000Y-123410000D01*
X143743000Y-123410000D02*
X142563000Y-122230000D01*
X148076800Y-125943200D02*
X148076800Y-124098900D01*
X146800000Y-127220000D02*
X148076800Y-125943200D01*
X113950000Y-97235000D02*
X108775000Y-92060000D01*
X113950000Y-99496000D02*
X113950000Y-97235000D01*
X148076800Y-124098900D02*
X147387900Y-123410000D01*
X136684000Y-122230000D02*
X113950000Y-99496000D01*
X142563000Y-122230000D02*
X136684000Y-122230000D01*
X110127200Y-132122800D02*
X110100000Y-132150000D01*
X146800000Y-129760000D02*
X144437200Y-132122800D01*
X144437200Y-132122800D02*
X110127200Y-132122800D01*
X140100000Y-123500000D02*
X137050000Y-123500000D01*
X113230000Y-99680000D02*
X108775000Y-99680000D01*
X137050000Y-123500000D02*
X113230000Y-99680000D01*
X80800000Y-99740000D02*
X91363700Y-110303700D01*
X91363700Y-110303700D02*
X107153700Y-110303700D01*
X72570000Y-99740000D02*
X80800000Y-99740000D01*
X63405400Y-112605400D02*
X63405400Y-108904600D01*
X63405400Y-108904600D02*
X72570000Y-99740000D01*
X116150000Y-119300000D02*
X130600000Y-119300000D01*
X64050000Y-113250000D02*
X63405400Y-112605400D01*
X148700000Y-76440000D02*
X148700000Y-83735800D01*
X146300000Y-74040000D02*
X148700000Y-76440000D01*
X148700000Y-83735800D02*
X147765900Y-84669900D01*
X107153700Y-110303700D02*
X116150000Y-119300000D01*
X69400000Y-109250000D02*
X64100000Y-109250000D01*
X82064700Y-102280000D02*
X99975300Y-120190600D01*
X99975300Y-120190600D02*
X131622800Y-120190600D01*
X76370000Y-102280000D02*
X69400000Y-109250000D01*
X80800000Y-102280000D02*
X82064700Y-102280000D01*
X131622800Y-120190600D02*
X137472200Y-126040000D01*
X80800000Y-102280000D02*
X76370000Y-102280000D01*
X137472200Y-126040000D02*
X140100000Y-126040000D01*
X136815000Y-69180000D02*
X140250000Y-72615000D01*
X140250000Y-74050000D02*
X144044700Y-77844700D01*
X144044700Y-77844700D02*
X147633700Y-77844700D01*
X140250000Y-72615000D02*
X140250000Y-74050000D01*
X133747450Y-77327550D02*
X136815000Y-74260000D01*
X133747450Y-79647450D02*
X133747450Y-77327550D01*
X144150000Y-87354500D02*
X137405500Y-80610000D01*
X134710000Y-80610000D02*
X133747450Y-79647450D01*
X146400000Y-90260000D02*
X144150000Y-88010000D01*
X137405500Y-80610000D02*
X134710000Y-80610000D01*
X144150000Y-88010000D02*
X144150000Y-87354500D01*
X62800000Y-123700000D02*
X66041636Y-123700000D01*
X62039460Y-118789460D02*
X62378400Y-119128400D01*
X62800000Y-121800000D02*
X62800000Y-123700000D01*
X82210300Y-125549700D02*
X83425000Y-124335000D01*
X67891336Y-125549700D02*
X82210300Y-125549700D01*
X62378401Y-121378401D02*
X62800000Y-121800000D01*
X66041636Y-123700000D02*
X67891336Y-125549700D01*
X62378400Y-119128400D02*
X62378401Y-121378401D01*
X88260000Y-121550000D02*
X91045000Y-124335000D01*
X61907800Y-113607800D02*
X62850000Y-114550000D01*
X69850000Y-119850000D02*
X69850000Y-121550000D01*
X66900000Y-116900000D02*
X69850000Y-119850000D01*
X69850000Y-121550000D02*
X88260000Y-121550000D01*
X62850000Y-114550000D02*
X62850000Y-116900000D01*
X62850000Y-116900000D02*
X66900000Y-116900000D01*
X61907800Y-111542386D02*
X61907800Y-113607800D01*
X61900000Y-117550000D02*
X62950000Y-118600000D01*
X62950000Y-118600000D02*
X62950000Y-119800000D01*
X62950000Y-119800000D02*
X63700000Y-120550000D01*
X86670000Y-122500000D02*
X88505000Y-124335000D01*
X67300000Y-120550000D02*
X69250000Y-122500000D01*
X63700000Y-120550000D02*
X67300000Y-120550000D01*
X69250000Y-122500000D02*
X86670000Y-122500000D01*
X61900000Y-115150000D02*
X61900000Y-117550000D01*
X138079700Y-76800000D02*
X136815000Y-76800000D01*
X148250000Y-90950000D02*
X148250000Y-86970300D01*
X148250000Y-86970300D02*
X138079700Y-76800000D01*
X146400000Y-92800000D02*
X148250000Y-90950000D01*
X140600000Y-89540000D02*
X140600000Y-85665000D01*
X146400000Y-95340000D02*
X140600000Y-89540000D01*
X140600000Y-85665000D02*
X136815000Y-81880000D01*
X146400000Y-97170900D02*
X146400000Y-97880000D01*
X136815000Y-87585900D02*
X146400000Y-97170900D01*
X136815000Y-86960000D02*
X136815000Y-87585900D01*
X136815000Y-90123700D02*
X136815000Y-89500000D01*
X146400000Y-100420000D02*
X146400000Y-99708700D01*
X146400000Y-99708700D02*
X136815000Y-90123700D01*
X146310000Y-103050000D02*
X146400000Y-102960000D01*
X143950000Y-99175000D02*
X143950000Y-103050000D01*
X136815000Y-92040000D02*
X143950000Y-99175000D01*
X143950000Y-103050000D02*
X146310000Y-103050000D01*
X146400000Y-105500000D02*
X144700000Y-105500000D01*
X143000000Y-100765000D02*
X136815000Y-94580000D01*
X144700000Y-105500000D02*
X143000000Y-103800000D01*
X143000000Y-103800000D02*
X143000000Y-100765000D01*
M02*
