G04 #@! TF.GenerationSoftware,KiCad,Pcbnew,7.0.11-7.0.11~ubuntu22.04.1*
G04 #@! TF.CreationDate,2024-09-18T23:24:04-04:00*
G04 #@! TF.ProjectId,tfr903d,74667239-3033-4642-9e6b-696361645f70,2024-09-18*
G04 #@! TF.SameCoordinates,Original*
G04 #@! TF.FileFunction,Copper,L1,Top*
G04 #@! TF.FilePolarity,Positive*
%FSLAX46Y46*%
G04 Gerber Fmt 4.6, Leading zero omitted, Abs format (unit mm)*
G04 Created by KiCad (PCBNEW 7.0.11-7.0.11~ubuntu22.04.1) date 2024-09-18 23:24:04*
%MOMM*%
%LPD*%
G01*
G04 APERTURE LIST*
G04 Aperture macros list*
%AMRoundRect*
0 Rectangle with rounded corners*
0 $1 Rounding radius*
0 $2 $3 $4 $5 $6 $7 $8 $9 X,Y pos of 4 corners*
0 Add a 4 corners polygon primitive as box body*
4,1,4,$2,$3,$4,$5,$6,$7,$8,$9,$2,$3,0*
0 Add four circle primitives for the rounded corners*
1,1,$1+$1,$2,$3*
1,1,$1+$1,$4,$5*
1,1,$1+$1,$6,$7*
1,1,$1+$1,$8,$9*
0 Add four rect primitives between the rounded corners*
20,1,$1+$1,$2,$3,$4,$5,0*
20,1,$1+$1,$4,$5,$6,$7,0*
20,1,$1+$1,$6,$7,$8,$9,0*
20,1,$1+$1,$8,$9,$2,$3,0*%
G04 Aperture macros list end*
G04 #@! TA.AperFunction,SMDPad,CuDef*
%ADD10RoundRect,0.140000X0.170000X-0.140000X0.170000X0.140000X-0.170000X0.140000X-0.170000X-0.140000X0*%
G04 #@! TD*
G04 #@! TA.AperFunction,SMDPad,CuDef*
%ADD11RoundRect,0.140000X-0.140000X-0.170000X0.140000X-0.170000X0.140000X0.170000X-0.140000X0.170000X0*%
G04 #@! TD*
G04 #@! TA.AperFunction,SMDPad,CuDef*
%ADD12R,1.000000X1.500000*%
G04 #@! TD*
G04 #@! TA.AperFunction,SMDPad,CuDef*
%ADD13R,0.900000X0.400000*%
G04 #@! TD*
G04 #@! TA.AperFunction,ComponentPad*
%ADD14O,1.700000X1.700000*%
G04 #@! TD*
G04 #@! TA.AperFunction,SMDPad,CuDef*
%ADD15R,3.500000X1.700000*%
G04 #@! TD*
G04 #@! TA.AperFunction,ComponentPad*
%ADD16R,1.700000X1.700000*%
G04 #@! TD*
G04 #@! TA.AperFunction,SMDPad,CuDef*
%ADD17RoundRect,0.100000X-0.637500X-0.100000X0.637500X-0.100000X0.637500X0.100000X-0.637500X0.100000X0*%
G04 #@! TD*
G04 #@! TA.AperFunction,ComponentPad*
%ADD18C,5.000000*%
G04 #@! TD*
G04 #@! TA.AperFunction,ComponentPad*
%ADD19R,1.600000X1.600000*%
G04 #@! TD*
G04 #@! TA.AperFunction,ComponentPad*
%ADD20O,1.600000X1.600000*%
G04 #@! TD*
G04 #@! TA.AperFunction,SMDPad,CuDef*
%ADD21RoundRect,0.140000X-0.170000X0.140000X-0.170000X-0.140000X0.170000X-0.140000X0.170000X0.140000X0*%
G04 #@! TD*
G04 #@! TA.AperFunction,SMDPad,CuDef*
%ADD22RoundRect,0.140000X0.140000X0.170000X-0.140000X0.170000X-0.140000X-0.170000X0.140000X-0.170000X0*%
G04 #@! TD*
G04 #@! TA.AperFunction,ViaPad*
%ADD23C,0.558800*%
G04 #@! TD*
G04 #@! TA.AperFunction,Conductor*
%ADD24C,0.635000*%
G04 #@! TD*
G04 #@! TA.AperFunction,Conductor*
%ADD25C,0.317600*%
G04 #@! TD*
G04 APERTURE END LIST*
G04 #@! TA.AperFunction,EtchedComponent*
G36*
X64900000Y-122500000D02*
G01*
X64400000Y-122500000D01*
X64400000Y-121900000D01*
X64900000Y-121900000D01*
X64900000Y-122500000D01*
G37*
G04 #@! TD.AperFunction*
G04 #@! TA.AperFunction,EtchedComponent*
G36*
X64900000Y-111850000D02*
G01*
X64400000Y-111850000D01*
X64400000Y-111250000D01*
X64900000Y-111250000D01*
X64900000Y-111850000D01*
G37*
G04 #@! TD.AperFunction*
G04 #@! TA.AperFunction,EtchedComponent*
G36*
X64900000Y-115400000D02*
G01*
X64400000Y-115400000D01*
X64400000Y-114800000D01*
X64900000Y-114800000D01*
X64900000Y-115400000D01*
G37*
G04 #@! TD.AperFunction*
G04 #@! TA.AperFunction,EtchedComponent*
G36*
X64900000Y-129600000D02*
G01*
X64400000Y-129600000D01*
X64400000Y-129000000D01*
X64900000Y-129000000D01*
X64900000Y-129600000D01*
G37*
G04 #@! TD.AperFunction*
G04 #@! TA.AperFunction,EtchedComponent*
G36*
X64900000Y-118950000D02*
G01*
X64400000Y-118950000D01*
X64400000Y-118350000D01*
X64900000Y-118350000D01*
X64900000Y-118950000D01*
G37*
G04 #@! TD.AperFunction*
G04 #@! TA.AperFunction,EtchedComponent*
G36*
X64900000Y-126050000D02*
G01*
X64400000Y-126050000D01*
X64400000Y-125450000D01*
X64900000Y-125450000D01*
X64900000Y-126050000D01*
G37*
G04 #@! TD.AperFunction*
D10*
X114400000Y-62400000D03*
X114400000Y-61440000D03*
D11*
X102220000Y-107000000D03*
X103180000Y-107000000D03*
D12*
X64000000Y-122200000D03*
X65300000Y-122200000D03*
D13*
X65450000Y-134600000D03*
X65450000Y-135400000D03*
X65450000Y-136200000D03*
X65450000Y-137000000D03*
X67150000Y-137000000D03*
X67150000Y-136200000D03*
X67150000Y-135400000D03*
X67150000Y-134600000D03*
D11*
X69240000Y-129400000D03*
X70200000Y-129400000D03*
D14*
X90995000Y-53960000D03*
D15*
X90095000Y-53960000D03*
D14*
X90995000Y-56500000D03*
D15*
X90095000Y-56500000D03*
D16*
X90995000Y-59040000D03*
D15*
X90095000Y-59040000D03*
D14*
X90995000Y-61580000D03*
D15*
X90095000Y-61580000D03*
D14*
X90995000Y-64120000D03*
D15*
X90095000Y-64120000D03*
D14*
X90995000Y-66660000D03*
D15*
X90095000Y-66660000D03*
D14*
X90995000Y-69200000D03*
D15*
X90095000Y-69200000D03*
D16*
X90995000Y-71740000D03*
D15*
X90095000Y-71740000D03*
D14*
X90995000Y-74280000D03*
D15*
X90095000Y-74280000D03*
D14*
X90995000Y-76820000D03*
D15*
X90095000Y-76820000D03*
D14*
X90995000Y-79360000D03*
D15*
X90095000Y-79360000D03*
D14*
X90995000Y-81900000D03*
D15*
X90095000Y-81900000D03*
D16*
X90995000Y-84440000D03*
D15*
X90095000Y-84440000D03*
D14*
X90995000Y-86980000D03*
D15*
X90095000Y-86980000D03*
D14*
X90995000Y-89520000D03*
D15*
X90095000Y-89520000D03*
D14*
X90995000Y-92060000D03*
D15*
X90095000Y-92060000D03*
D14*
X90995000Y-94600000D03*
D15*
X90095000Y-94600000D03*
D16*
X90995000Y-97140000D03*
D15*
X90095000Y-97140000D03*
D14*
X90995000Y-99680000D03*
D15*
X90095000Y-99680000D03*
D14*
X90995000Y-102220000D03*
D15*
X90095000Y-102220000D03*
D14*
X108775000Y-102220000D03*
D15*
X109675000Y-102220000D03*
D14*
X108775000Y-99680000D03*
D15*
X109675000Y-99680000D03*
D16*
X108775000Y-97140000D03*
D15*
X109675000Y-97140000D03*
D14*
X108775000Y-94600000D03*
D15*
X109675000Y-94600000D03*
D14*
X108775000Y-92060000D03*
D15*
X109675000Y-92060000D03*
D14*
X108775000Y-89520000D03*
D15*
X109675000Y-89520000D03*
D14*
X108775000Y-86980000D03*
D15*
X109675000Y-86980000D03*
D16*
X108775000Y-84440000D03*
D15*
X109675000Y-84440000D03*
D14*
X108775000Y-81900000D03*
D15*
X109675000Y-81900000D03*
D14*
X108775000Y-79360000D03*
D15*
X109675000Y-79360000D03*
D14*
X108775000Y-76820000D03*
D15*
X109675000Y-76820000D03*
D14*
X108775000Y-74280000D03*
D15*
X109675000Y-74280000D03*
D16*
X108775000Y-71740000D03*
D15*
X109675000Y-71740000D03*
D14*
X108775000Y-69200000D03*
D15*
X109675000Y-69200000D03*
D14*
X108775000Y-66660000D03*
D15*
X109675000Y-66660000D03*
D14*
X108775000Y-64120000D03*
D15*
X109675000Y-64120000D03*
D14*
X108775000Y-61580000D03*
D15*
X109675000Y-61580000D03*
D16*
X108775000Y-59040000D03*
D15*
X109675000Y-59040000D03*
D14*
X108775000Y-56500000D03*
D15*
X109675000Y-56500000D03*
D14*
X108775000Y-53960000D03*
D15*
X109675000Y-53960000D03*
D14*
X100469100Y-83690000D03*
D16*
X103009100Y-83690000D03*
D14*
X105549100Y-83690000D03*
D16*
X53800000Y-118080000D03*
D14*
X53800000Y-120620000D03*
X53800000Y-123160000D03*
X53800000Y-125700000D03*
X53800000Y-128240000D03*
X53800000Y-130780000D03*
X53800000Y-133320000D03*
X53800000Y-135860000D03*
D16*
X140100000Y-110800000D03*
D14*
X140100000Y-113340000D03*
X140100000Y-115880000D03*
X140100000Y-118420000D03*
X140100000Y-120960000D03*
X140100000Y-123500000D03*
X140100000Y-126040000D03*
X140100000Y-128580000D03*
D17*
X73637500Y-112175000D03*
X73637500Y-112825000D03*
X73637500Y-113475000D03*
X73637500Y-114125000D03*
X73637500Y-114775000D03*
X73637500Y-115425000D03*
X73637500Y-116075000D03*
X73637500Y-116725000D03*
X73637500Y-117375000D03*
X73637500Y-118025000D03*
X79362500Y-118025000D03*
X79362500Y-117375000D03*
X79362500Y-116725000D03*
X79362500Y-116075000D03*
X79362500Y-115425000D03*
X79362500Y-114775000D03*
X79362500Y-114125000D03*
X79362500Y-113475000D03*
X79362500Y-112825000D03*
X79362500Y-112175000D03*
D16*
X62485000Y-144600000D03*
D14*
X65025000Y-144600000D03*
X67565000Y-144600000D03*
X70105000Y-144600000D03*
X72645000Y-144600000D03*
X75185000Y-144600000D03*
X77725000Y-144600000D03*
X80265000Y-144600000D03*
D18*
X55195900Y-145095900D03*
D12*
X64000000Y-111550000D03*
X65300000Y-111550000D03*
D16*
X146300000Y-63880000D03*
D14*
X146300000Y-66420000D03*
X146300000Y-68960000D03*
X146300000Y-71500000D03*
X146300000Y-74040000D03*
X146300000Y-76580000D03*
X146300000Y-79120000D03*
X146300000Y-81660000D03*
D18*
X144565000Y-55240000D03*
D13*
X70200000Y-134500000D03*
X70200000Y-135300000D03*
X70200000Y-136100000D03*
X70200000Y-136900000D03*
X71900000Y-136900000D03*
X71900000Y-136100000D03*
X71900000Y-135300000D03*
X71900000Y-134500000D03*
D11*
X135520000Y-130700000D03*
X136480000Y-130700000D03*
D16*
X53790000Y-65240000D03*
D14*
X53790000Y-67780000D03*
X53790000Y-70320000D03*
X53790000Y-72860000D03*
X53790000Y-75400000D03*
X53790000Y-77940000D03*
X53790000Y-80480000D03*
X53790000Y-83020000D03*
D17*
X91637500Y-111675000D03*
X91637500Y-112325000D03*
X91637500Y-112975000D03*
X91637500Y-113625000D03*
X91637500Y-114275000D03*
X91637500Y-114925000D03*
X91637500Y-115575000D03*
X91637500Y-116225000D03*
X91637500Y-116875000D03*
X91637500Y-117525000D03*
X97362500Y-117525000D03*
X97362500Y-116875000D03*
X97362500Y-116225000D03*
X97362500Y-115575000D03*
X97362500Y-114925000D03*
X97362500Y-114275000D03*
X97362500Y-113625000D03*
X97362500Y-112975000D03*
X97362500Y-112325000D03*
X97362500Y-111675000D03*
X125937500Y-111675000D03*
X125937500Y-112325000D03*
X125937500Y-112975000D03*
X125937500Y-113625000D03*
X125937500Y-114275000D03*
X125937500Y-114925000D03*
X125937500Y-115575000D03*
X125937500Y-116225000D03*
X125937500Y-116875000D03*
X125937500Y-117525000D03*
X131662500Y-117525000D03*
X131662500Y-116875000D03*
X131662500Y-116225000D03*
X131662500Y-115575000D03*
X131662500Y-114925000D03*
X131662500Y-114275000D03*
X131662500Y-113625000D03*
X131662500Y-112975000D03*
X131662500Y-112325000D03*
X131662500Y-111675000D03*
D16*
X146800000Y-111980000D03*
D14*
X146800000Y-114520000D03*
X146800000Y-117060000D03*
X146800000Y-119600000D03*
X146800000Y-122140000D03*
X146800000Y-124680000D03*
X146800000Y-127220000D03*
X146800000Y-129760000D03*
D16*
X131800000Y-125780000D03*
D14*
X131800000Y-128320000D03*
X131800000Y-130860000D03*
X131800000Y-133400000D03*
X131800000Y-135940000D03*
X131800000Y-138480000D03*
X131800000Y-141020000D03*
X131800000Y-143560000D03*
D11*
X84500000Y-107400000D03*
X85460000Y-107400000D03*
D13*
X60500000Y-134400000D03*
X60500000Y-135200000D03*
X60500000Y-136000000D03*
X60500000Y-136800000D03*
X62200000Y-136800000D03*
X62200000Y-136000000D03*
X62200000Y-135200000D03*
X62200000Y-134400000D03*
D16*
X139180000Y-133800000D03*
D14*
X141720000Y-133800000D03*
X144260000Y-133800000D03*
X146800000Y-133800000D03*
D19*
X75805000Y-139575000D03*
D20*
X78345000Y-139575000D03*
X80885000Y-139575000D03*
X83425000Y-139575000D03*
X85965000Y-139575000D03*
X88505000Y-139575000D03*
X91045000Y-139575000D03*
X93585000Y-139575000D03*
X96125000Y-139575000D03*
X98665000Y-139575000D03*
X101205000Y-139575000D03*
X103745000Y-139575000D03*
X106285000Y-139575000D03*
X108825000Y-139575000D03*
X111365000Y-139575000D03*
X113905000Y-139575000D03*
X116445000Y-139575000D03*
X118985000Y-139575000D03*
X121525000Y-139575000D03*
X124065000Y-139575000D03*
X124065000Y-124335000D03*
X121525000Y-124335000D03*
X118985000Y-124335000D03*
X116445000Y-124335000D03*
X113905000Y-124335000D03*
X111365000Y-124335000D03*
X108825000Y-124335000D03*
X106285000Y-124335000D03*
X103745000Y-124335000D03*
X101205000Y-124335000D03*
X98665000Y-124335000D03*
X96125000Y-124335000D03*
X93585000Y-124335000D03*
X91045000Y-124335000D03*
X88505000Y-124335000D03*
X85965000Y-124335000D03*
X83425000Y-124335000D03*
X80885000Y-124335000D03*
X78345000Y-124335000D03*
X75805000Y-124335000D03*
D14*
X119035000Y-53940000D03*
D15*
X118135000Y-53940000D03*
D14*
X119035000Y-56480000D03*
D15*
X118135000Y-56480000D03*
D16*
X119035000Y-59020000D03*
D15*
X118135000Y-59020000D03*
D14*
X119035000Y-61560000D03*
D15*
X118135000Y-61560000D03*
D14*
X119035000Y-64100000D03*
D15*
X118135000Y-64100000D03*
D14*
X119035000Y-66640000D03*
D15*
X118135000Y-66640000D03*
D14*
X119035000Y-69180000D03*
D15*
X118135000Y-69180000D03*
D16*
X119035000Y-71720000D03*
D15*
X118135000Y-71720000D03*
D14*
X119035000Y-74260000D03*
D15*
X118135000Y-74260000D03*
D14*
X119035000Y-76800000D03*
D15*
X118135000Y-76800000D03*
D14*
X119035000Y-79340000D03*
D15*
X118135000Y-79340000D03*
D14*
X119035000Y-81880000D03*
D15*
X118135000Y-81880000D03*
D16*
X119035000Y-84420000D03*
D15*
X118135000Y-84420000D03*
D14*
X119035000Y-86960000D03*
D15*
X118135000Y-86960000D03*
D14*
X119035000Y-89500000D03*
D15*
X118135000Y-89500000D03*
D14*
X119035000Y-92040000D03*
D15*
X118135000Y-92040000D03*
D14*
X119035000Y-94580000D03*
D15*
X118135000Y-94580000D03*
D16*
X119035000Y-97120000D03*
D15*
X118135000Y-97120000D03*
D14*
X119035000Y-99660000D03*
D15*
X118135000Y-99660000D03*
D14*
X119035000Y-102200000D03*
D15*
X118135000Y-102200000D03*
D14*
X136815000Y-102200000D03*
D15*
X137715000Y-102200000D03*
D14*
X136815000Y-99660000D03*
D15*
X137715000Y-99660000D03*
D16*
X136815000Y-97120000D03*
D15*
X137715000Y-97120000D03*
D14*
X136815000Y-94580000D03*
D15*
X137715000Y-94580000D03*
D14*
X136815000Y-92040000D03*
D15*
X137715000Y-92040000D03*
D14*
X136815000Y-89500000D03*
D15*
X137715000Y-89500000D03*
D14*
X136815000Y-86960000D03*
D15*
X137715000Y-86960000D03*
D16*
X136815000Y-84420000D03*
D15*
X137715000Y-84420000D03*
D14*
X136815000Y-81880000D03*
D15*
X137715000Y-81880000D03*
D14*
X136815000Y-79340000D03*
D15*
X137715000Y-79340000D03*
D14*
X136815000Y-76800000D03*
D15*
X137715000Y-76800000D03*
D14*
X136815000Y-74260000D03*
D15*
X137715000Y-74260000D03*
D16*
X136815000Y-71720000D03*
D15*
X137715000Y-71720000D03*
D14*
X136815000Y-69180000D03*
D15*
X137715000Y-69180000D03*
D14*
X136815000Y-66640000D03*
D15*
X137715000Y-66640000D03*
D14*
X136815000Y-64100000D03*
D15*
X137715000Y-64100000D03*
D14*
X136815000Y-61560000D03*
D15*
X137715000Y-61560000D03*
D16*
X136815000Y-59020000D03*
D15*
X137715000Y-59020000D03*
D14*
X136815000Y-56480000D03*
D15*
X137715000Y-56480000D03*
D14*
X136815000Y-53940000D03*
D15*
X137715000Y-53940000D03*
D14*
X128509100Y-83670000D03*
D16*
X131049100Y-83670000D03*
D14*
X133589100Y-83670000D03*
D16*
X109525000Y-144100000D03*
D14*
X112065000Y-144100000D03*
X114605000Y-144100000D03*
X117145000Y-144100000D03*
X119685000Y-144100000D03*
X122225000Y-144100000D03*
X124765000Y-144100000D03*
X127305000Y-144100000D03*
D11*
X129240000Y-106600000D03*
X130200000Y-106600000D03*
D12*
X64000000Y-115100000D03*
X65300000Y-115100000D03*
D11*
X66740000Y-107300000D03*
X67700000Y-107300000D03*
X135200000Y-106500000D03*
X136160000Y-106500000D03*
D16*
X53790000Y-89710000D03*
D14*
X53790000Y-92250000D03*
X53790000Y-94790000D03*
X53790000Y-97330000D03*
X53790000Y-99870000D03*
X53790000Y-102410000D03*
X53790000Y-104950000D03*
X53790000Y-107490000D03*
D21*
X85900000Y-56920000D03*
X85900000Y-57880000D03*
D16*
X85525000Y-144100000D03*
D14*
X88065000Y-144100000D03*
X90605000Y-144100000D03*
X93145000Y-144100000D03*
X95685000Y-144100000D03*
X98225000Y-144100000D03*
X100765000Y-144100000D03*
X103305000Y-144100000D03*
D11*
X120320000Y-106800000D03*
X121280000Y-106800000D03*
X111840000Y-106800000D03*
X112800000Y-106800000D03*
X143240000Y-60200000D03*
X144200000Y-60200000D03*
D18*
X55505900Y-55234100D03*
X144735000Y-144760000D03*
D12*
X64000000Y-129300000D03*
X65300000Y-129300000D03*
X64000000Y-118650000D03*
X65300000Y-118650000D03*
D22*
X72230000Y-138650000D03*
X71270000Y-138650000D03*
D16*
X59000000Y-110820000D03*
D14*
X59000000Y-113360000D03*
X59000000Y-115900000D03*
X59000000Y-118440000D03*
X59000000Y-120980000D03*
X59000000Y-123520000D03*
X59000000Y-126060000D03*
X59000000Y-128600000D03*
D11*
X92840000Y-107100000D03*
X93800000Y-107100000D03*
D14*
X63020000Y-54020000D03*
D15*
X62120000Y-54020000D03*
D14*
X63020000Y-56560000D03*
D15*
X62120000Y-56560000D03*
D16*
X63020000Y-59100000D03*
D15*
X62120000Y-59100000D03*
D14*
X63020000Y-61640000D03*
D15*
X62120000Y-61640000D03*
D14*
X63020000Y-64180000D03*
D15*
X62120000Y-64180000D03*
D14*
X63020000Y-66720000D03*
D15*
X62120000Y-66720000D03*
D14*
X63020000Y-69260000D03*
D15*
X62120000Y-69260000D03*
D16*
X63020000Y-71800000D03*
D15*
X62120000Y-71800000D03*
D14*
X63020000Y-74340000D03*
D15*
X62120000Y-74340000D03*
D14*
X63020000Y-76880000D03*
D15*
X62120000Y-76880000D03*
D14*
X63020000Y-79420000D03*
D15*
X62120000Y-79420000D03*
D14*
X63020000Y-81960000D03*
D15*
X62120000Y-81960000D03*
D16*
X63020000Y-84500000D03*
D15*
X62120000Y-84500000D03*
D14*
X63020000Y-87040000D03*
D15*
X62120000Y-87040000D03*
D14*
X63020000Y-89580000D03*
D15*
X62120000Y-89580000D03*
D14*
X63020000Y-92120000D03*
D15*
X62120000Y-92120000D03*
D14*
X63020000Y-94660000D03*
D15*
X62120000Y-94660000D03*
D16*
X63020000Y-97200000D03*
D15*
X62120000Y-97200000D03*
D14*
X63020000Y-99740000D03*
D15*
X62120000Y-99740000D03*
D14*
X63020000Y-102280000D03*
D15*
X62120000Y-102280000D03*
D14*
X80800000Y-102280000D03*
D15*
X81700000Y-102280000D03*
D14*
X80800000Y-99740000D03*
D15*
X81700000Y-99740000D03*
D16*
X80800000Y-97200000D03*
D15*
X81700000Y-97200000D03*
D14*
X80800000Y-94660000D03*
D15*
X81700000Y-94660000D03*
D14*
X80800000Y-92120000D03*
D15*
X81700000Y-92120000D03*
D14*
X80800000Y-89580000D03*
D15*
X81700000Y-89580000D03*
D14*
X80800000Y-87040000D03*
D15*
X81700000Y-87040000D03*
D16*
X80800000Y-84500000D03*
D15*
X81700000Y-84500000D03*
D14*
X80800000Y-81960000D03*
D15*
X81700000Y-81960000D03*
D14*
X80800000Y-79420000D03*
D15*
X81700000Y-79420000D03*
D14*
X80800000Y-76880000D03*
D15*
X81700000Y-76880000D03*
D14*
X80800000Y-74340000D03*
D15*
X81700000Y-74340000D03*
D16*
X80800000Y-71800000D03*
D15*
X81700000Y-71800000D03*
D14*
X80800000Y-69260000D03*
D15*
X81700000Y-69260000D03*
D14*
X80800000Y-66720000D03*
D15*
X81700000Y-66720000D03*
D14*
X80800000Y-64180000D03*
D15*
X81700000Y-64180000D03*
D14*
X80800000Y-61640000D03*
D15*
X81700000Y-61640000D03*
D16*
X80800000Y-59100000D03*
D15*
X81700000Y-59100000D03*
D14*
X80800000Y-56560000D03*
D15*
X81700000Y-56560000D03*
D14*
X80800000Y-54020000D03*
D15*
X81700000Y-54020000D03*
D14*
X72494100Y-83750000D03*
D16*
X75034100Y-83750000D03*
D14*
X77574100Y-83750000D03*
D16*
X146400000Y-87720000D03*
D14*
X146400000Y-90260000D03*
X146400000Y-92800000D03*
X146400000Y-95340000D03*
X146400000Y-97880000D03*
X146400000Y-100420000D03*
X146400000Y-102960000D03*
X146400000Y-105500000D03*
D17*
X108925000Y-111675000D03*
X108925000Y-112325000D03*
X108925000Y-112975000D03*
X108925000Y-113625000D03*
X108925000Y-114275000D03*
X108925000Y-114925000D03*
X108925000Y-115575000D03*
X108925000Y-116225000D03*
X108925000Y-116875000D03*
X108925000Y-117525000D03*
X114650000Y-117525000D03*
X114650000Y-116875000D03*
X114650000Y-116225000D03*
X114650000Y-115575000D03*
X114650000Y-114925000D03*
X114650000Y-114275000D03*
X114650000Y-113625000D03*
X114650000Y-112975000D03*
X114650000Y-112325000D03*
X114650000Y-111675000D03*
D12*
X64000000Y-125750000D03*
X65300000Y-125750000D03*
D23*
X74150000Y-107500000D03*
X72100000Y-129400000D03*
X125650000Y-108800000D03*
X109300000Y-106700000D03*
X111650000Y-109302500D03*
X91250000Y-106650000D03*
X126850000Y-105850000D03*
X91700000Y-109500000D03*
X115151600Y-96185700D03*
X134320800Y-130182500D03*
X127225400Y-75530000D03*
X141294100Y-108807100D03*
X118156000Y-112194000D03*
X100471000Y-111967000D03*
X105350000Y-55650000D03*
X100540000Y-112782000D03*
X118650000Y-112900000D03*
X119150000Y-113800000D03*
X83358600Y-106661900D03*
X100918000Y-113505000D03*
X95050000Y-116450000D03*
X119650000Y-114800000D03*
X101415000Y-114148000D03*
X87214600Y-76746600D03*
X104109400Y-67922800D03*
X101066000Y-115682000D03*
X119450000Y-116000000D03*
X118650000Y-116900000D03*
X100693000Y-116707800D03*
X99550000Y-117400000D03*
X117850000Y-117700000D03*
X106242800Y-75542800D03*
X99531200Y-118607800D03*
X116950000Y-118600000D03*
X135300000Y-112200000D03*
X82987500Y-112725000D03*
X132092200Y-98098400D03*
X135800000Y-112900000D03*
X83487500Y-113425000D03*
X83987500Y-114325000D03*
X136300000Y-113800000D03*
X136800000Y-114800000D03*
X133802300Y-107029000D03*
X84487500Y-115325000D03*
X136600000Y-116000000D03*
X84287500Y-116525000D03*
X135800000Y-116900000D03*
X83487500Y-117425000D03*
X82687500Y-118225000D03*
X135000000Y-117700000D03*
X81787500Y-119125000D03*
X134100000Y-118600000D03*
X81467900Y-105372700D03*
X87758100Y-111945000D03*
X86700000Y-112050000D03*
X86600000Y-113200000D03*
X86400000Y-114400000D03*
X86660600Y-115639000D03*
X87360600Y-116339000D03*
X87903500Y-117017000D03*
X88200000Y-118200000D03*
X106462000Y-111225000D03*
X122612000Y-111475000D03*
X121812000Y-112275000D03*
X121161400Y-113098499D03*
X121298689Y-114350311D03*
X121312000Y-115375000D03*
X121812000Y-116275000D03*
X122312000Y-116975000D03*
X122612000Y-118175000D03*
X71118800Y-111725000D03*
X70218800Y-112625000D03*
X69418800Y-113425000D03*
X68814400Y-114409000D03*
X68714400Y-115739000D03*
X69650000Y-116750000D03*
X83494900Y-109252600D03*
X88345200Y-111383000D03*
X82687500Y-111525000D03*
X100431000Y-111025000D03*
X135000000Y-111000000D03*
X117850000Y-111000000D03*
X110100000Y-132150000D03*
X143200000Y-71000000D03*
X137873700Y-105332300D03*
X130600000Y-119300000D03*
X147765900Y-84669900D03*
X64050000Y-113250000D03*
X144011000Y-111390700D03*
X64100000Y-109250000D03*
X147633700Y-77844700D03*
X62039460Y-118789460D03*
X61850000Y-122250000D03*
X61869090Y-126046630D03*
X61800000Y-129400000D03*
X87150000Y-132400000D03*
X61907800Y-111542386D03*
X84897800Y-132052000D03*
X61900000Y-115150000D03*
D24*
X71900000Y-135300000D02*
X71900000Y-134500000D01*
X67747500Y-127908000D02*
X69240000Y-129400000D01*
X67747500Y-117774898D02*
X67747500Y-127908000D01*
X75000000Y-103600000D02*
X75000000Y-106650000D01*
X69240000Y-129400000D02*
X69240000Y-131840000D01*
X69240000Y-131840000D02*
X71900000Y-134500000D01*
X91045000Y-139575000D02*
X91045000Y-137845000D01*
X63897500Y-107695000D02*
X66847500Y-110645000D01*
X90100000Y-136900000D02*
X71900000Y-136900000D01*
X71900000Y-136100000D02*
X71900000Y-135300000D01*
X72230000Y-138650000D02*
X72230000Y-137230000D01*
X66847500Y-116874898D02*
X67747500Y-117774898D01*
X68700000Y-97300000D02*
X75000000Y-103600000D01*
X72230000Y-137230000D02*
X71900000Y-136900000D01*
X85900000Y-56920000D02*
X81160000Y-56920000D01*
X79597900Y-56560000D02*
X77150000Y-59007900D01*
X63897500Y-106905000D02*
X63897500Y-107695000D01*
X75000000Y-106650000D02*
X74150000Y-107500000D01*
X68700000Y-97300000D02*
X68700000Y-102103000D01*
X68700000Y-102103000D02*
X63897500Y-106905000D01*
X81160000Y-56920000D02*
X80800000Y-56560000D01*
X66847500Y-110645000D02*
X66847500Y-116874898D01*
X91045000Y-137845000D02*
X90100000Y-136900000D01*
X68700000Y-74600000D02*
X68700000Y-97300000D01*
X71900000Y-136900000D02*
X71900000Y-136100000D01*
X80800000Y-56560000D02*
X79597900Y-56560000D01*
X77150000Y-66150000D02*
X68700000Y-74600000D01*
X77150000Y-59007900D02*
X77150000Y-66150000D01*
X103180000Y-107000000D02*
X104332000Y-105848000D01*
D25*
X120400000Y-109200000D02*
X120800000Y-108800000D01*
X120400000Y-119950000D02*
X125750000Y-119950000D01*
X116600000Y-119950000D02*
X120400000Y-119950000D01*
D24*
X67700000Y-107300000D02*
X67700000Y-105950000D01*
X115750000Y-60090000D02*
X114400000Y-61440000D01*
X67800000Y-116480359D02*
X69637500Y-118317859D01*
D25*
X120400000Y-119950000D02*
X120405700Y-119944300D01*
D24*
X73612500Y-117350000D02*
X73637500Y-117375000D01*
D25*
X120405700Y-109205700D02*
X120400000Y-109200000D01*
D24*
X107290000Y-97140000D02*
X105100000Y-99330000D01*
X66200000Y-105950000D02*
X64850000Y-107300000D01*
X103298000Y-106048000D02*
X103300000Y-106050000D01*
X112800000Y-106350000D02*
X112800000Y-106800000D01*
X71270000Y-138650000D02*
X71270000Y-138880000D01*
D25*
X125750000Y-119950000D02*
X125937500Y-119762500D01*
D24*
X65400000Y-140000000D02*
X70150000Y-140000000D01*
X136815000Y-59020000D02*
X134270000Y-59020000D01*
D25*
X111650000Y-118650000D02*
X111650000Y-109302500D01*
X109044000Y-117525000D02*
X108925000Y-117525000D01*
D24*
X53800000Y-143700000D02*
X55195900Y-145095900D01*
X93800000Y-107100000D02*
X94576700Y-106323700D01*
X94950000Y-105398000D02*
X95600000Y-106048000D01*
X122900000Y-105648000D02*
X123398000Y-105150000D01*
X87837500Y-121462000D02*
X90474926Y-118824926D01*
X122900000Y-99500000D02*
X122900000Y-105648000D01*
D25*
X106881000Y-117525000D02*
X106850000Y-117556000D01*
X108925000Y-117525000D02*
X106881000Y-117525000D01*
D24*
X63020000Y-59100000D02*
X65500000Y-59100000D01*
X67150000Y-137000000D02*
X67150000Y-136200000D01*
X70150000Y-140000000D02*
X71525000Y-140000000D01*
X141650000Y-141950000D02*
X144460000Y-144760000D01*
X70200000Y-129400000D02*
X70200000Y-121462000D01*
X90474926Y-118824926D02*
X91590000Y-117710000D01*
X141650000Y-135800000D02*
X142260000Y-135800000D01*
X67150000Y-135400000D02*
X67150000Y-134600000D01*
D25*
X73656200Y-117350000D02*
X73612500Y-117350000D01*
D24*
X64850000Y-107300000D02*
X67800000Y-110250000D01*
X94852500Y-106048000D02*
X95600000Y-106048000D01*
X134200000Y-52200000D02*
X141000000Y-52200000D01*
X94950000Y-99610000D02*
X94950000Y-105398000D01*
X85900000Y-57880000D02*
X84680000Y-59100000D01*
X62200000Y-135200000D02*
X62200000Y-136000000D01*
X144200000Y-60200000D02*
X146990000Y-57410000D01*
X136160000Y-106050000D02*
X136160000Y-106500000D01*
X120520000Y-97120000D02*
X122900000Y-99500000D01*
D25*
X73700000Y-118025000D02*
X73637500Y-118025000D01*
D24*
X76200000Y-108800000D02*
X76900000Y-108100000D01*
X90995000Y-97140000D02*
X92480000Y-97140000D01*
X71525000Y-140000000D02*
X71625000Y-139900000D01*
X135310000Y-105200000D02*
X136160000Y-106050000D01*
X93175074Y-118824926D02*
X93200000Y-118800000D01*
X69637500Y-118317859D02*
X69637500Y-120900000D01*
X85460000Y-107400000D02*
X87260000Y-105600000D01*
X95600000Y-106048000D02*
X103298000Y-106048000D01*
X105100000Y-105848000D02*
X109300000Y-105848000D01*
X91590000Y-117710000D02*
X91637500Y-117710000D01*
X67150000Y-136200000D02*
X67150000Y-135400000D01*
X134150000Y-52250000D02*
X134200000Y-52200000D01*
X95100000Y-105600000D02*
X95100000Y-105800400D01*
X67700000Y-105950000D02*
X66200000Y-105950000D01*
X134150000Y-58900000D02*
X134150000Y-52250000D01*
X115750000Y-60075000D02*
X115750000Y-60090000D01*
X65650000Y-52050000D02*
X58690000Y-52050000D01*
X93200000Y-118800000D02*
X93700000Y-118300000D01*
X136480000Y-130700000D02*
X136480000Y-126630000D01*
X120777000Y-105848000D02*
X121280000Y-106350000D01*
X70200000Y-129400000D02*
X72100000Y-129400000D01*
X69200000Y-108800000D02*
X76200000Y-108800000D01*
X67800000Y-110250000D02*
X67800000Y-116480359D01*
X126850000Y-105150000D02*
X126850000Y-105850000D01*
X139180000Y-133800000D02*
X139180000Y-133400000D01*
D25*
X107450000Y-118650000D02*
X111650000Y-118650000D01*
D24*
X131800000Y-121950000D02*
X128100000Y-121950000D01*
D25*
X106850000Y-118050000D02*
X107450000Y-118650000D01*
D24*
X125937500Y-119787500D02*
X125937500Y-119762500D01*
X73637500Y-118025000D02*
X73637500Y-117375000D01*
X84680000Y-59100000D02*
X80800000Y-59100000D01*
X90474926Y-118824926D02*
X93175074Y-118824926D01*
X146735000Y-57410000D02*
X144565000Y-55240000D01*
D25*
X106850000Y-117556000D02*
X106850000Y-118050000D01*
D24*
X144460000Y-144760000D02*
X144735000Y-144760000D01*
X91250000Y-105600000D02*
X91250000Y-106650000D01*
X75805000Y-139575000D02*
X75480000Y-139900000D01*
D25*
X125650000Y-108800000D02*
X125700000Y-108800000D01*
D24*
X112800000Y-106800000D02*
X113752000Y-105848000D01*
X139180000Y-133400000D02*
X136480000Y-130700000D01*
X123398000Y-105150000D02*
X126850000Y-105150000D01*
X141180000Y-135800000D02*
X141650000Y-135800000D01*
X69637500Y-120900000D02*
X70200000Y-121462000D01*
X122432000Y-105648000D02*
X122900000Y-105648000D01*
X141000000Y-52200000D02*
X141050000Y-52250000D01*
X91250000Y-105600000D02*
X95100000Y-105600000D01*
X113752000Y-105848000D02*
X120777000Y-105848000D01*
X136480000Y-126630000D02*
X131800000Y-121950000D01*
X67700000Y-107300000D02*
X69200000Y-108800000D01*
X141050000Y-52250000D02*
X141575000Y-52250000D01*
X142260000Y-135800000D02*
X144260000Y-133800000D01*
X121280000Y-106350000D02*
X121280000Y-106800000D01*
X103300000Y-106880000D02*
X103180000Y-107000000D01*
X71270000Y-138880000D02*
X70150000Y-140000000D01*
D25*
X115300000Y-118650000D02*
X116600000Y-119950000D01*
D24*
X93700000Y-118300000D02*
X93700000Y-111000000D01*
X141650000Y-135800000D02*
X141650000Y-141950000D01*
X53800000Y-135860000D02*
X53800000Y-143700000D01*
X131550000Y-105150000D02*
X131600000Y-105200000D01*
X75480000Y-139900000D02*
X71625000Y-139900000D01*
X134270000Y-59020000D02*
X134150000Y-58900000D01*
X126850000Y-105150000D02*
X131550000Y-105150000D01*
X95100000Y-105800400D02*
X94576700Y-106323700D01*
D25*
X120405700Y-119944300D02*
X120405700Y-109205700D01*
D24*
X58690000Y-52050000D02*
X55505900Y-55234100D01*
X70200000Y-121462000D02*
X87837500Y-121462000D01*
X76900000Y-99615000D02*
X79315000Y-97200000D01*
X93700000Y-111000000D02*
X92200000Y-109500000D01*
X92480000Y-97140000D02*
X94950000Y-99610000D01*
X112297000Y-105848000D02*
X112800000Y-106350000D01*
X87260000Y-105600000D02*
X91250000Y-105600000D01*
X92200000Y-109500000D02*
X91700000Y-109500000D01*
D25*
X120800000Y-108800000D02*
X125650000Y-108800000D01*
D24*
X105100000Y-99330000D02*
X105100000Y-105848000D01*
D25*
X111650000Y-118650000D02*
X115300000Y-118650000D01*
D24*
X104332000Y-105848000D02*
X105100000Y-105848000D01*
X65650000Y-58950000D02*
X65650000Y-52050000D01*
X121280000Y-106800000D02*
X122432000Y-105648000D01*
X109300000Y-105848000D02*
X109300000Y-106700000D01*
X130200000Y-106600000D02*
X131600000Y-105200000D01*
X139180000Y-133800000D02*
X141180000Y-135800000D01*
X73637500Y-117375000D02*
X73637500Y-116910000D01*
X79315000Y-97200000D02*
X80800000Y-97200000D01*
X131600000Y-105200000D02*
X135310000Y-105200000D01*
X62200000Y-136800000D02*
X65400000Y-140000000D01*
X146990000Y-57410000D02*
X146735000Y-57410000D01*
X119035000Y-59020000D02*
X116805000Y-59020000D01*
X62200000Y-134400000D02*
X62200000Y-135200000D01*
X103300000Y-106050000D02*
X103300000Y-106880000D01*
X62200000Y-136000000D02*
X62200000Y-136800000D01*
X94576700Y-106323700D02*
X94852500Y-106048000D01*
X128100000Y-121950000D02*
X125937500Y-119787500D01*
X125937500Y-119762500D02*
X125937500Y-117710000D01*
X119035000Y-97120000D02*
X120520000Y-97120000D01*
X91700000Y-109500000D02*
X91850000Y-109500000D01*
X70150000Y-140000000D02*
X67150000Y-137000000D01*
X108775000Y-97140000D02*
X107290000Y-97140000D01*
X65500000Y-59100000D02*
X65650000Y-58950000D01*
X76900000Y-99615000D02*
X76900000Y-108100000D01*
X141575000Y-52250000D02*
X144565000Y-55240000D01*
X109300000Y-105848000D02*
X112297000Y-105848000D01*
X70200000Y-121462000D02*
X73637500Y-118025000D01*
X116805000Y-59020000D02*
X115750000Y-60075000D01*
X109000000Y-108000000D02*
X109000000Y-111490000D01*
X114651000Y-111490000D02*
X114650500Y-111490000D01*
X128095000Y-108108000D02*
X131478000Y-111490000D01*
X114652000Y-111490000D02*
X114651000Y-111490000D01*
X118770000Y-108350000D02*
X119368000Y-107752000D01*
X128095000Y-108108000D02*
X125938000Y-110265000D01*
X83030000Y-64180000D02*
X85550000Y-66700000D01*
X114665400Y-111490000D02*
X114657700Y-111490000D01*
X112940000Y-108350000D02*
X95500000Y-108350000D01*
X125938000Y-110265000D02*
X125938000Y-111490000D01*
X131478000Y-111490000D02*
X131662000Y-111490000D01*
X137950000Y-128827919D02*
X141720000Y-132597919D01*
X89750000Y-110250000D02*
X89750000Y-109700000D01*
X114650100Y-111490000D02*
X114650000Y-111490000D01*
X128095000Y-107745000D02*
X129240000Y-106600000D01*
X83202200Y-108150000D02*
X80726200Y-110626000D01*
X128095000Y-107745000D02*
X128095000Y-108108000D01*
X120320000Y-106800000D02*
X120320000Y-107250000D01*
X128095000Y-108108000D02*
X128095000Y-119595000D01*
X111400000Y-108000000D02*
X112590000Y-108000000D01*
X73550000Y-110626000D02*
X80726200Y-110626000D01*
X102220000Y-108000000D02*
X95750000Y-108000000D01*
X111400000Y-108000000D02*
X111400000Y-107690000D01*
X81102200Y-110250000D02*
X81007164Y-110154964D01*
X102220000Y-107000000D02*
X102220000Y-108000000D01*
X84500000Y-107450000D02*
X83800000Y-108150000D01*
X128088000Y-107752000D02*
X128095000Y-107745000D01*
X95750000Y-108000000D02*
X95650000Y-107900000D01*
X109000000Y-111490000D02*
X108925000Y-111490000D01*
X115630000Y-111490000D02*
X115140000Y-111490000D01*
X120823000Y-107752000D02*
X128088000Y-107752000D01*
X129100000Y-120600000D02*
X132600000Y-120600000D01*
X94025000Y-109675000D02*
X95840000Y-111490000D01*
X114650500Y-111490000D02*
X114650300Y-111490000D01*
X111400000Y-107690000D02*
X111840000Y-107250000D01*
X95350000Y-108200000D02*
X94025000Y-109525000D01*
X80726200Y-110626000D02*
X81102200Y-110250000D01*
X94025000Y-109525000D02*
X94025000Y-109675000D01*
X114711300Y-111490000D02*
X114680700Y-111490000D01*
X91050000Y-108400000D02*
X92350000Y-107100000D01*
X89750000Y-109700000D02*
X91050000Y-108400000D01*
X81007164Y-110154964D02*
X69145036Y-110154964D01*
X95500000Y-108350000D02*
X95350000Y-108200000D01*
X141720000Y-132597919D02*
X141720000Y-133800000D01*
X70045100Y-111055000D02*
X70473800Y-110626000D01*
X92840000Y-107100000D02*
X92840000Y-108490000D01*
X69145036Y-110154964D02*
X70045100Y-111055000D01*
X92840000Y-108490000D02*
X94025000Y-109675000D01*
X73550000Y-111990000D02*
X73637500Y-111990000D01*
X114657700Y-111490000D02*
X114653900Y-111490000D01*
X132600000Y-120600000D02*
X137950000Y-125950000D01*
X114895000Y-111490000D02*
X114772500Y-111490000D01*
X119375000Y-107745000D02*
X119368000Y-107752000D01*
X81102200Y-110250000D02*
X89750000Y-110250000D01*
X114653900Y-111490000D02*
X114652000Y-111490000D01*
X119368000Y-107752000D02*
X119375000Y-107745000D01*
X73550000Y-110626000D02*
X73550000Y-111990000D01*
X80800000Y-64180000D02*
X83030000Y-64180000D01*
X97730000Y-111490000D02*
X102220000Y-107000000D01*
X70473800Y-110626000D02*
X73550000Y-110626000D01*
X84500000Y-107400000D02*
X84500000Y-107450000D01*
X111840000Y-107250000D02*
X111840000Y-106800000D01*
X128095000Y-119595000D02*
X129100000Y-120600000D01*
X85550000Y-66700000D02*
X85550000Y-104150000D01*
X114650200Y-111490000D02*
X114650100Y-111490000D01*
X84500000Y-108400000D02*
X91050000Y-108400000D01*
X66740000Y-107750000D02*
X69145036Y-110154964D01*
X114680700Y-111490000D02*
X114665400Y-111490000D01*
X92350000Y-107100000D02*
X92840000Y-107100000D01*
X84500000Y-107400000D02*
X84500000Y-108400000D01*
X115140000Y-111490000D02*
X114895000Y-111490000D01*
X84500000Y-105200000D02*
X84500000Y-107400000D01*
X112590000Y-108000000D02*
X112940000Y-108350000D01*
X66740000Y-107300000D02*
X66740000Y-107750000D01*
X120320000Y-107250000D02*
X120823000Y-107752000D01*
X112940000Y-108350000D02*
X118770000Y-108350000D01*
X95840000Y-111490000D02*
X97730000Y-111490000D01*
X137950000Y-125950000D02*
X137950000Y-128827919D01*
X114772500Y-111490000D02*
X114711300Y-111490000D01*
X114650300Y-111490000D02*
X114650200Y-111490000D01*
X109000000Y-108000000D02*
X111400000Y-108000000D01*
X85550000Y-104150000D02*
X84500000Y-105200000D01*
X111840000Y-106800000D02*
X111840000Y-107157000D01*
X119368000Y-107752000D02*
X115630000Y-111490000D01*
X83800000Y-108150000D02*
X83202200Y-108150000D01*
X102220000Y-108000000D02*
X109000000Y-108000000D01*
X80726200Y-110626000D02*
X79362500Y-111990000D01*
X95650000Y-107900000D02*
X95350000Y-108200000D01*
X119375000Y-107745000D02*
X120320000Y-106800000D01*
D25*
X122700000Y-53250000D02*
X121500000Y-52050000D01*
X136975000Y-113025000D02*
X139830000Y-115880000D01*
X116200000Y-52050000D02*
X111750000Y-56500000D01*
X135200000Y-106500000D02*
X135200000Y-106810000D01*
X135200000Y-107950000D02*
X136975000Y-109725000D01*
X135200000Y-106500000D02*
X135200000Y-107950000D01*
X136975000Y-109725000D02*
X136975000Y-104725000D01*
X121500000Y-52050000D02*
X116200000Y-52050000D01*
X136975000Y-109725000D02*
X136975000Y-113025000D01*
X111750000Y-56500000D02*
X108775000Y-56500000D01*
X122700000Y-90450000D02*
X122700000Y-53250000D01*
X136975000Y-104725000D02*
X122700000Y-90450000D01*
X139830000Y-115880000D02*
X140100000Y-115880000D01*
X112680000Y-64120000D02*
X114400000Y-62400000D01*
X114625000Y-62400000D02*
X114400000Y-62400000D01*
X108775000Y-64120000D02*
X112680000Y-64120000D01*
X143240000Y-60200000D02*
X139520000Y-56480000D01*
X139520000Y-56480000D02*
X136815000Y-56480000D01*
X146300000Y-68960000D02*
X143240000Y-65900000D01*
X143240000Y-65900000D02*
X143240000Y-60200000D01*
X138900000Y-64100000D02*
X146300000Y-71500000D01*
X135002500Y-130182500D02*
X135520000Y-130700000D01*
X134320800Y-130182500D02*
X135002500Y-130182500D01*
X136815000Y-64100000D02*
X138900000Y-64100000D01*
X100375000Y-111967000D02*
X100471000Y-111967000D01*
X58950000Y-60080000D02*
X58950000Y-56357200D01*
X96993800Y-113000000D02*
X97387500Y-113000000D01*
X114650000Y-112975000D02*
X117375000Y-112975000D01*
X97387500Y-113000000D02*
X99342500Y-113000000D01*
X117375000Y-112975000D02*
X118156000Y-112194000D01*
X99342500Y-113000000D02*
X100375000Y-111967000D01*
X97387500Y-113000000D02*
X97362500Y-112975000D01*
X53790000Y-65240000D02*
X58950000Y-60080000D01*
X61287200Y-54020000D02*
X63020000Y-54020000D01*
X58950000Y-56357200D02*
X61287200Y-54020000D01*
X114412000Y-112975000D02*
X114650000Y-112975000D01*
X117925000Y-113625000D02*
X118650000Y-112900000D01*
X61107500Y-56560000D02*
X63020000Y-56560000D01*
X59650000Y-61920000D02*
X59650000Y-58017500D01*
X97387500Y-113650000D02*
X97362500Y-113625000D01*
X53790000Y-67780000D02*
X59650000Y-61920000D01*
X114650000Y-113625000D02*
X117925000Y-113625000D01*
X59650000Y-58017500D02*
X61107500Y-56560000D01*
X96993800Y-113650000D02*
X97387500Y-113650000D01*
X99671400Y-113650000D02*
X100540000Y-112782000D01*
X114412000Y-113625000D02*
X114650000Y-113625000D01*
X97387500Y-113650000D02*
X99671400Y-113650000D01*
X53790000Y-70320000D02*
X58150000Y-65960000D01*
X61234500Y-61640000D02*
X63020000Y-61640000D01*
X58150000Y-64724500D02*
X61234500Y-61640000D01*
X97387500Y-114300000D02*
X96522020Y-114300000D01*
X114650000Y-114275000D02*
X118675000Y-114275000D01*
X118675000Y-114275000D02*
X119150000Y-113800000D01*
X97387500Y-114300000D02*
X100123000Y-114300000D01*
X114412000Y-114275000D02*
X114650000Y-114275000D01*
X97387500Y-114300000D02*
X97362500Y-114275000D01*
X58150000Y-65960000D02*
X58150000Y-64724500D01*
X96522020Y-114300000D02*
X95050000Y-115772020D01*
X100123000Y-114300000D02*
X100918000Y-113505000D01*
X95050000Y-115772020D02*
X95050000Y-116450000D01*
X114650000Y-114925000D02*
X119525000Y-114925000D01*
X53790000Y-72860000D02*
X55900000Y-70750000D01*
X114412000Y-114925000D02*
X114650000Y-114925000D01*
X55900000Y-70750000D02*
X55900000Y-69550000D01*
X119525000Y-114925000D02*
X119650000Y-114800000D01*
X96993800Y-114950000D02*
X97387500Y-114950000D01*
X97387500Y-114950000D02*
X97362500Y-114925000D01*
X61270000Y-64180000D02*
X63020000Y-64180000D01*
X100613000Y-114950000D02*
X101415000Y-114148000D01*
X55900000Y-69550000D02*
X61270000Y-64180000D01*
X97387500Y-114950000D02*
X100613000Y-114950000D01*
X119450000Y-116000000D02*
X119350000Y-115900000D01*
X114650000Y-115575000D02*
X119025000Y-115575000D01*
X57250000Y-71691800D02*
X57250000Y-70050000D01*
X119025000Y-115575000D02*
X119350000Y-115900000D01*
X96993800Y-115600000D02*
X97387500Y-115600000D01*
X53790000Y-75400000D02*
X53790000Y-75151800D01*
X57250000Y-70050000D02*
X60580000Y-66720000D01*
X53790000Y-75151800D02*
X57250000Y-71691800D01*
X97387500Y-115600000D02*
X97362500Y-115575000D01*
X119350000Y-115900000D02*
X119450000Y-116000000D01*
X114412000Y-115575000D02*
X114650000Y-115575000D01*
X97387500Y-115600000D02*
X100984000Y-115600000D01*
X100984000Y-115600000D02*
X101066000Y-115682000D01*
X60580000Y-66720000D02*
X63020000Y-66720000D01*
X96993800Y-116250000D02*
X97387500Y-116250000D01*
X100235200Y-116250000D02*
X100693000Y-116707800D01*
X97387500Y-116250000D02*
X97362500Y-116225000D01*
X118075000Y-116225000D02*
X118650000Y-116800000D01*
X118650000Y-116900000D02*
X118750000Y-116900000D01*
X118750000Y-116900000D02*
X118650000Y-116800000D01*
X97387500Y-116250000D02*
X100235200Y-116250000D01*
X53790000Y-77940000D02*
X58750000Y-72980000D01*
X114412000Y-116225000D02*
X114650000Y-116225000D01*
X60490000Y-69260000D02*
X63020000Y-69260000D01*
X58750000Y-72980000D02*
X58750000Y-71000000D01*
X118650000Y-116800000D02*
X118650000Y-116900000D01*
X114650000Y-116225000D02*
X118075000Y-116225000D01*
X58750000Y-71000000D02*
X60490000Y-69260000D01*
X117950000Y-117700000D02*
X117850000Y-117600000D01*
X97387500Y-116900000D02*
X99050000Y-116900000D01*
X99050000Y-116900000D02*
X99550000Y-117400000D01*
X97387500Y-116900000D02*
X97362500Y-116875000D01*
X96993800Y-116900000D02*
X97387500Y-116900000D01*
X117850000Y-117600000D02*
X117850000Y-117700000D01*
X114650000Y-116875000D02*
X117125000Y-116875000D01*
X117850000Y-117700000D02*
X117950000Y-117700000D01*
X117125000Y-116875000D02*
X117850000Y-117600000D01*
X59930000Y-74340000D02*
X63020000Y-74340000D01*
X114412000Y-116875000D02*
X114650000Y-116875000D01*
X53790000Y-80480000D02*
X59930000Y-74340000D01*
X53790000Y-83020000D02*
X59930000Y-76880000D01*
X115875000Y-117525000D02*
X116950000Y-118600000D01*
X114650000Y-117525000D02*
X115875000Y-117525000D01*
X98473400Y-117550000D02*
X99531200Y-118607800D01*
X97387500Y-117550000D02*
X97362500Y-117525000D01*
X97387500Y-117550000D02*
X98473400Y-117550000D01*
X114412000Y-117525000D02*
X114650000Y-117525000D01*
X59930000Y-76880000D02*
X63020000Y-76880000D01*
X96993800Y-117550000D02*
X97387500Y-117550000D01*
X82212500Y-113500000D02*
X82987500Y-112725000D01*
X131662500Y-112975000D02*
X134525000Y-112975000D01*
X61234500Y-79420000D02*
X63020000Y-79420000D01*
X53790000Y-86864500D02*
X61234500Y-79420000D01*
X79387500Y-113500000D02*
X79362500Y-113475000D01*
X79250000Y-113500000D02*
X79387500Y-113500000D01*
X134525000Y-112975000D02*
X135300000Y-112200000D01*
X131562000Y-112975000D02*
X131662500Y-112975000D01*
X79387500Y-113500000D02*
X82212500Y-113500000D01*
X53790000Y-89710000D02*
X53790000Y-86864500D01*
X53790000Y-92250000D02*
X56550000Y-89490000D01*
X56550000Y-89490000D02*
X56550000Y-86050000D01*
X79387500Y-114150000D02*
X79362500Y-114125000D01*
X82762500Y-114150000D02*
X83487500Y-113425000D01*
X131662500Y-113625000D02*
X135075000Y-113625000D01*
X79387500Y-114150000D02*
X82762500Y-114150000D01*
X79250000Y-114150000D02*
X79387500Y-114150000D01*
X60640000Y-81960000D02*
X63020000Y-81960000D01*
X135075000Y-113625000D02*
X135800000Y-112900000D01*
X131562000Y-113625000D02*
X131662500Y-113625000D01*
X56550000Y-86050000D02*
X60640000Y-81960000D01*
X53790000Y-94790000D02*
X58500000Y-90080000D01*
X58500000Y-89050000D02*
X60510000Y-87040000D01*
X135825000Y-114275000D02*
X136300000Y-113800000D01*
X60510000Y-87040000D02*
X63020000Y-87040000D01*
X131562000Y-114275000D02*
X131662500Y-114275000D01*
X83512500Y-114800000D02*
X83987500Y-114325000D01*
X79250000Y-114800000D02*
X79387500Y-114800000D01*
X79387500Y-114800000D02*
X79362500Y-114775000D01*
X79387500Y-114800000D02*
X83512500Y-114800000D01*
X131662500Y-114275000D02*
X135825000Y-114275000D01*
X58500000Y-90080000D02*
X58500000Y-89050000D01*
X61234500Y-89580000D02*
X63020000Y-89580000D01*
X84362500Y-115450000D02*
X84487500Y-115325000D01*
X53790000Y-97024500D02*
X61234500Y-89580000D01*
X131562000Y-114925000D02*
X131662500Y-114925000D01*
X136675000Y-114925000D02*
X136800000Y-114800000D01*
X53790000Y-97330000D02*
X53790000Y-97024500D01*
X131662500Y-114925000D02*
X136675000Y-114925000D01*
X79387500Y-115450000D02*
X84362500Y-115450000D01*
X79250000Y-115450000D02*
X79387500Y-115450000D01*
X79387500Y-115450000D02*
X79362500Y-115425000D01*
X53790000Y-99870000D02*
X53790000Y-99564500D01*
X136600000Y-116000000D02*
X136500000Y-115900000D01*
X53790000Y-99564500D02*
X61234500Y-92120000D01*
X83862500Y-116100000D02*
X84187500Y-116425000D01*
X136175000Y-115575000D02*
X136500000Y-115900000D01*
X61234500Y-92120000D02*
X63020000Y-92120000D01*
X84287500Y-116525000D02*
X84187500Y-116425000D01*
X79250000Y-116100000D02*
X79387500Y-116100000D01*
X84187500Y-116425000D02*
X84287500Y-116525000D01*
X79387500Y-116100000D02*
X79362500Y-116075000D01*
X131562000Y-115575000D02*
X131662500Y-115575000D01*
X79387500Y-116100000D02*
X83862500Y-116100000D01*
X136500000Y-115900000D02*
X136600000Y-116000000D01*
X131662500Y-115575000D02*
X136175000Y-115575000D01*
X131562000Y-116225000D02*
X131662500Y-116225000D01*
X53790000Y-102410000D02*
X57350000Y-98850000D01*
X60590000Y-94660000D02*
X63020000Y-94660000D01*
X131662500Y-116225000D02*
X135225000Y-116225000D01*
X83487500Y-117325000D02*
X83487500Y-117425000D01*
X135900000Y-116900000D02*
X135800000Y-116800000D01*
X79387500Y-116750000D02*
X79362500Y-116725000D01*
X57350000Y-98850000D02*
X57350000Y-97900000D01*
X79387500Y-116750000D02*
X82912500Y-116750000D01*
X135800000Y-116800000D02*
X135800000Y-116900000D01*
X83587500Y-117425000D02*
X83487500Y-117325000D01*
X135225000Y-116225000D02*
X135800000Y-116800000D01*
X57350000Y-97900000D02*
X60590000Y-94660000D01*
X83487500Y-117425000D02*
X83587500Y-117425000D01*
X82912500Y-116750000D02*
X83487500Y-117325000D01*
X79250000Y-116750000D02*
X79387500Y-116750000D01*
X135800000Y-116900000D02*
X135900000Y-116900000D01*
X135000000Y-117600000D02*
X135000000Y-117700000D01*
X81962500Y-117400000D02*
X82687500Y-118125000D01*
X82687500Y-118225000D02*
X82787500Y-118225000D01*
X79387500Y-117400000D02*
X81962500Y-117400000D01*
X135000000Y-117700000D02*
X135100000Y-117700000D01*
X79250000Y-117400000D02*
X79387500Y-117400000D01*
X82687500Y-118125000D02*
X82687500Y-118225000D01*
X135100000Y-117700000D02*
X135000000Y-117600000D01*
X131662500Y-116875000D02*
X134275000Y-116875000D01*
X134275000Y-116875000D02*
X135000000Y-117600000D01*
X131562000Y-116875000D02*
X131662500Y-116875000D01*
X53790000Y-104950000D02*
X59000000Y-99740000D01*
X79387500Y-117400000D02*
X79362500Y-117375000D01*
X82787500Y-118225000D02*
X82687500Y-118125000D01*
X59000000Y-99740000D02*
X63020000Y-99740000D01*
X54460000Y-107490000D02*
X59670000Y-102280000D01*
X79387500Y-118050000D02*
X80712500Y-118050000D01*
X133025000Y-117525000D02*
X134100000Y-118600000D01*
X53790000Y-107490000D02*
X54460000Y-107490000D01*
X79250000Y-118050000D02*
X79387500Y-118050000D01*
X80712500Y-118050000D02*
X81787500Y-119125000D01*
X131662500Y-117525000D02*
X133025000Y-117525000D01*
X131562000Y-117525000D02*
X131662500Y-117525000D01*
X79387500Y-118050000D02*
X79362500Y-118025000D01*
X59670000Y-102280000D02*
X63020000Y-102280000D01*
X88137800Y-112325000D02*
X87758100Y-111945000D01*
X91637500Y-112325000D02*
X88137800Y-112325000D01*
X91637500Y-112975000D02*
X87625000Y-112975000D01*
X87625000Y-112975000D02*
X86700000Y-112050000D01*
X86700000Y-113300000D02*
X86600000Y-113200000D01*
X86600000Y-113200000D02*
X86700000Y-113300000D01*
X87025000Y-113625000D02*
X86700000Y-113300000D01*
X91637500Y-113625000D02*
X87025000Y-113625000D01*
X91637500Y-114275000D02*
X86525000Y-114275000D01*
X86525000Y-114275000D02*
X86400000Y-114400000D01*
X87375000Y-114925000D02*
X86660600Y-115639000D01*
X91637500Y-114925000D02*
X87375000Y-114925000D01*
X88125000Y-115575000D02*
X87360600Y-116339000D01*
X91637500Y-115575000D02*
X88125000Y-115575000D01*
X88695200Y-116225000D02*
X87903500Y-117017000D01*
X91637500Y-116225000D02*
X88695200Y-116225000D01*
X88200000Y-118219000D02*
X88143800Y-118275000D01*
X88218800Y-118200000D02*
X88200000Y-118200000D01*
X91681200Y-116900000D02*
X90600000Y-116900000D01*
X88200000Y-118200000D02*
X88200000Y-118219000D01*
X89518800Y-116900000D02*
X88218800Y-118200000D01*
X90600000Y-116900000D02*
X89518800Y-116900000D01*
X107538000Y-112300000D02*
X106462000Y-111225000D01*
X109000000Y-112300000D02*
X107538000Y-112300000D01*
X108900000Y-112950000D02*
X105000000Y-112950000D01*
X105000000Y-112950000D02*
X101650000Y-116300000D01*
X101650000Y-116300000D02*
X101650000Y-118300000D01*
X97337800Y-122612200D02*
X97337800Y-138362200D01*
X109000000Y-112950000D02*
X108900000Y-112950000D01*
X101650000Y-118300000D02*
X97337800Y-122612200D01*
X108900000Y-112950000D02*
X108925000Y-112975000D01*
X97337800Y-138362200D02*
X96125000Y-139575000D01*
X99992200Y-138247800D02*
X98665000Y-139575000D01*
X102250000Y-120500000D02*
X102200000Y-120500000D01*
X102250000Y-116550000D02*
X102250000Y-120500000D01*
X99992200Y-122707800D02*
X99992200Y-138247800D01*
X108900000Y-113600000D02*
X105200000Y-113600000D01*
X102200000Y-120500000D02*
X99992200Y-122707800D01*
X108900000Y-113600000D02*
X108925000Y-113625000D01*
X109000000Y-113600000D02*
X108900000Y-113600000D01*
X105200000Y-113600000D02*
X102250000Y-116550000D01*
X102532200Y-138247800D02*
X101205000Y-139575000D01*
X109000000Y-114250000D02*
X108900000Y-114250000D01*
X105400000Y-114250000D02*
X102950000Y-116700000D01*
X108900000Y-114250000D02*
X108925000Y-114275000D01*
X102950000Y-116700000D02*
X102950000Y-122700000D01*
X102950000Y-122700000D02*
X102532200Y-123117800D01*
X102532200Y-123117800D02*
X102532200Y-138247800D01*
X108900000Y-114250000D02*
X105400000Y-114250000D01*
X103800000Y-116758364D02*
X103800000Y-122675000D01*
X108900000Y-114900000D02*
X105658364Y-114900000D01*
X109000000Y-114900000D02*
X108900000Y-114900000D01*
X104958000Y-138362000D02*
X103745000Y-139575000D01*
X108900000Y-114900000D02*
X108925000Y-114925000D01*
X103800000Y-122675000D02*
X104958000Y-123833000D01*
X105658364Y-114900000D02*
X103800000Y-116758364D01*
X104958000Y-123833000D02*
X104958000Y-138362000D01*
X104650000Y-116800000D02*
X104650000Y-120800000D01*
X108900000Y-115550000D02*
X105900000Y-115550000D01*
X107500000Y-123650000D02*
X107500000Y-138360000D01*
X104650000Y-120800000D02*
X107500000Y-123650000D01*
X105900000Y-115550000D02*
X104650000Y-116800000D01*
X107500000Y-138360000D02*
X106285000Y-139575000D01*
X108900000Y-115550000D02*
X108925000Y-115575000D01*
X109000000Y-115550000D02*
X108900000Y-115550000D01*
X115118000Y-123833000D02*
X115118000Y-133282000D01*
X105400000Y-120300000D02*
X111585000Y-120300000D01*
X105400000Y-117050000D02*
X105400000Y-120300000D01*
X109000000Y-116200000D02*
X108900000Y-116200000D01*
X108900000Y-116200000D02*
X108925000Y-116225000D01*
X108900000Y-116200000D02*
X106250000Y-116200000D01*
X115118000Y-133282000D02*
X108825000Y-139575000D01*
X111585000Y-120300000D02*
X115118000Y-123833000D01*
X106250000Y-116200000D02*
X105400000Y-117050000D01*
X106200000Y-119600000D02*
X114000000Y-119600000D01*
X117658000Y-133282000D02*
X111365000Y-139575000D01*
X114000000Y-119600000D02*
X117658000Y-123258000D01*
X106200000Y-119600000D02*
X106200000Y-117307832D01*
X109000000Y-116850000D02*
X106657832Y-116850000D01*
X117658000Y-123258000D02*
X117658000Y-133282000D01*
X106200000Y-117307832D02*
X106657832Y-116850000D01*
X122512000Y-111475000D02*
X122612000Y-111575000D01*
X122612000Y-111475000D02*
X122512000Y-111475000D01*
X122612000Y-111575000D02*
X122612000Y-111475000D01*
X126050000Y-112300000D02*
X124694000Y-112300000D01*
X124694000Y-112300000D02*
X123338000Y-112300000D01*
X123338000Y-112300000D02*
X122612000Y-111575000D01*
X121812000Y-112275000D02*
X121712000Y-112275000D01*
X122388000Y-112950000D02*
X121812000Y-112375000D01*
X125912500Y-112950000D02*
X125937500Y-112975000D01*
X126050000Y-112950000D02*
X125912500Y-112950000D01*
X121812000Y-112375000D02*
X121812000Y-112275000D01*
X125912500Y-112950000D02*
X122388000Y-112950000D01*
X121712000Y-112275000D02*
X121812000Y-112375000D01*
X125912500Y-113600000D02*
X125937500Y-113625000D01*
X126050000Y-113600000D02*
X125912500Y-113600000D01*
X125912500Y-113600000D02*
X121662901Y-113600000D01*
X121662901Y-113600000D02*
X121161400Y-113098499D01*
X121112000Y-113147899D02*
X121161400Y-113098499D01*
X125912500Y-114250000D02*
X125937500Y-114275000D01*
X121399000Y-114250000D02*
X121298689Y-114350311D01*
X125912500Y-114250000D02*
X121399000Y-114250000D01*
X126050000Y-114250000D02*
X125912500Y-114250000D01*
X125912500Y-114900000D02*
X121788000Y-114900000D01*
X126050000Y-114900000D02*
X125912500Y-114900000D01*
X121788000Y-114900000D02*
X121312000Y-115375000D01*
X125912500Y-114900000D02*
X125937500Y-114925000D01*
X125912500Y-115550000D02*
X122538000Y-115550000D01*
X125912500Y-115550000D02*
X125937500Y-115575000D01*
X122538000Y-115550000D02*
X121812000Y-116275000D01*
X126050000Y-115550000D02*
X125912500Y-115550000D01*
X122852000Y-125662000D02*
X122852000Y-142187000D01*
X123088000Y-116200000D02*
X122312000Y-116975000D01*
X122852000Y-142187000D02*
X124765000Y-144100000D01*
X121525000Y-124335000D02*
X122852000Y-125662000D01*
X125912500Y-116200000D02*
X123088000Y-116200000D01*
X126050000Y-116200000D02*
X125912500Y-116200000D01*
X125912500Y-116200000D02*
X125937500Y-116225000D01*
X122631000Y-118175000D02*
X122612000Y-118175000D01*
X125937500Y-116875000D02*
X123931000Y-116875000D01*
X122612000Y-118194000D02*
X122556000Y-118250000D01*
X123931000Y-116875000D02*
X122631000Y-118175000D01*
X125350000Y-122750000D02*
X127305000Y-124705000D01*
X126094000Y-116875000D02*
X125937500Y-116875000D01*
X122612000Y-118175000D02*
X122612000Y-118194000D01*
X127305000Y-124705000D02*
X127305000Y-144100000D01*
X120570000Y-122750000D02*
X125350000Y-122750000D01*
X118985000Y-124335000D02*
X120570000Y-122750000D01*
X72193800Y-112800000D02*
X71118800Y-111725000D01*
X73656200Y-112800000D02*
X72193800Y-112800000D01*
X70943800Y-113450000D02*
X70218800Y-112725000D01*
X70218800Y-112725000D02*
X70218800Y-112625000D01*
X73612500Y-113450000D02*
X70943800Y-113450000D01*
X73612500Y-113450000D02*
X73637500Y-113475000D01*
X70218800Y-112625000D02*
X70118800Y-112625000D01*
X73656200Y-113450000D02*
X73612500Y-113450000D01*
X70118800Y-112625000D02*
X70218800Y-112725000D01*
X69318800Y-113425000D02*
X69418800Y-113525000D01*
X69418800Y-113525000D02*
X69418800Y-113425000D01*
X69993800Y-114100000D02*
X69418800Y-113525000D01*
X73612500Y-114100000D02*
X69993800Y-114100000D01*
X69418800Y-113425000D02*
X69318800Y-113425000D01*
X73656200Y-114100000D02*
X73612500Y-114100000D01*
X73612500Y-114100000D02*
X73637500Y-114125000D01*
X73612500Y-114750000D02*
X69154900Y-114750000D01*
X68734300Y-114409000D02*
X68814400Y-114409000D01*
X73612500Y-114750000D02*
X73637500Y-114775000D01*
X69154900Y-114750000D02*
X68814400Y-114409000D01*
X68718800Y-114425000D02*
X68734300Y-114409000D01*
X73656200Y-114750000D02*
X73612500Y-114750000D01*
X73612500Y-115400000D02*
X73637500Y-115425000D01*
X69053400Y-115400000D02*
X68714400Y-115739000D01*
X73612500Y-115400000D02*
X69053400Y-115400000D01*
X73656200Y-115400000D02*
X73612500Y-115400000D01*
X69650000Y-116400000D02*
X69650000Y-116750000D01*
X73656200Y-116050000D02*
X70000000Y-116050000D01*
X70000000Y-116050000D02*
X69650000Y-116400000D01*
X65300000Y-131150000D02*
X65250000Y-131200000D01*
X65250000Y-131200000D02*
X58200000Y-131200000D01*
X56050000Y-116310000D02*
X59000000Y-113360000D01*
X56050000Y-129050000D02*
X56050000Y-116310000D01*
X58200000Y-131200000D02*
X56050000Y-129050000D01*
X65300000Y-129300000D02*
X65300000Y-131150000D01*
X59523000Y-122243000D02*
X58477000Y-122243000D01*
X56950000Y-117950000D02*
X59000000Y-115900000D01*
X56950000Y-120716000D02*
X56950000Y-117950000D01*
X61230000Y-123950000D02*
X59523000Y-122243000D01*
X58477000Y-122243000D02*
X56950000Y-120716000D01*
X65300000Y-123950000D02*
X61230000Y-123950000D01*
X65300000Y-125750000D02*
X65300000Y-123950000D01*
X66650000Y-120850000D02*
X66650000Y-117800000D01*
X65300000Y-122200000D02*
X66650000Y-120850000D01*
X66650000Y-117800000D02*
X65750000Y-116900000D01*
X60540000Y-116900000D02*
X59000000Y-118440000D01*
X65750000Y-116900000D02*
X60540000Y-116900000D01*
X64037500Y-120980000D02*
X59000000Y-120980000D01*
X65300000Y-118650000D02*
X65300000Y-119718000D01*
X65300000Y-119718000D02*
X64037500Y-120980000D01*
X91637500Y-111675000D02*
X88637000Y-111675000D01*
X88637000Y-111675000D02*
X88345200Y-111383000D01*
X79362500Y-112825000D02*
X81368800Y-112825000D01*
X100412000Y-111025000D02*
X100431000Y-111025000D01*
X100431000Y-111006000D02*
X100488000Y-110950000D01*
X99112500Y-112325000D02*
X100412000Y-111025000D01*
X97362500Y-112325000D02*
X99112500Y-112325000D01*
X82687500Y-111525000D02*
X82687500Y-111506000D01*
X81368800Y-112825000D02*
X82668800Y-111525000D01*
X82687500Y-111506000D02*
X82743800Y-111450000D01*
X96950000Y-112325000D02*
X97362500Y-112325000D01*
X82668800Y-111525000D02*
X82687500Y-111525000D01*
X100431000Y-111025000D02*
X100431000Y-111006000D01*
X79206200Y-112825000D02*
X79362500Y-112825000D01*
X116531000Y-112300000D02*
X117831000Y-111000000D01*
X117850000Y-111000000D02*
X117850000Y-110981000D01*
X117850000Y-110981000D02*
X117906000Y-110925000D01*
X117831000Y-111000000D02*
X117850000Y-111000000D01*
X135000000Y-111000000D02*
X135000000Y-110981000D01*
X131519000Y-112300000D02*
X132600000Y-112300000D01*
X135000000Y-110981000D02*
X135056000Y-110925000D01*
X134981000Y-111000000D02*
X135000000Y-111000000D01*
X114369000Y-112300000D02*
X116531000Y-112300000D01*
X132600000Y-112300000D02*
X133681000Y-112300000D01*
X133681000Y-112300000D02*
X134981000Y-111000000D01*
X143200000Y-71000000D02*
X143150000Y-71000000D01*
X143162400Y-109002300D02*
X143162400Y-75391731D01*
X141364700Y-110800000D02*
X143162400Y-109002300D01*
X140100000Y-110800000D02*
X141364700Y-110800000D01*
X148700000Y-61480000D02*
X148700000Y-52400000D01*
X83620000Y-51200000D02*
X80800000Y-54020000D01*
X147500000Y-51200000D02*
X83620000Y-51200000D01*
X146300000Y-63880000D02*
X148700000Y-61480000D01*
X143150000Y-75379331D02*
X143200000Y-71000000D01*
X148700000Y-52400000D02*
X147500000Y-51200000D01*
X143162400Y-75391731D02*
X143150000Y-75379331D01*
X65300000Y-115050000D02*
X65300000Y-115100000D01*
X65250000Y-115000000D02*
X65250000Y-113250000D01*
X140100000Y-120960000D02*
X138440000Y-119300000D01*
X65250000Y-115000000D02*
X65300000Y-115050000D01*
X65250000Y-115550000D02*
X65250000Y-115000000D01*
X65250000Y-113250000D02*
X64050000Y-113250000D01*
X138440000Y-119300000D02*
X130600000Y-119300000D01*
X65300000Y-110450000D02*
X64100000Y-109250000D01*
X65300000Y-111550000D02*
X65300000Y-110450000D01*
X58100000Y-140215000D02*
X62485000Y-144600000D01*
X58100000Y-134900000D02*
X58100000Y-140215000D01*
X64000000Y-118650000D02*
X62178920Y-118650000D01*
X58600000Y-134400000D02*
X58100000Y-134900000D01*
X60500000Y-134400000D02*
X58600000Y-134400000D01*
X62178920Y-118650000D02*
X62039460Y-118789460D01*
X60500000Y-135200000D02*
X59200000Y-135200000D01*
X58750000Y-138866400D02*
X62683600Y-142800000D01*
X59200000Y-135200000D02*
X58750000Y-135650000D01*
X63225000Y-142800000D02*
X65025000Y-144600000D01*
X58750000Y-135650000D02*
X58750000Y-138866400D01*
X62683600Y-142800000D02*
X63225000Y-142800000D01*
X60500000Y-136000000D02*
X59600000Y-136000000D01*
X59450000Y-138458700D02*
X62841300Y-141850000D01*
X63900000Y-122250000D02*
X63950000Y-122250000D01*
X63900000Y-122250000D02*
X61850000Y-122250000D01*
X64815000Y-141850000D02*
X67565000Y-144600000D01*
X59600000Y-136000000D02*
X59450000Y-136150000D01*
X59450000Y-136150000D02*
X59450000Y-138458700D01*
X63950000Y-122250000D02*
X64000000Y-122200000D01*
X62841300Y-141850000D02*
X64815000Y-141850000D01*
X63800000Y-140900000D02*
X66405000Y-140900000D01*
X62165720Y-125750000D02*
X61869090Y-126046630D01*
X60500000Y-136800000D02*
X60500000Y-137600000D01*
X66405000Y-140900000D02*
X70105000Y-144600000D01*
X60500000Y-137600000D02*
X63800000Y-140900000D01*
X64000000Y-125750000D02*
X62165720Y-125750000D01*
X63900000Y-129400000D02*
X64000000Y-129300000D01*
X65450000Y-134600000D02*
X63700000Y-132850000D01*
X63850000Y-129400000D02*
X61800000Y-129400000D01*
X57450000Y-134400000D02*
X57450000Y-140373500D01*
X70795000Y-146450000D02*
X72645000Y-144600000D01*
X59000000Y-132850000D02*
X57450000Y-134400000D01*
X57450000Y-140373500D02*
X60600000Y-143523500D01*
X60600000Y-143523500D02*
X60600000Y-145550000D01*
X61500000Y-146450000D02*
X70795000Y-146450000D01*
X63850000Y-129400000D02*
X63900000Y-129400000D01*
X63700000Y-132850000D02*
X59000000Y-132850000D01*
X60600000Y-145550000D02*
X61500000Y-146450000D01*
X60750000Y-147100000D02*
X72685000Y-147100000D01*
X59700000Y-146050000D02*
X60750000Y-147100000D01*
X72685000Y-147100000D02*
X75185000Y-144600000D01*
X58600000Y-132200000D02*
X56750000Y-134050000D01*
X56750000Y-134050000D02*
X56750000Y-140900000D01*
X67900000Y-132200000D02*
X58600000Y-132200000D01*
X56750000Y-140900000D02*
X59700000Y-143850000D01*
X70200000Y-134500000D02*
X67900000Y-132200000D01*
X59700000Y-143850000D02*
X59700000Y-146050000D01*
X61915414Y-111550000D02*
X61907800Y-111542386D01*
X64000000Y-111550000D02*
X61915414Y-111550000D01*
X63950000Y-115150000D02*
X64000000Y-115100000D01*
X63950000Y-115150000D02*
X61900000Y-115150000D01*
M02*
