G04 #@! TF.GenerationSoftware,KiCad,Pcbnew,7.0.11-7.0.11~ubuntu22.04.1*
G04 #@! TF.CreationDate,2024-09-18T23:24:04-04:00*
G04 #@! TF.ProjectId,tfr903d,74667239-3033-4642-9e6b-696361645f70,2024-09-18*
G04 #@! TF.SameCoordinates,Original*
G04 #@! TF.FileFunction,Copper,L2,Inr*
G04 #@! TF.FilePolarity,Positive*
%FSLAX46Y46*%
G04 Gerber Fmt 4.6, Leading zero omitted, Abs format (unit mm)*
G04 Created by KiCad (PCBNEW 7.0.11-7.0.11~ubuntu22.04.1) date 2024-09-18 23:24:04*
%MOMM*%
%LPD*%
G01*
G04 APERTURE LIST*
G04 #@! TA.AperFunction,ComponentPad*
%ADD10O,1.700000X1.700000*%
G04 #@! TD*
G04 #@! TA.AperFunction,ComponentPad*
%ADD11R,1.700000X1.700000*%
G04 #@! TD*
G04 #@! TA.AperFunction,ComponentPad*
%ADD12C,5.000000*%
G04 #@! TD*
G04 #@! TA.AperFunction,ComponentPad*
%ADD13R,1.600000X1.600000*%
G04 #@! TD*
G04 #@! TA.AperFunction,ComponentPad*
%ADD14O,1.600000X1.600000*%
G04 #@! TD*
G04 #@! TA.AperFunction,ViaPad*
%ADD15C,0.558800*%
G04 #@! TD*
G04 #@! TA.AperFunction,Conductor*
%ADD16C,0.635000*%
G04 #@! TD*
G04 #@! TA.AperFunction,Conductor*
%ADD17C,0.317600*%
G04 #@! TD*
G04 #@! TA.AperFunction,Conductor*
%ADD18C,0.317500*%
G04 #@! TD*
G04 APERTURE END LIST*
D10*
X90995000Y-53960000D03*
X90995000Y-56500000D03*
D11*
X90995000Y-59040000D03*
D10*
X90995000Y-61580000D03*
X90995000Y-64120000D03*
X90995000Y-66660000D03*
X90995000Y-69200000D03*
D11*
X90995000Y-71740000D03*
D10*
X90995000Y-74280000D03*
X90995000Y-76820000D03*
X90995000Y-79360000D03*
X90995000Y-81900000D03*
D11*
X90995000Y-84440000D03*
D10*
X90995000Y-86980000D03*
X90995000Y-89520000D03*
X90995000Y-92060000D03*
X90995000Y-94600000D03*
D11*
X90995000Y-97140000D03*
D10*
X90995000Y-99680000D03*
X90995000Y-102220000D03*
X108775000Y-102220000D03*
X108775000Y-99680000D03*
D11*
X108775000Y-97140000D03*
D10*
X108775000Y-94600000D03*
X108775000Y-92060000D03*
X108775000Y-89520000D03*
X108775000Y-86980000D03*
D11*
X108775000Y-84440000D03*
D10*
X108775000Y-81900000D03*
X108775000Y-79360000D03*
X108775000Y-76820000D03*
X108775000Y-74280000D03*
D11*
X108775000Y-71740000D03*
D10*
X108775000Y-69200000D03*
X108775000Y-66660000D03*
X108775000Y-64120000D03*
X108775000Y-61580000D03*
D11*
X108775000Y-59040000D03*
D10*
X108775000Y-56500000D03*
X108775000Y-53960000D03*
X100469100Y-83690000D03*
D11*
X103009100Y-83690000D03*
D10*
X105549100Y-83690000D03*
D11*
X53800000Y-118080000D03*
D10*
X53800000Y-120620000D03*
X53800000Y-123160000D03*
X53800000Y-125700000D03*
X53800000Y-128240000D03*
X53800000Y-130780000D03*
X53800000Y-133320000D03*
X53800000Y-135860000D03*
D11*
X140100000Y-110800000D03*
D10*
X140100000Y-113340000D03*
X140100000Y-115880000D03*
X140100000Y-118420000D03*
X140100000Y-120960000D03*
X140100000Y-123500000D03*
X140100000Y-126040000D03*
X140100000Y-128580000D03*
D11*
X62485000Y-144600000D03*
D10*
X65025000Y-144600000D03*
X67565000Y-144600000D03*
X70105000Y-144600000D03*
X72645000Y-144600000D03*
X75185000Y-144600000D03*
X77725000Y-144600000D03*
X80265000Y-144600000D03*
D12*
X55195900Y-145095900D03*
D11*
X146300000Y-63880000D03*
D10*
X146300000Y-66420000D03*
X146300000Y-68960000D03*
X146300000Y-71500000D03*
X146300000Y-74040000D03*
X146300000Y-76580000D03*
X146300000Y-79120000D03*
X146300000Y-81660000D03*
D12*
X144565000Y-55240000D03*
D11*
X53790000Y-65240000D03*
D10*
X53790000Y-67780000D03*
X53790000Y-70320000D03*
X53790000Y-72860000D03*
X53790000Y-75400000D03*
X53790000Y-77940000D03*
X53790000Y-80480000D03*
X53790000Y-83020000D03*
D11*
X146800000Y-111980000D03*
D10*
X146800000Y-114520000D03*
X146800000Y-117060000D03*
X146800000Y-119600000D03*
X146800000Y-122140000D03*
X146800000Y-124680000D03*
X146800000Y-127220000D03*
X146800000Y-129760000D03*
D11*
X131800000Y-125780000D03*
D10*
X131800000Y-128320000D03*
X131800000Y-130860000D03*
X131800000Y-133400000D03*
X131800000Y-135940000D03*
X131800000Y-138480000D03*
X131800000Y-141020000D03*
X131800000Y-143560000D03*
D11*
X139180000Y-133800000D03*
D10*
X141720000Y-133800000D03*
X144260000Y-133800000D03*
X146800000Y-133800000D03*
D13*
X75805000Y-139575000D03*
D14*
X78345000Y-139575000D03*
X80885000Y-139575000D03*
X83425000Y-139575000D03*
X85965000Y-139575000D03*
X88505000Y-139575000D03*
X91045000Y-139575000D03*
X93585000Y-139575000D03*
X96125000Y-139575000D03*
X98665000Y-139575000D03*
X101205000Y-139575000D03*
X103745000Y-139575000D03*
X106285000Y-139575000D03*
X108825000Y-139575000D03*
X111365000Y-139575000D03*
X113905000Y-139575000D03*
X116445000Y-139575000D03*
X118985000Y-139575000D03*
X121525000Y-139575000D03*
X124065000Y-139575000D03*
X124065000Y-124335000D03*
X121525000Y-124335000D03*
X118985000Y-124335000D03*
X116445000Y-124335000D03*
X113905000Y-124335000D03*
X111365000Y-124335000D03*
X108825000Y-124335000D03*
X106285000Y-124335000D03*
X103745000Y-124335000D03*
X101205000Y-124335000D03*
X98665000Y-124335000D03*
X96125000Y-124335000D03*
X93585000Y-124335000D03*
X91045000Y-124335000D03*
X88505000Y-124335000D03*
X85965000Y-124335000D03*
X83425000Y-124335000D03*
X80885000Y-124335000D03*
X78345000Y-124335000D03*
X75805000Y-124335000D03*
D10*
X119035000Y-53940000D03*
X119035000Y-56480000D03*
D11*
X119035000Y-59020000D03*
D10*
X119035000Y-61560000D03*
X119035000Y-64100000D03*
X119035000Y-66640000D03*
X119035000Y-69180000D03*
D11*
X119035000Y-71720000D03*
D10*
X119035000Y-74260000D03*
X119035000Y-76800000D03*
X119035000Y-79340000D03*
X119035000Y-81880000D03*
D11*
X119035000Y-84420000D03*
D10*
X119035000Y-86960000D03*
X119035000Y-89500000D03*
X119035000Y-92040000D03*
X119035000Y-94580000D03*
D11*
X119035000Y-97120000D03*
D10*
X119035000Y-99660000D03*
X119035000Y-102200000D03*
X136815000Y-102200000D03*
X136815000Y-99660000D03*
D11*
X136815000Y-97120000D03*
D10*
X136815000Y-94580000D03*
X136815000Y-92040000D03*
X136815000Y-89500000D03*
X136815000Y-86960000D03*
D11*
X136815000Y-84420000D03*
D10*
X136815000Y-81880000D03*
X136815000Y-79340000D03*
X136815000Y-76800000D03*
X136815000Y-74260000D03*
D11*
X136815000Y-71720000D03*
D10*
X136815000Y-69180000D03*
X136815000Y-66640000D03*
X136815000Y-64100000D03*
X136815000Y-61560000D03*
D11*
X136815000Y-59020000D03*
D10*
X136815000Y-56480000D03*
X136815000Y-53940000D03*
X128509100Y-83670000D03*
D11*
X131049100Y-83670000D03*
D10*
X133589100Y-83670000D03*
D11*
X109525000Y-144100000D03*
D10*
X112065000Y-144100000D03*
X114605000Y-144100000D03*
X117145000Y-144100000D03*
X119685000Y-144100000D03*
X122225000Y-144100000D03*
X124765000Y-144100000D03*
X127305000Y-144100000D03*
D11*
X53790000Y-89710000D03*
D10*
X53790000Y-92250000D03*
X53790000Y-94790000D03*
X53790000Y-97330000D03*
X53790000Y-99870000D03*
X53790000Y-102410000D03*
X53790000Y-104950000D03*
X53790000Y-107490000D03*
D11*
X85525000Y-144100000D03*
D10*
X88065000Y-144100000D03*
X90605000Y-144100000D03*
X93145000Y-144100000D03*
X95685000Y-144100000D03*
X98225000Y-144100000D03*
X100765000Y-144100000D03*
X103305000Y-144100000D03*
D12*
X55505900Y-55234100D03*
X144735000Y-144760000D03*
D11*
X59000000Y-110820000D03*
D10*
X59000000Y-113360000D03*
X59000000Y-115900000D03*
X59000000Y-118440000D03*
X59000000Y-120980000D03*
X59000000Y-123520000D03*
X59000000Y-126060000D03*
X59000000Y-128600000D03*
X63020000Y-54020000D03*
X63020000Y-56560000D03*
D11*
X63020000Y-59100000D03*
D10*
X63020000Y-61640000D03*
X63020000Y-64180000D03*
X63020000Y-66720000D03*
X63020000Y-69260000D03*
D11*
X63020000Y-71800000D03*
D10*
X63020000Y-74340000D03*
X63020000Y-76880000D03*
X63020000Y-79420000D03*
X63020000Y-81960000D03*
D11*
X63020000Y-84500000D03*
D10*
X63020000Y-87040000D03*
X63020000Y-89580000D03*
X63020000Y-92120000D03*
X63020000Y-94660000D03*
D11*
X63020000Y-97200000D03*
D10*
X63020000Y-99740000D03*
X63020000Y-102280000D03*
X80800000Y-102280000D03*
X80800000Y-99740000D03*
D11*
X80800000Y-97200000D03*
D10*
X80800000Y-94660000D03*
X80800000Y-92120000D03*
X80800000Y-89580000D03*
X80800000Y-87040000D03*
D11*
X80800000Y-84500000D03*
D10*
X80800000Y-81960000D03*
X80800000Y-79420000D03*
X80800000Y-76880000D03*
X80800000Y-74340000D03*
D11*
X80800000Y-71800000D03*
D10*
X80800000Y-69260000D03*
X80800000Y-66720000D03*
X80800000Y-64180000D03*
X80800000Y-61640000D03*
D11*
X80800000Y-59100000D03*
D10*
X80800000Y-56560000D03*
X80800000Y-54020000D03*
X72494100Y-83750000D03*
D11*
X75034100Y-83750000D03*
D10*
X77574100Y-83750000D03*
D11*
X146400000Y-87720000D03*
D10*
X146400000Y-90260000D03*
X146400000Y-92800000D03*
X146400000Y-95340000D03*
X146400000Y-97880000D03*
X146400000Y-100420000D03*
X146400000Y-102960000D03*
X146400000Y-105500000D03*
D15*
X74150000Y-107500000D03*
X72100000Y-129400000D03*
X125650000Y-108800000D03*
X109300000Y-106700000D03*
X111650000Y-109302500D03*
X91250000Y-106650000D03*
X126850000Y-105850000D03*
X91700000Y-109500000D03*
X115151600Y-96185700D03*
X134320800Y-130182500D03*
X127225400Y-75530000D03*
X141294100Y-108807100D03*
X118156000Y-112194000D03*
X100471000Y-111967000D03*
X105350000Y-55650000D03*
X100540000Y-112782000D03*
X118650000Y-112900000D03*
X119150000Y-113800000D03*
X83358600Y-106661900D03*
X100918000Y-113505000D03*
X95050000Y-116450000D03*
X119650000Y-114800000D03*
X101415000Y-114148000D03*
X87214600Y-76746600D03*
X104109400Y-67922800D03*
X101066000Y-115682000D03*
X119450000Y-116000000D03*
X118650000Y-116900000D03*
X100693000Y-116707800D03*
X99550000Y-117400000D03*
X117850000Y-117700000D03*
X106242800Y-75542800D03*
X99531200Y-118607800D03*
X116950000Y-118600000D03*
X135300000Y-112200000D03*
X82987500Y-112725000D03*
X132092200Y-98098400D03*
X135800000Y-112900000D03*
X83487500Y-113425000D03*
X83987500Y-114325000D03*
X136300000Y-113800000D03*
X136800000Y-114800000D03*
X133802300Y-107029000D03*
X84487500Y-115325000D03*
X136600000Y-116000000D03*
X84287500Y-116525000D03*
X135800000Y-116900000D03*
X83487500Y-117425000D03*
X82687500Y-118225000D03*
X135000000Y-117700000D03*
X81787500Y-119125000D03*
X134100000Y-118600000D03*
X81467900Y-105372700D03*
X87758100Y-111945000D03*
X86700000Y-112050000D03*
X86600000Y-113200000D03*
X86400000Y-114400000D03*
X86660600Y-115639000D03*
X87360600Y-116339000D03*
X87903500Y-117017000D03*
X88200000Y-118200000D03*
X106462000Y-111225000D03*
X122612000Y-111475000D03*
X121812000Y-112275000D03*
X121161400Y-113098499D03*
X121298689Y-114350311D03*
X121312000Y-115375000D03*
X121812000Y-116275000D03*
X122312000Y-116975000D03*
X122612000Y-118175000D03*
X71118800Y-111725000D03*
X70218800Y-112625000D03*
X69418800Y-113425000D03*
X68814400Y-114409000D03*
X68714400Y-115739000D03*
X69650000Y-116750000D03*
X83494900Y-109252600D03*
X88345200Y-111383000D03*
X82687500Y-111525000D03*
X100431000Y-111025000D03*
X135000000Y-111000000D03*
X117850000Y-111000000D03*
X110100000Y-132150000D03*
X143200000Y-71000000D03*
X137873700Y-105332300D03*
X130600000Y-119300000D03*
X147765900Y-84669900D03*
X64050000Y-113250000D03*
X144011000Y-111390700D03*
X64100000Y-109250000D03*
X147633700Y-77844700D03*
X62039460Y-118789460D03*
X61850000Y-122250000D03*
X61869090Y-126046630D03*
X61800000Y-129400000D03*
X87150000Y-132400000D03*
X61907800Y-111542386D03*
X84897800Y-132052000D03*
X61900000Y-115150000D03*
D16*
X103850000Y-141850000D02*
X108200000Y-146200000D01*
X67800000Y-113750643D02*
X67800000Y-116200000D01*
D17*
X76700000Y-122800000D02*
X76700000Y-122350000D01*
D16*
X108200000Y-146200000D02*
X134400000Y-146200000D01*
X67800000Y-116200000D02*
X73950000Y-122350000D01*
X105850000Y-148550000D02*
X108200000Y-146200000D01*
X53350000Y-51650000D02*
X51650000Y-53350000D01*
X75890000Y-51650000D02*
X53350000Y-51650000D01*
X93320000Y-141850000D02*
X103850000Y-141850000D01*
X51650000Y-53350000D02*
X51650000Y-146950000D01*
X73950000Y-122350000D02*
X76700000Y-122350000D01*
X86420000Y-134950000D02*
X78300000Y-134950000D01*
X91045000Y-139575000D02*
X86420000Y-134950000D01*
X51650000Y-146950000D02*
X53250000Y-148550000D01*
X74050643Y-107500000D02*
X67800000Y-113750643D01*
X53250000Y-148550000D02*
X105850000Y-148550000D01*
X134400000Y-146200000D02*
X146800000Y-133800000D01*
X91045000Y-139575000D02*
X93320000Y-141850000D01*
X80800000Y-56560000D02*
X75890000Y-51650000D01*
D17*
X77695100Y-126095100D02*
X78300000Y-126700000D01*
D16*
X74150000Y-107500000D02*
X74050643Y-107500000D01*
X78300000Y-134950000D02*
X78300000Y-126700000D01*
D17*
X77100000Y-123200000D02*
X76700000Y-122800000D01*
X77100000Y-126095100D02*
X77695100Y-126095100D01*
X77100000Y-126095100D02*
X77100000Y-123200000D01*
X108235600Y-75550000D02*
X109303300Y-75550000D01*
X108775000Y-64120000D02*
X106200000Y-66695000D01*
X109303300Y-75550000D02*
X115151600Y-81398300D01*
X106200000Y-73514400D02*
X108235600Y-75550000D01*
X106200000Y-66695000D02*
X106200000Y-73514400D01*
X115151600Y-81398300D02*
X115151600Y-96185700D01*
X144800000Y-116700000D02*
X145715300Y-115784700D01*
X142067500Y-130182500D02*
X144800000Y-127450000D01*
X148780700Y-73980700D02*
X146300000Y-71500000D01*
X144800000Y-127450000D02*
X144800000Y-116700000D01*
X148659700Y-83581200D02*
X148780700Y-83460200D01*
X145715300Y-115784700D02*
X148265300Y-115784700D01*
X134320800Y-130182500D02*
X142067500Y-130182500D01*
X148265300Y-115784700D02*
X148659700Y-115390300D01*
X148780700Y-83460200D02*
X148780700Y-73980700D01*
X148659700Y-115390300D02*
X148659700Y-83581200D01*
X108775000Y-69200000D02*
X117645000Y-78070000D01*
X121250000Y-82100000D02*
X133500000Y-94350000D01*
X144288700Y-112650000D02*
X146130000Y-112650000D01*
X140101200Y-109501200D02*
X141139900Y-109501200D01*
X141139900Y-109501200D02*
X144288700Y-112650000D01*
X133500000Y-102900000D02*
X140101200Y-109501200D01*
X133500000Y-94350000D02*
X133500000Y-102900000D01*
X117645000Y-78070000D02*
X119608100Y-78070000D01*
X146130000Y-112650000D02*
X146800000Y-111980000D01*
X119608100Y-78070000D02*
X121250000Y-79711900D01*
X121250000Y-79711900D02*
X121250000Y-82100000D01*
X134900000Y-92800000D02*
X126900000Y-84800000D01*
X134900000Y-102450000D02*
X134900000Y-92800000D01*
X136620200Y-104170200D02*
X134900000Y-102450000D01*
X141294100Y-107731900D02*
X137732400Y-104170200D01*
X137732400Y-104170200D02*
X136620200Y-104170200D01*
X126900000Y-84800000D02*
X126900000Y-75855400D01*
X141294100Y-108807100D02*
X141294100Y-107731900D01*
X126900000Y-75855400D02*
X127225400Y-75530000D01*
X101550000Y-90900000D02*
X101550000Y-110888000D01*
X95200000Y-84550000D02*
X101550000Y-90900000D01*
X101550000Y-110888000D02*
X100471000Y-111967000D01*
X95200000Y-57450000D02*
X95200000Y-84550000D01*
X91710000Y-53960000D02*
X95200000Y-57450000D01*
X90995000Y-53960000D02*
X91710000Y-53960000D01*
X102550000Y-90100000D02*
X96400000Y-83950000D01*
X102550000Y-112200000D02*
X102550000Y-90100000D01*
X100540000Y-112782000D02*
X101968000Y-112782000D01*
X101968000Y-112782000D02*
X102550000Y-112200000D01*
X96400000Y-73000000D02*
X105350000Y-64050000D01*
X105350000Y-64050000D02*
X105350000Y-55650000D01*
X96400000Y-83950000D02*
X96400000Y-73000000D01*
X84200000Y-67200000D02*
X84200000Y-105820500D01*
X89820000Y-61580000D02*
X84200000Y-67200000D01*
X84200000Y-105820500D02*
X83358600Y-106661900D01*
X90995000Y-61580000D02*
X89820000Y-61580000D01*
X101357600Y-114205400D02*
X101415000Y-114148000D01*
X96250000Y-87450000D02*
X96250000Y-109894300D01*
X94300000Y-85500000D02*
X96250000Y-87450000D01*
X96250000Y-109894300D02*
X100561100Y-114205400D01*
X100561100Y-114205400D02*
X101357600Y-114205400D01*
X90995000Y-64120000D02*
X94300000Y-67425000D01*
X94300000Y-67425000D02*
X94300000Y-85500000D01*
X101066000Y-115682000D02*
X103550000Y-113198000D01*
X87214600Y-70335400D02*
X87214600Y-76746600D01*
X103550000Y-89500000D02*
X98250000Y-84200000D01*
X103550000Y-113198000D02*
X103550000Y-89500000D01*
X90995000Y-66660000D02*
X90890000Y-66660000D01*
X98250000Y-84200000D02*
X98250000Y-73782200D01*
X90890000Y-66660000D02*
X87214600Y-70335400D01*
X98250000Y-73782200D02*
X104109400Y-67922800D01*
X94750000Y-87850000D02*
X94750000Y-110764800D01*
X94750000Y-110764800D02*
X100693000Y-116707800D01*
X93600000Y-71805000D02*
X93600000Y-86700000D01*
X93600000Y-86700000D02*
X94750000Y-87850000D01*
X90995000Y-69200000D02*
X93600000Y-71805000D01*
X106950000Y-76250000D02*
X106950000Y-85412400D01*
X100997500Y-117700000D02*
X99850000Y-117700000D01*
X104650000Y-114047500D02*
X100997500Y-117700000D01*
X99850000Y-117700000D02*
X99550000Y-117400000D01*
X106242800Y-75542800D02*
X106950000Y-76250000D01*
X104650000Y-87712400D02*
X104650000Y-114047500D01*
X106950000Y-85412400D02*
X104650000Y-87712400D01*
X92850000Y-88749600D02*
X93900000Y-89799600D01*
X92850000Y-78675000D02*
X92850000Y-88749600D01*
X90995000Y-76820000D02*
X92850000Y-78675000D01*
X93900000Y-112976600D02*
X99531200Y-118607800D01*
X93900000Y-89799600D02*
X93900000Y-112976600D01*
X83700000Y-112012500D02*
X83700000Y-110200000D01*
X82987500Y-112725000D02*
X83700000Y-112012500D01*
X85300000Y-108600000D02*
X85300000Y-85055000D01*
X83700000Y-110200000D02*
X85300000Y-108600000D01*
X85300000Y-85055000D02*
X90995000Y-79360000D01*
X86350000Y-86545000D02*
X90995000Y-81900000D01*
X83487500Y-113425000D02*
X84400000Y-112512500D01*
X84400000Y-112512500D02*
X84400000Y-110600000D01*
X129550000Y-92395000D02*
X129550000Y-99950000D01*
X119035000Y-81880000D02*
X129550000Y-92395000D01*
X129550000Y-99950000D02*
X136029400Y-106429400D01*
X136029400Y-106429400D02*
X136029400Y-112670600D01*
X136029400Y-112670600D02*
X135800000Y-112900000D01*
X84400000Y-110600000D02*
X86350000Y-108650000D01*
X86350000Y-108650000D02*
X86350000Y-86545000D01*
X83987500Y-114325000D02*
X85050000Y-113262500D01*
X85050000Y-111050000D02*
X87100000Y-109000000D01*
X134496400Y-107316600D02*
X134259400Y-107553600D01*
X134496400Y-106246400D02*
X134496400Y-107316600D01*
X128100000Y-96025000D02*
X128100000Y-99850000D01*
X87100000Y-109000000D02*
X87100000Y-90875000D01*
X134259400Y-112079600D02*
X134592000Y-112412200D01*
X134592000Y-112412200D02*
X134592000Y-112673600D01*
X134592000Y-112673600D02*
X135718400Y-113800000D01*
X85050000Y-113262500D02*
X85050000Y-111050000D01*
X134259400Y-107553600D02*
X134259400Y-112079600D01*
X87100000Y-90875000D02*
X90995000Y-86980000D01*
X128100000Y-99850000D02*
X134496400Y-106246400D01*
X135718400Y-113800000D02*
X136300000Y-113800000D01*
X119035000Y-86960000D02*
X128100000Y-96025000D01*
X87800000Y-92715000D02*
X90995000Y-89520000D01*
X85787400Y-114025100D02*
X85787400Y-111562600D01*
X127434366Y-100661066D02*
X133802300Y-107029000D01*
X84487500Y-115325000D02*
X85787400Y-114025100D01*
X87800000Y-109550000D02*
X87800000Y-92715000D01*
X119035000Y-89500000D02*
X127434366Y-97899366D01*
X127434366Y-97899366D02*
X127434366Y-100661066D01*
X85787400Y-111562600D02*
X87800000Y-109550000D01*
X89350000Y-109300000D02*
X89350000Y-118600000D01*
X89350000Y-118600000D02*
X88700000Y-119250000D01*
X134018500Y-112679200D02*
X134018500Y-113418500D01*
X119035000Y-92135000D02*
X120577100Y-93677100D01*
X88600000Y-94100000D02*
X88600000Y-108550000D01*
X133602200Y-107810500D02*
X133602200Y-112262900D01*
X120577100Y-93677100D02*
X120577100Y-94785400D01*
X90995000Y-92060000D02*
X90640000Y-92060000D01*
X87012500Y-119250000D02*
X84287500Y-116525000D01*
X90640000Y-92060000D02*
X88600000Y-94100000D01*
X119035000Y-92040000D02*
X119035000Y-92135000D01*
X120577100Y-94785400D02*
X133602200Y-107810500D01*
X134018500Y-113418500D02*
X136600000Y-116000000D01*
X88600000Y-108550000D02*
X89350000Y-109300000D01*
X88700000Y-119250000D02*
X87012500Y-119250000D01*
X133602200Y-112262900D02*
X134018500Y-112679200D01*
X133399900Y-114499900D02*
X135800000Y-116900000D01*
X90200000Y-120200000D02*
X90200000Y-106000000D01*
X133399900Y-112871800D02*
X133399900Y-114499900D01*
X86262500Y-120200000D02*
X90200000Y-120200000D01*
X89350000Y-105150000D02*
X89350000Y-96245000D01*
X133028700Y-112500600D02*
X133399900Y-112871800D01*
X89350000Y-96245000D02*
X90995000Y-94600000D01*
X119035000Y-94580000D02*
X133028700Y-108573700D01*
X133028700Y-108573700D02*
X133028700Y-112500600D01*
X90200000Y-106000000D02*
X89350000Y-105150000D01*
X83487500Y-117425000D02*
X86262500Y-120200000D01*
X85512500Y-121050000D02*
X90400000Y-121050000D01*
X82687500Y-118225000D02*
X85512500Y-121050000D01*
X119556900Y-100924700D02*
X132826400Y-114194200D01*
X119035000Y-100924700D02*
X119556900Y-100924700D01*
X132826400Y-115526400D02*
X135000000Y-117700000D01*
X92600000Y-101285000D02*
X90995000Y-99680000D01*
X90400000Y-121050000D02*
X92600000Y-118850000D01*
X119035000Y-99660000D02*
X119035000Y-100924700D01*
X132826400Y-114194200D02*
X132826400Y-115526400D01*
X92600000Y-118850000D02*
X92600000Y-101285000D01*
X81787500Y-119125000D02*
X81419800Y-118757300D01*
X134100000Y-118600000D02*
X119035000Y-103535000D01*
X81419800Y-118757300D02*
X81419800Y-105420800D01*
X119035000Y-103535000D02*
X119035000Y-102200000D01*
X81419800Y-105420800D02*
X81467900Y-105372700D01*
X105015000Y-126930300D02*
X105015000Y-122413600D01*
X93585000Y-138360300D02*
X105015000Y-126930300D01*
X105015000Y-122413600D02*
X106462000Y-120966600D01*
X93585000Y-139575000D02*
X93585000Y-138360300D01*
X106462000Y-120966600D02*
X106462000Y-111225000D01*
X112663300Y-137118600D02*
X112663300Y-114239100D01*
X113905000Y-139575000D02*
X113905000Y-138360300D01*
X120771400Y-109634400D02*
X122612000Y-111475000D01*
X113905000Y-138360300D02*
X112663300Y-137118600D01*
X117268000Y-109634400D02*
X120771400Y-109634400D01*
X112663300Y-114239100D02*
X117268000Y-109634400D01*
X116445000Y-138360300D02*
X115175000Y-137090300D01*
X117548200Y-110259300D02*
X119796300Y-110259300D01*
X119796300Y-110259300D02*
X121812000Y-112275000D01*
X115175000Y-112632500D02*
X117548200Y-110259300D01*
X116445000Y-139575000D02*
X116445000Y-138360300D01*
X115175000Y-137090300D02*
X115175000Y-112632500D01*
X118985000Y-139575000D02*
X121560000Y-142150000D01*
X128000000Y-141050000D02*
X128000000Y-119982900D01*
X121161400Y-113144300D02*
X121161400Y-113098499D01*
X121560000Y-142150000D02*
X126900000Y-142150000D01*
X128000000Y-119982900D02*
X121161400Y-113144300D01*
X126900000Y-142150000D02*
X128000000Y-141050000D01*
X121557300Y-114375000D02*
X126050000Y-118867700D01*
X126050000Y-118867700D02*
X126050000Y-141000000D01*
X122950000Y-141000000D02*
X121525000Y-139575000D01*
X126050000Y-141000000D02*
X122950000Y-141000000D01*
X124065000Y-138360300D02*
X117765900Y-132061200D01*
X117765900Y-132061200D02*
X117765900Y-118921100D01*
X124065000Y-139575000D02*
X124065000Y-138360300D01*
X117765900Y-118921100D02*
X121312000Y-115375000D01*
X122603000Y-116275000D02*
X121812000Y-116275000D01*
X124065000Y-124335000D02*
X124065000Y-117737000D01*
X124065000Y-117737000D02*
X122603000Y-116275000D01*
X121525000Y-124335000D02*
X121525000Y-123120300D01*
X121525000Y-123120300D02*
X123357700Y-121287600D01*
X123357700Y-117882300D02*
X122450400Y-116975000D01*
X123357700Y-121287600D02*
X123357700Y-117882300D01*
X122450400Y-116975000D02*
X122312000Y-116975000D01*
X122612000Y-118175000D02*
X118985000Y-121802000D01*
X118985000Y-121802000D02*
X118985000Y-124335000D01*
X73775000Y-112625000D02*
X70218800Y-112625000D01*
X85965000Y-124335000D02*
X85485000Y-124335000D01*
X85485000Y-124335000D02*
X73775000Y-112625000D01*
X80885000Y-124135000D02*
X70175000Y-113425000D01*
X70175000Y-113425000D02*
X69418800Y-113425000D01*
X80885000Y-124335000D02*
X80885000Y-124135000D01*
X65400000Y-84660000D02*
X80800000Y-69260000D01*
X62496931Y-88317200D02*
X63717200Y-88317200D01*
X65400000Y-86634400D02*
X65400000Y-84660000D01*
X63717200Y-88317200D02*
X65400000Y-86634400D01*
X59000000Y-91814131D02*
X62496931Y-88317200D01*
X59000000Y-110820000D02*
X59000000Y-91814131D01*
X60262800Y-93091331D02*
X62496931Y-90857200D01*
X62496931Y-90857200D02*
X64657200Y-90857200D01*
X64700000Y-90900000D02*
X66465100Y-89134900D01*
X77260000Y-74340000D02*
X80800000Y-74340000D01*
X59000000Y-113360000D02*
X60262800Y-112097200D01*
X66465100Y-85134900D02*
X77260000Y-74340000D01*
X64657200Y-90857200D02*
X64700000Y-90900000D01*
X66465100Y-89134900D02*
X66465100Y-85134900D01*
X60262800Y-112097200D02*
X60262800Y-93091331D01*
X60834400Y-113465600D02*
X60834400Y-95059731D01*
X67731600Y-85518400D02*
X76370000Y-76880000D01*
X59000000Y-115300000D02*
X60834400Y-113465600D01*
X76370000Y-76880000D02*
X80800000Y-76880000D01*
X60834400Y-95059731D02*
X62496931Y-93397200D01*
X63528669Y-93397200D02*
X67731600Y-89194269D01*
X67731600Y-89194269D02*
X67731600Y-85518400D01*
X59000000Y-115900000D02*
X59000000Y-115300000D01*
X62496931Y-93397200D02*
X63528669Y-93397200D01*
X62600000Y-106200000D02*
X70850000Y-97950000D01*
X59000000Y-118440000D02*
X60262800Y-117177200D01*
X70850000Y-94877200D02*
X79050000Y-86677200D01*
X70850000Y-97950000D02*
X70850000Y-94877200D01*
X79050000Y-83710000D02*
X80800000Y-81960000D01*
X60262800Y-115037200D02*
X62600000Y-112700000D01*
X79050000Y-86677200D02*
X79050000Y-83710000D01*
X62600000Y-112700000D02*
X62600000Y-106200000D01*
X60262800Y-117177200D02*
X60262800Y-115037200D01*
X59000000Y-120980000D02*
X59000000Y-120300000D01*
X72483500Y-104066500D02*
X72483500Y-95066500D01*
X66300000Y-110250000D02*
X72483500Y-104066500D01*
X66300000Y-116300000D02*
X66300000Y-110250000D01*
X63000000Y-116300000D02*
X66300000Y-116300000D01*
X72483500Y-95066500D02*
X80510000Y-87040000D01*
X59000000Y-120300000D02*
X63000000Y-116300000D01*
X80510000Y-87040000D02*
X80800000Y-87040000D01*
X83350000Y-105439700D02*
X82610500Y-106179200D01*
X80800000Y-89580000D02*
X83350000Y-92130000D01*
X83350000Y-92130000D02*
X83350000Y-105439700D01*
X82610500Y-106179200D02*
X82610500Y-108368200D01*
X82610500Y-108368200D02*
X83494900Y-109252600D01*
X80800000Y-92120000D02*
X82650000Y-93970000D01*
X82037000Y-110874500D02*
X82687500Y-111525000D01*
X82037000Y-105941600D02*
X82037000Y-110874500D01*
X82650000Y-105328600D02*
X82037000Y-105941600D01*
X82650000Y-93970000D02*
X82650000Y-105328600D01*
X60600000Y-126288700D02*
X60600000Y-122227200D01*
X60600000Y-122227200D02*
X63409800Y-119417400D01*
X77352800Y-102997200D02*
X77352800Y-98107200D01*
X63409800Y-116940200D02*
X66909800Y-116940200D01*
X59000000Y-128600000D02*
X59000000Y-127888700D01*
X66950000Y-116900000D02*
X66950000Y-113400000D01*
X77352800Y-98107200D02*
X80800000Y-94660000D01*
X66950000Y-113400000D02*
X77352800Y-102997200D01*
X59000000Y-127888700D02*
X60600000Y-126288700D01*
X63409800Y-119417400D02*
X63409800Y-116940200D01*
X66909800Y-116940200D02*
X66950000Y-116900000D01*
X107300000Y-94600000D02*
X106250000Y-95650000D01*
X106250000Y-95650000D02*
X106250000Y-106200000D01*
X106250000Y-106200000D02*
X110100000Y-110050000D01*
X108775000Y-94600000D02*
X107300000Y-94600000D01*
X110100000Y-110050000D02*
X110100000Y-132150000D01*
X146300000Y-63880000D02*
X147030000Y-63880000D01*
X144167200Y-67682800D02*
X143200000Y-68650000D01*
X147030000Y-63880000D02*
X148150000Y-65000000D01*
X148150000Y-67500000D02*
X147967200Y-67682800D01*
X143200000Y-68650000D02*
X143200000Y-71000000D01*
X148150000Y-65000000D02*
X148150000Y-67500000D01*
X147967200Y-67682800D02*
X144167200Y-67682800D01*
X134250000Y-93700000D02*
X134250000Y-102750000D01*
X123200000Y-79164700D02*
X123200000Y-82650000D01*
X109299100Y-55224700D02*
X113895000Y-59820600D01*
X108775000Y-53960000D02*
X108775000Y-55224700D01*
X118503800Y-75530000D02*
X119565300Y-75530000D01*
X119565300Y-75530000D02*
X123200000Y-79164700D01*
X113895000Y-59820600D02*
X113895000Y-70921200D01*
X108775000Y-55224700D02*
X109299100Y-55224700D01*
X136832300Y-105332300D02*
X137873700Y-105332300D01*
X123200000Y-82650000D02*
X134250000Y-93700000D01*
X113895000Y-70921200D02*
X118503800Y-75530000D01*
X134250000Y-102750000D02*
X136832300Y-105332300D01*
X140100000Y-128580000D02*
X139180000Y-128580000D01*
X116238500Y-102220000D02*
X108775000Y-102220000D01*
X135500000Y-124900000D02*
X135500000Y-121481500D01*
X139180000Y-128580000D02*
X135500000Y-124900000D01*
X135500000Y-121481500D02*
X116238500Y-102220000D01*
X147765900Y-84669900D02*
X148064700Y-84968700D01*
X145050100Y-113249900D02*
X142800000Y-115500000D01*
X147816600Y-113249900D02*
X145050100Y-113249900D01*
X148064700Y-113001800D02*
X147816600Y-113249900D01*
X142800000Y-115500000D02*
X142800000Y-118260000D01*
X142800000Y-118260000D02*
X140100000Y-120960000D01*
X148064700Y-84968700D02*
X148064700Y-113001800D01*
X147583100Y-80403100D02*
X147583100Y-82749800D01*
X144011000Y-86321900D02*
X144011000Y-111390700D01*
X147583100Y-82749800D02*
X144011000Y-86321900D01*
X146300000Y-79120000D02*
X147583100Y-80403100D01*
X146400000Y-87720000D02*
X146400000Y-86455300D01*
X146400000Y-84792300D02*
X146400000Y-86455300D01*
X148207200Y-78418200D02*
X148207200Y-82985100D01*
X148207200Y-82985100D02*
X146400000Y-84792300D01*
X147633700Y-77844700D02*
X148207200Y-78418200D01*
X62485000Y-144600000D02*
X56150000Y-138265000D01*
X56150000Y-123300000D02*
X57200000Y-122250000D01*
X62039460Y-119790240D02*
X62039460Y-118789460D01*
X57200000Y-122250000D02*
X59579700Y-122250000D01*
X56150000Y-138265000D02*
X56150000Y-123300000D01*
X59579700Y-122250000D02*
X62039460Y-119790240D01*
D18*
X73800000Y-141500000D02*
X74300000Y-142000000D01*
X82000000Y-142000000D02*
X82750000Y-142750000D01*
X82750000Y-142750000D02*
X82750000Y-147050000D01*
X75805000Y-135745000D02*
X73800000Y-137750000D01*
X75805000Y-124335000D02*
X75805000Y-135745000D01*
D17*
X65025000Y-144600000D02*
X67475000Y-147050000D01*
D18*
X74300000Y-142000000D02*
X82000000Y-142000000D01*
X73800000Y-137750000D02*
X73800000Y-141500000D01*
D17*
X67475000Y-147050000D02*
X82750000Y-147050000D01*
X61171600Y-122928400D02*
X61171599Y-126525465D01*
X61850000Y-122250000D02*
X61171600Y-122928400D01*
X60505900Y-137540900D02*
X67565000Y-144600000D01*
X61121600Y-126575464D02*
X61121600Y-128140000D01*
X61171599Y-126525465D02*
X61121600Y-126575464D01*
X60505900Y-128755700D02*
X60505900Y-137540900D01*
X61121600Y-128140000D02*
X60505900Y-128755700D01*
X61079400Y-129136500D02*
X61869090Y-128346810D01*
X61079400Y-134779400D02*
X61079400Y-129136500D01*
X70105000Y-143805000D02*
X61079400Y-134779400D01*
X61869090Y-128346810D02*
X61869090Y-126046630D01*
X70105000Y-144600000D02*
X70105000Y-143805000D01*
X72645000Y-144600000D02*
X72645000Y-140245000D01*
X72645000Y-140245000D02*
X61800000Y-129400000D01*
X87150000Y-132400000D02*
X91045000Y-128505000D01*
X91045000Y-128505000D02*
X91045000Y-124335000D01*
X84897800Y-129156900D02*
X88505000Y-125549700D01*
X84897800Y-132052000D02*
X84897800Y-129156900D01*
X88505000Y-124335000D02*
X88505000Y-125549700D01*
X141750000Y-61870000D02*
X141750000Y-58875000D01*
X146300000Y-66420000D02*
X141750000Y-61870000D01*
X141750000Y-58875000D02*
X136815000Y-53940000D01*
X138782600Y-97692400D02*
X136815000Y-99660000D01*
X138782600Y-84097400D02*
X138782600Y-97692400D01*
X146300000Y-76580000D02*
X138782600Y-84097400D01*
X146300000Y-81660000D02*
X143378800Y-84581200D01*
X143378800Y-84581200D02*
X143378800Y-95636200D01*
X143378800Y-95636200D02*
X136815000Y-102200000D01*
M02*
