M48
; DRILL file {KiCad 7.0.11-7.0.11~ubuntu22.04.1} date Wed 18 Sep 2024 11:24:29 PM EDT
; FORMAT={-:-/ absolute / inch / decimal}
; #@! TF.CreationDate,2024-09-18T23:24:29-04:00
; #@! TF.GenerationSoftware,Kicad,Pcbnew,7.0.11-7.0.11~ubuntu22.04.1
; #@! TF.FileFunction,Plated,1,4,PTH
FMAT,2
INCH
; #@! TA.AperFunction,Plated,PTH,ViaDrill
T1C0.0100
; #@! TA.AperFunction,Plated,PTH,ComponentDrill
T2C0.0315
; #@! TA.AperFunction,Plated,PTH,ComponentDrill
T3C0.0394
; #@! TA.AperFunction,Plated,PTH,ComponentDrill
T4C0.0402
; #@! TA.AperFunction,Plated,PTH,ComponentDrill
T5C0.1575
%
G90
G05
T1
X2.4331Y-5.0945
X2.435Y-4.813
X2.4358Y-4.9625
X2.437Y-4.5335
X2.4373Y-4.3914
X2.4425Y-4.6768
X2.5217Y-4.4587
X2.5236Y-4.3012
X2.7053Y-4.5567
X2.7092Y-4.5043
X2.733Y-4.4656
X2.7421Y-4.5965
X2.7645Y-4.4341
X2.8Y-4.3986
X2.8386Y-5.0945
X2.9193Y-4.2323
X3.2074Y-4.1485
X3.22Y-4.69
X3.2554Y-4.3907
X3.2554Y-4.6545
X3.2672Y-4.438
X3.2818Y-4.1993
X3.2869Y-4.4656
X3.2869Y-4.623
X3.2872Y-4.3013
X3.3066Y-4.501
X3.3184Y-4.5876
X3.3263Y-4.5404
X3.3424Y-5.1989
X3.4016Y-4.5039
X3.4094Y-4.4567
X3.4118Y-4.5527
X3.4134Y-4.4114
X3.4311Y-5.2126
X3.4336Y-3.0215
X3.4394Y-4.5803
X3.455Y-4.4073
X3.4608Y-4.607
X3.4724Y-4.6535
X3.4782Y-4.3852
X3.5925Y-4.1988
X3.6102Y-4.311
X3.7421Y-4.5846
X3.9186Y-4.6696
X3.9193Y-4.622
X3.954Y-4.3711
X3.9556Y-4.4081
X3.9583Y-4.4402
X3.9643Y-4.5948
X3.9731Y-4.4687
X3.979Y-4.5544
X3.9927Y-4.494
X4.0988Y-2.6741
X4.1476Y-2.1909
X4.1828Y-2.9741
X4.1914Y-4.3789
X4.3031Y-4.2008
X4.3346Y-5.2028
X4.3957Y-4.3032
X4.5335Y-3.7868
X4.6043Y-4.6693
X4.6398Y-4.3701
X4.6398Y-4.6339
X4.6518Y-4.4171
X4.6713Y-4.4449
X4.6713Y-4.6024
X4.6909Y-4.4803
X4.7028Y-4.5669
X4.7106Y-4.5197
X4.7701Y-4.4527
X4.7755Y-4.502
X4.7761Y-4.5423
X4.7957Y-4.4203
X4.7957Y-4.5778
X4.8154Y-4.6053
X4.8272Y-4.3888
X4.8272Y-4.6526
X4.9469Y-4.2835
X4.9941Y-4.1673
X5.0089Y-2.9736
X5.1417Y-4.6969
X5.2005Y-3.8621
X5.2678Y-4.2137
X5.2795Y-4.6693
X5.2882Y-5.1253
X5.315Y-4.3701
X5.315Y-4.6339
X5.3268Y-4.4173
X5.3465Y-4.4449
X5.3465Y-4.6024
X5.3661Y-4.4803
X5.378Y-4.5669
X5.3858Y-4.5197
X5.4281Y-4.1469
X5.5628Y-4.2837
X5.6378Y-2.7953
X5.6697Y-4.3855
X5.8124Y-3.0648
X5.8176Y-3.3335
T2
X2.9844Y-4.8951
X2.9844Y-5.4951
X3.0844Y-4.8951
X3.0844Y-5.4951
X3.1844Y-4.8951
X3.1844Y-5.4951
X3.2844Y-4.8951
X3.2844Y-5.4951
X3.3844Y-4.8951
X3.3844Y-5.4951
X3.4844Y-4.8951
X3.4844Y-5.4951
X3.5844Y-4.8951
X3.5844Y-5.4951
X3.6844Y-4.8951
X3.6844Y-5.4951
X3.7844Y-4.8951
X3.7844Y-5.4951
X3.8844Y-4.8951
X3.8844Y-5.4951
X3.9844Y-4.8951
X3.9844Y-5.4951
X4.0844Y-4.8951
X4.0844Y-5.4951
X4.1844Y-4.8951
X4.1844Y-5.4951
X4.2844Y-4.8951
X4.2844Y-5.4951
X4.3844Y-4.8951
X4.3844Y-5.4951
X4.4844Y-4.8951
X4.4844Y-5.4951
X4.5844Y-4.8951
X4.5844Y-5.4951
X4.6844Y-4.8951
X4.6844Y-5.4951
X4.7844Y-4.8951
X4.7844Y-5.4951
X4.8844Y-4.8951
X4.8844Y-5.4951
T3
X2.1177Y-2.5685
X2.1177Y-2.6685
X2.1177Y-2.7685
X2.1177Y-2.8685
X2.1177Y-2.9685
X2.1177Y-3.0685
X2.1177Y-3.1685
X2.1177Y-3.2685
X2.1177Y-3.5319
X2.1177Y-3.6319
X2.1177Y-3.7319
X2.1177Y-3.8319
X2.1177Y-3.9319
X2.1177Y-4.0319
X2.1177Y-4.1319
X2.1177Y-4.2319
X2.1181Y-4.6488
X2.1181Y-4.7488
X2.1181Y-4.8488
X2.1181Y-4.9488
X2.1181Y-5.0488
X2.1181Y-5.1488
X2.1181Y-5.2488
X2.1181Y-5.3488
X2.3228Y-4.363
X2.3228Y-4.463
X2.3228Y-4.563
X2.3228Y-4.663
X2.3228Y-4.763
X2.3228Y-4.863
X2.3228Y-4.963
X2.3228Y-5.063
X2.46Y-5.6929
X2.56Y-5.6929
X2.66Y-5.6929
X2.76Y-5.6929
X2.86Y-5.6929
X2.96Y-5.6929
X3.06Y-5.6929
X3.16Y-5.6929
X3.3671Y-5.6732
X3.4671Y-5.6732
X3.5671Y-5.6732
X3.6671Y-5.6732
X3.7671Y-5.6732
X3.8671Y-5.6732
X3.9671Y-5.6732
X4.0671Y-5.6732
X4.312Y-5.6732
X4.412Y-5.6732
X4.512Y-5.6732
X4.612Y-5.6732
X4.712Y-5.6732
X4.812Y-5.6732
X4.912Y-5.6732
X5.012Y-5.6732
X5.189Y-4.952
X5.189Y-5.052
X5.189Y-5.152
X5.189Y-5.252
X5.189Y-5.352
X5.189Y-5.452
X5.189Y-5.552
X5.189Y-5.652
X5.4795Y-5.2677
X5.5157Y-4.3622
X5.5157Y-4.4622
X5.5157Y-4.5622
X5.5157Y-4.6622
X5.5157Y-4.7622
X5.5157Y-4.8622
X5.5157Y-4.9622
X5.5157Y-5.0622
X5.5795Y-5.2677
X5.6795Y-5.2677
X5.7598Y-2.515
X5.7598Y-2.615
X5.7598Y-2.715
X5.7598Y-2.815
X5.7598Y-2.915
X5.7598Y-3.015
X5.7598Y-3.115
X5.7598Y-3.215
X5.7638Y-3.4535
X5.7638Y-3.5535
X5.7638Y-3.6535
X5.7638Y-3.7535
X5.7638Y-3.8535
X5.7638Y-3.9535
X5.7638Y-4.0535
X5.7638Y-4.1535
X5.7795Y-4.4087
X5.7795Y-4.5087
X5.7795Y-4.6087
X5.7795Y-4.7087
X5.7795Y-4.8087
X5.7795Y-4.9087
X5.7795Y-5.0087
X5.7795Y-5.1087
X5.7795Y-5.2677
T4
X2.4811Y-2.1268
X2.4811Y-2.2268
X2.4811Y-2.3268
X2.4811Y-2.4268
X2.4811Y-2.5268
X2.4811Y-2.6268
X2.4811Y-2.7268
X2.4811Y-2.8268
X2.4811Y-2.9268
X2.4811Y-3.0268
X2.4811Y-3.1268
X2.4811Y-3.2268
X2.4811Y-3.3268
X2.4811Y-3.4268
X2.4811Y-3.5268
X2.4811Y-3.6268
X2.4811Y-3.7268
X2.4811Y-3.8268
X2.4811Y-3.9268
X2.4811Y-4.0268
X2.8541Y-3.2972
X2.9541Y-3.2972
X3.0541Y-3.2972
X3.1811Y-2.1268
X3.1811Y-2.2268
X3.1811Y-2.3268
X3.1811Y-2.4268
X3.1811Y-2.5268
X3.1811Y-2.6268
X3.1811Y-2.7268
X3.1811Y-2.8268
X3.1811Y-2.9268
X3.1811Y-3.0268
X3.1811Y-3.1268
X3.1811Y-3.2268
X3.1811Y-3.3268
X3.1811Y-3.4268
X3.1811Y-3.5268
X3.1811Y-3.6268
X3.1811Y-3.7268
X3.1811Y-3.8268
X3.1811Y-3.9268
X3.1811Y-4.0268
X3.5825Y-2.1244
X3.5825Y-2.2244
X3.5825Y-2.3244
X3.5825Y-2.4244
X3.5825Y-2.5244
X3.5825Y-2.6244
X3.5825Y-2.7244
X3.5825Y-2.8244
X3.5825Y-2.9244
X3.5825Y-3.0244
X3.5825Y-3.1244
X3.5825Y-3.2244
X3.5825Y-3.3244
X3.5825Y-3.4244
X3.5825Y-3.5244
X3.5825Y-3.6244
X3.5825Y-3.7244
X3.5825Y-3.8244
X3.5825Y-3.9244
X3.5825Y-4.0244
X3.9555Y-3.2949
X4.0555Y-3.2949
X4.1555Y-3.2949
X4.2825Y-2.1244
X4.2825Y-2.2244
X4.2825Y-2.3244
X4.2825Y-2.4244
X4.2825Y-2.5244
X4.2825Y-2.6244
X4.2825Y-2.7244
X4.2825Y-2.8244
X4.2825Y-2.9244
X4.2825Y-3.0244
X4.2825Y-3.1244
X4.2825Y-3.2244
X4.2825Y-3.3244
X4.2825Y-3.4244
X4.2825Y-3.5244
X4.2825Y-3.6244
X4.2825Y-3.7244
X4.2825Y-3.8244
X4.2825Y-3.9244
X4.2825Y-4.0244
X4.6864Y-2.1236
X4.6864Y-2.2236
X4.6864Y-2.3236
X4.6864Y-2.4236
X4.6864Y-2.5236
X4.6864Y-2.6236
X4.6864Y-2.7236
X4.6864Y-2.8236
X4.6864Y-2.9236
X4.6864Y-3.0236
X4.6864Y-3.1236
X4.6864Y-3.2236
X4.6864Y-3.3236
X4.6864Y-3.4236
X4.6864Y-3.5236
X4.6864Y-3.6236
X4.6864Y-3.7236
X4.6864Y-3.8236
X4.6864Y-3.9236
X4.6864Y-4.0236
X5.0594Y-3.2941
X5.1594Y-3.2941
X5.2594Y-3.2941
X5.3864Y-2.1236
X5.3864Y-2.2236
X5.3864Y-2.3236
X5.3864Y-2.4236
X5.3864Y-2.5236
X5.3864Y-2.6236
X5.3864Y-2.7236
X5.3864Y-2.8236
X5.3864Y-2.9236
X5.3864Y-3.0236
X5.3864Y-3.1236
X5.3864Y-3.2236
X5.3864Y-3.3236
X5.3864Y-3.4236
X5.3864Y-3.5236
X5.3864Y-3.6236
X5.3864Y-3.7236
X5.3864Y-3.8236
X5.3864Y-3.9236
X5.3864Y-4.0236
T5
X2.1731Y-5.7124
X2.1853Y-2.1746
X5.6915Y-2.1748
X5.6982Y-5.6992
M30
